<svg width="56" height="56" viewBox="0 0 56 56" fill="none" xmlns="http://www.w3.org/2000/svg">
<rect x="1.5" y="1.5" width="53" height="53" rx="6.5" fill="white" stroke="#3283CA" stroke-width="3"/>
<path fill-rule="evenodd" clip-rule="evenodd" d="M16 28C16 27.4477 16.4477 27 17 27H39C39.5523 27 40 27.4477 40 28C40 28.5523 39.5523 29 39 29H17C16.4477 29 16 28.5523 16 28Z" fill="#3283CA"/>
<path fill-rule="evenodd" clip-rule="evenodd" d="M28 16C28.5523 16 29 16.4477 29 17V39C29 39.5523 28.5523 40 28 40C27.4477 40 27 39.5523 27 39V17C27 16.4477 27.4477 16 28 16Z" fill="#3283CA"/>
</svg>
