<svg width="24" height="24" viewBox="0 0 24 24" fill="none" xmlns="http://www.w3.org/2000/svg">
<path fill-rule="evenodd" clip-rule="evenodd" d="M11.9999 5.99695C12.4141 5.99695 12.7499 6.33273 12.7499 6.74695V11.2469H17.2499C17.6641 11.2469 17.9999 11.5827 17.9999 11.9969C17.9999 12.4112 17.6641 12.7469 17.2499 12.7469H11.9999C11.5857 12.7469 11.2499 12.4112 11.2499 11.9969V6.74695C11.2499 6.33273 11.5857 5.99695 11.9999 5.99695Z" fill="#1F1F1F"/>
<path fill-rule="evenodd" clip-rule="evenodd" d="M11.9999 4.49695C7.85774 4.49695 4.49988 7.85481 4.49988 11.9969C4.49988 16.1391 7.85774 19.4969 11.9999 19.4969C16.142 19.4969 19.4999 16.1391 19.4999 11.9969C19.4999 7.85481 16.142 4.49695 11.9999 4.49695ZM2.99988 11.9969C2.99988 7.02639 7.02931 2.99695 11.9999 2.99695C16.9704 2.99695 20.9999 7.02639 20.9999 11.9969C20.9999 16.9675 16.9704 20.9969 11.9999 20.9969C7.02931 20.9969 2.99988 16.9675 2.99988 11.9969Z" fill="#1F1F1F"/>
<path fill-rule="evenodd" clip-rule="evenodd" d="M17.835 1.9228C18.1279 1.6299 18.6028 1.6299 18.8957 1.92279L22.0738 5.10092C22.3667 5.39381 22.3667 5.86869 22.0738 6.16158C21.7809 6.45447 21.306 6.45447 21.0132 6.16158L17.835 2.98346C17.5421 2.69056 17.5421 2.21569 17.835 1.9228Z" fill="#1F1F1F"/>
<path fill-rule="evenodd" clip-rule="evenodd" d="M6.16451 1.92279C6.4574 2.21569 6.4574 2.69056 6.16451 2.98346L2.98638 6.16158C2.69349 6.45447 2.21862 6.45447 1.92572 6.16158C1.63283 5.86869 1.63283 5.39381 1.92572 5.10092L5.10385 1.92279C5.39674 1.6299 5.87162 1.6299 6.16451 1.92279Z" fill="#1F1F1F"/>
</svg>
