<svg width="15" height="14" viewBox="0 0 15 14" fill="none" xmlns="http://www.w3.org/2000/svg">
<path d="M5.95312 1.08594L6.64687 0.392188C6.94062 0.0984375 7.41563 0.0984375 7.70625 0.392188L13.7812 6.46406C14.075 6.75781 14.075 7.23281 13.7812 7.52344L7.70625 13.5984C7.4125 13.8922 6.9375 13.8922 6.64687 13.5984L5.95312 12.9047C5.65625 12.6078 5.6625 12.1234 5.96562 11.8328L9.73125 8.24531H0.75C0.334375 8.24531 0 7.91094 0 7.49531V6.49531C0 6.07969 0.334375 5.74531 0.75 5.74531H9.73125L5.96562 2.15781C5.65937 1.86719 5.65312 1.38281 5.95312 1.08594Z" fill="#3283CA"/>
</svg>
