<svg width="64" height="64" viewBox="0 0 64 64" fill="none" xmlns="http://www.w3.org/2000/svg">
<rect width="64" height="64" rx="8" fill="#3283CA"/>
<path fill-rule="evenodd" clip-rule="evenodd" d="M42.5681 24.4478L45.6386 30.3268L45.6411 30.3315L43.4319 31.4316L40.358 25.5528L42.5681 24.4478ZM46.5333 32.1215L43.4458 33.659C42.9583 33.9017 42.3662 33.7098 42.1138 33.2272L38.1138 25.5772C37.9895 25.3394 37.9659 25.0615 38.0485 24.8062C38.131 24.5509 38.3128 24.3394 38.5528 24.2194L41.6749 22.6583C42.1414 22.4219 42.6824 22.3788 43.1805 22.5386C43.6796 22.6987 44.0952 23.0494 44.3369 23.5144C44.3372 23.5149 44.3374 23.5153 44.3376 23.5158L47.4089 29.3961C47.4094 29.3971 47.4099 29.398 47.4104 29.3989C47.5342 29.6339 47.61 29.8912 47.6334 30.1558C47.6568 30.4214 47.6269 30.689 47.5453 30.9429C47.4638 31.1968 47.3323 31.4319 47.1586 31.6342C46.9849 31.8365 46.7719 32.0024 46.5333 32.1215Z" fill="white"/>
<path fill-rule="evenodd" clip-rule="evenodd" d="M21.4369 24.3128L18.3639 30.1965L20.5688 31.3034L23.6424 25.4155L21.4369 24.3128ZM20.8098 22.4136C21.3048 22.2502 21.844 22.2864 22.3127 22.5147L22.322 22.5192L25.447 24.0818C25.6869 24.2017 25.8686 24.4131 25.9512 24.6683C26.0338 24.9235 26.0104 25.2012 25.8863 25.439L21.8863 33.1015C21.6336 33.5856 21.0392 33.7774 20.5511 33.5324L17.4672 31.9842C17.23 31.8671 17.0185 31.7038 16.8451 31.5039C16.6706 31.3026 16.5383 31.0682 16.4562 30.8147C16.374 30.5612 16.3437 30.2938 16.367 30.0284C16.3901 29.7643 16.4659 29.5075 16.5897 29.2732L19.6627 23.3897C19.6628 23.3894 19.663 23.389 19.6632 23.3887C19.9038 22.9268 20.3152 22.5769 20.8098 22.4136Z" fill="white"/>
<path fill-rule="evenodd" clip-rule="evenodd" d="M20.2118 32.0234C20.5516 31.588 21.18 31.5106 21.6154 31.8505L28.4529 37.188L28.4679 37.1999L35.6674 38.9998C35.6753 39.0007 35.6833 39 35.691 38.9979C35.6986 38.9958 35.7057 38.9923 35.712 38.9875L40.2645 34.435L42.2385 32.1156C42.5965 31.695 43.2276 31.6442 43.6482 32.0022C44.0687 32.3601 44.1195 32.9912 43.7616 33.4118L41.7616 35.7618C41.7442 35.7822 41.7261 35.8019 41.7072 35.8208L37.1072 40.4208C37.1028 40.4251 37.0985 40.4294 37.0941 40.4336C37.0905 40.4372 37.0868 40.4407 37.0831 40.4441C36.8397 40.6717 36.5448 40.8369 36.2237 40.9257C35.9025 41.0144 35.5646 41.024 35.2389 40.9537C35.2284 40.9514 35.2179 40.949 35.2075 40.9464L27.9575 39.1339C27.9488 39.1317 27.9402 39.1294 27.9315 39.127C27.6704 39.0542 27.4269 38.9291 27.2157 38.7594L20.3847 33.427C19.9494 33.0871 19.8719 32.4587 20.2118 32.0234Z" fill="white"/>
<path fill-rule="evenodd" clip-rule="evenodd" d="M33.9143 26.1138L29.028 30.9876C29.0272 30.9886 29.0266 30.9898 29.0261 30.991C29.0255 30.9927 29.0253 30.9944 29.0254 30.9962C29.0256 30.998 29.0261 30.9997 29.0269 31.0012C29.0278 31.0028 29.0289 31.0041 29.0303 31.0052L29.7013 31.5147C30.2212 31.9016 30.852 32.1107 31.5001 32.1107C32.1491 32.1107 32.7808 31.9011 33.301 31.5131C33.3013 31.5129 33.3017 31.5126 33.302 31.5124L34.9001 30.3138C35.2513 30.0504 35.7332 30.0468 36.0883 30.305L41.5883 34.305C42.0349 34.6299 42.1337 35.2553 41.8088 35.7019C41.484 36.1486 40.8586 36.2473 40.4119 35.9225L35.5093 32.3569L34.4982 33.1152C33.6323 33.7615 32.5807 34.1107 31.5001 34.1107C30.4196 34.1107 29.3679 33.7615 28.502 33.1152L28.4954 33.1102L27.8204 32.5977C27.5935 32.4252 27.4054 32.2061 27.2694 31.9557C27.1333 31.7052 27.0521 31.4288 27.0309 31.1445C27.0098 30.8603 27.0493 30.5749 27.1467 30.307C27.2442 30.0392 27.3974 29.7952 27.5963 29.591L27.6064 29.5808L32.5073 24.6924C32.6925 24.5081 32.9123 24.3621 33.1541 24.2628C33.3952 24.1638 33.6534 24.1131 33.9141 24.1138C33.9147 24.1138 33.9154 24.1138 33.9161 24.1138L33.9126 25.1138V24.1138H33.9141H39.0001C39.5524 24.1138 40.0001 24.5615 40.0001 25.1138C40.0001 25.6661 39.5524 26.1138 39.0001 26.1138H33.9143Z" fill="white"/>
<path fill-rule="evenodd" clip-rule="evenodd" d="M31.7631 24.0625L36.0868 26.0244C36.5897 26.2526 37.1824 26.0299 37.4106 25.527C37.6388 25.024 37.4161 24.4313 36.9132 24.2031L32.5882 22.2406L32.5868 22.24C32.1548 22.0447 31.6675 22.0093 31.2118 22.14L24.7943 24.0164C24.2642 24.1714 23.9602 24.7268 24.1152 25.2569C24.2702 25.787 24.8255 26.0911 25.3556 25.9361L31.7631 24.0625Z" fill="white"/>
<path fill-rule="evenodd" clip-rule="evenodd" d="M22.2445 38.3461C22.6064 37.9288 23.238 37.8839 23.6552 38.2458L26.4767 40.6928C26.4786 40.6932 26.4805 40.6937 26.4823 40.6942L30.2448 41.6442C30.7803 41.7794 31.1048 42.3231 30.9696 42.8585C30.8344 43.394 30.2907 43.7185 29.7552 43.5833L26.0027 42.6358C25.692 42.5631 25.4042 42.4143 25.1653 42.2027L22.3448 39.7567C21.9276 39.3949 21.8827 38.7633 22.2445 38.3461Z" fill="white"/>
</svg>
