<svg width="32" height="32" viewBox="0 0 32 32" fill="none" xmlns="http://www.w3.org/2000/svg">
<g clip-path="url(#clip0_265_3420)">
<path d="M9.33337 23.9998C7.86671 23.9998 6.68004 25.1998 6.68004 26.6665C6.68004 28.1332 7.86671 29.3332 9.33337 29.3332C10.8 29.3332 12 28.1332 12 26.6665C12 25.1998 10.8 23.9998 9.33337 23.9998ZM1.33337 2.6665V5.33317H4.00004L8.80004 15.4532L7.00004 18.7198C6.78671 19.0932 6.66671 19.5332 6.66671 19.9998C6.66671 21.4665 7.86671 22.6665 9.33337 22.6665H25.3334V19.9998H9.89337C9.70671 19.9998 9.56004 19.8532 9.56004 19.6665L9.60004 19.5065L10.8 17.3332H20.7334C21.7334 17.3332 22.6134 16.7865 23.0667 15.9598L27.84 7.3065C27.9467 7.11984 28 6.89317 28 6.6665C28 5.93317 27.4 5.33317 26.6667 5.33317H6.94671L5.69337 2.6665H1.33337ZM22.6667 23.9998C21.2 23.9998 20.0134 25.1998 20.0134 26.6665C20.0134 28.1332 21.2 29.3332 22.6667 29.3332C24.1334 29.3332 25.3334 28.1332 25.3334 26.6665C25.3334 25.1998 24.1334 23.9998 22.6667 23.9998Z" fill="#1F1F1F"/>
</g>
<defs>
<clipPath id="clip0_265_3420">
<rect width="32" height="32" fill="white"/>
</clipPath>
</defs>
</svg>
