<svg width="20" height="20" viewBox="0 0 20 20" fill="none" xmlns="http://www.w3.org/2000/svg">
<path fill-rule="evenodd" clip-rule="evenodd" d="M10.5061 1.78568C8.50264 1.66012 6.52227 2.27016 4.93674 3.50126C3.35121 4.73236 2.26956 6.49986 1.89486 8.47195C1.52016 10.444 1.87817 12.4851 2.90169 14.2119C3.0065 14.3887 3.03414 14.6008 2.97814 14.7986L2.09973 17.9011L5.20219 17.0227L5.5 17.001L5.78892 17.0991C7.51574 18.1226 9.55678 18.4807 11.5289 18.106C13.501 17.7313 15.2685 16.6496 16.4996 15.0641C17.7307 13.4785 18.3407 11.4982 18.2151 9.49474C18.0896 7.4913 17.2371 5.60259 15.8176 4.18317C14.3982 2.76374 12.5095 1.91123 10.5061 1.78568ZM5.30834 18.5516C7.28723 19.6364 9.58513 20.0021 11.8089 19.5796C14.1399 19.1367 16.2291 17.8582 17.6843 15.984C19.1395 14.1099 19.8606 11.769 19.7122 9.40092C19.5638 7.03281 18.5561 4.8003 16.8783 3.12251C15.2005 1.44471 12.968 0.437024 10.5999 0.288615C8.23179 0.140205 5.89094 0.861282 4.0168 2.31648C2.14266 3.77167 0.86413 5.8609 0.421224 8.19195C-0.0012899 10.4157 0.364368 12.7136 1.44923 14.6925L0.654349 17.4999C0.580304 17.7555 0.576019 18.0263 0.641974 18.2841C0.708243 18.5432 0.842981 18.7797 1.03207 18.9687C1.22116 19.1578 1.45763 19.2926 1.71669 19.3588C1.97454 19.4248 2.24533 19.4205 2.50093 19.3465L5.30834 18.5516Z" fill="#1F1F1F"/>
</svg>
