<svg width="24" height="24" viewBox="0 0 24 24" fill="none" xmlns="http://www.w3.org/2000/svg">
<path d="M4 20.5L6.5 20H7.5L10 21H14.5L17.5 19.5L20 17L21 13.5L20.5 9L18 5.5L15 3.5L12.5 3L9 3.5L5 6.5L3 10.5L3.5 15.5L4 17L3.5 20L4 20.5Z" fill="#3283CA"/>
<path fill-rule="evenodd" clip-rule="evenodd" d="M12.5061 3.78568C10.5026 3.66012 8.52227 4.27016 6.93674 5.50126C5.35121 6.73236 4.26956 8.49986 3.89486 10.4719C3.52016 12.444 3.87817 14.4851 4.90169 16.2119C5.0065 16.3887 5.03414 16.6008 4.97814 16.7986L4.09973 19.9011L7.20219 19.0227L7.5 19.001L7.78892 19.0991C9.51574 20.1226 11.5568 20.4807 13.5289 20.106C15.501 19.7313 17.2685 18.6496 18.4996 17.0641C19.7307 15.4785 20.3407 13.4982 20.2151 11.4947C20.0896 9.4913 19.2371 7.60259 17.8176 6.18317C16.3982 4.76374 14.5095 3.91123 12.5061 3.78568ZM7.30834 20.5516C9.28723 21.6364 11.5851 22.0021 13.8089 21.5796C16.1399 21.1367 18.2291 19.8582 19.6843 17.984C21.1395 16.1099 21.8606 13.769 21.7122 11.4009C21.5638 9.03281 20.5561 6.8003 18.8783 5.12251C17.2005 3.44471 14.968 2.43702 12.5999 2.28861C10.2318 2.14021 7.89094 2.86128 6.0168 4.31648C4.14266 5.77167 2.86413 7.8609 2.42122 10.192C1.99871 12.4157 2.36437 14.7136 3.44923 16.6925L2.65435 19.4999C2.5803 19.7555 2.57602 20.0263 2.64197 20.2841C2.70824 20.5432 2.84298 20.7797 3.03207 20.9687C3.22116 21.1578 3.45763 21.2926 3.71669 21.3588C3.97454 21.4248 4.24533 21.4205 4.50093 21.3465L7.30834 20.5516Z" fill="#144E84"/>
</svg>
