<svg width="64" height="64" viewBox="0 0 64 64" fill="none" xmlns="http://www.w3.org/2000/svg">
<rect width="64" height="64" rx="8" fill="#3283CA"/>
<path d="M42 19H24.9875C22.7962 19 21.0088 20.7775 21 22.9675V42.9725C21 42.9813 21 42.9912 21 43V44C21 44.5525 21.4475 45 22 45H40C40.5525 45 41 44.5525 41 44C41 43.4475 40.5525 43 40 43H23V42.9775C23.005 41.89 23.89 41.005 24.975 41H42C42.5525 41 43 40.5525 43 40V20C43 19.4475 42.5525 19 42 19ZM31 21H37V30L34.6 28.2C34.245 27.9338 33.755 27.9338 33.4 28.2L31 30V21ZM41 39H24.9713C24.2538 39.0025 23.5812 39.1963 23 39.5312V22.9787C23.0025 22.4475 23.2113 21.95 23.5875 21.5763C23.9625 21.205 24.4588 21 24.9913 21H29V32C29 32.3787 29.2137 32.725 29.5525 32.895C29.8912 33.065 30.2963 33.0275 30.6 32.8013L34 30.2513L37.4 32.8013C37.5763 32.9338 37.7875 33.0013 38 33.0013C38.1525 33.0013 38.305 32.9662 38.4475 32.8962C38.7863 32.7262 39 32.3813 39 32.0013V21H41V39Z" fill="white"/>
</svg>
