<svg width="38" height="38" viewBox="0 0 38 38" fill="none" xmlns="http://www.w3.org/2000/svg">
<rect x="0.254883" y="0.632812" width="37.0196" height="36.7407" rx="4.61831" fill="#3283CA"/>
<path fill-rule="evenodd" clip-rule="evenodd" d="M12.1127 19.5802C12.1127 19.2631 12.3716 19.0061 12.6911 19.0061H16.7401C17.0596 19.0061 17.3186 19.2631 17.3186 19.5802C17.3186 19.8972 17.0596 20.1542 16.7401 20.1542H13.2695V24.7468C13.2695 25.0639 13.0106 25.3209 12.6911 25.3209C12.3716 25.3209 12.1127 25.0639 12.1127 24.7468V19.5802Z" fill="white"/>
<path fill-rule="evenodd" clip-rule="evenodd" d="M10.9558 24.7468C10.9558 24.4298 11.2148 24.1727 11.5342 24.1727H25.995C26.3145 24.1727 26.5735 24.4298 26.5735 24.7468C26.5735 25.0639 26.3145 25.3209 25.995 25.3209H11.5342C11.2148 25.3209 10.9558 25.0639 10.9558 24.7468Z" fill="white"/>
<path fill-rule="evenodd" clip-rule="evenodd" d="M16.1617 16.1357C16.1617 15.8187 16.4207 15.5616 16.7401 15.5616H20.7891C21.1086 15.5616 21.3676 15.8187 21.3676 16.1357C21.3676 16.4528 21.1086 16.7098 20.7891 16.7098H17.3186V24.7468C17.3186 25.0639 17.0596 25.3209 16.7401 25.3209C16.4207 25.3209 16.1617 25.0639 16.1617 24.7468V16.1357Z" fill="white"/>
<path fill-rule="evenodd" clip-rule="evenodd" d="M20.2107 12.6913C20.2107 12.3742 20.4697 12.1172 20.7891 12.1172H24.8382C25.1576 12.1172 25.4166 12.3742 25.4166 12.6913V24.7468C25.4166 25.0639 25.1576 25.3209 24.8382 25.3209H20.7891C20.4697 25.3209 20.2107 25.0639 20.2107 24.7468V12.6913ZM21.3676 13.2653V24.1727H24.2597V13.2653H21.3676Z" fill="white"/>
</svg>
