<svg width="24" height="24" viewBox="0 0 24 24" fill="none" xmlns="http://www.w3.org/2000/svg">
<path fill-rule="evenodd" clip-rule="evenodd" d="M12 3.75C7.44365 3.75 3.75 7.44365 3.75 12C3.75 16.5563 7.44365 20.25 12 20.25C16.5563 20.25 20.25 16.5563 20.25 12C20.25 7.44365 16.5563 3.75 12 3.75ZM2.25 12C2.25 6.61522 6.61522 2.25 12 2.25C17.3848 2.25 21.75 6.61522 21.75 12C21.75 17.3848 17.3848 21.75 12 21.75C6.61522 21.75 2.25 17.3848 2.25 12Z" fill="white"/>
<path fill-rule="evenodd" clip-rule="evenodd" d="M2.76562 9C2.76562 8.58579 3.10141 8.25 3.51562 8.25H20.4844C20.8986 8.25 21.2344 8.58579 21.2344 9C21.2344 9.41421 20.8986 9.75 20.4844 9.75H3.51562C3.10141 9.75 2.76562 9.41421 2.76562 9Z" fill="white"/>
<path fill-rule="evenodd" clip-rule="evenodd" d="M2.76562 15C2.76562 14.5858 3.10141 14.25 3.51562 14.25H20.4844C20.8986 14.25 21.2344 14.5858 21.2344 15C21.2344 15.4142 20.8986 15.75 20.4844 15.75H3.51562C3.10141 15.75 2.76562 15.4142 2.76562 15Z" fill="white"/>
<path fill-rule="evenodd" clip-rule="evenodd" d="M10.0378 6.10362C9.4079 7.57441 9 9.65857 9 12C9 14.3414 9.4079 16.4255 10.0378 17.8963C10.3533 18.633 10.7097 19.1813 11.0673 19.5345C11.4217 19.8845 11.736 20.0062 12 20.0062C12.264 20.0062 12.5783 19.8845 12.9327 19.5345C13.2902 19.1813 13.6467 18.633 13.9622 17.8963C14.5921 16.4255 15 14.3414 15 12C15 9.65857 14.5921 7.57441 13.9622 6.10362C13.6467 5.36688 13.2903 4.81862 12.9327 4.46545C12.5783 4.11544 12.264 3.99371 12 3.99371C11.736 3.99371 11.4217 4.11544 11.0673 4.46545C10.7097 4.81862 10.3533 5.36688 10.0378 6.10362ZM10.0133 3.3982C10.5562 2.86202 11.2284 2.49371 12 2.49371C12.7716 2.49371 13.4438 2.86202 13.9867 3.3982C14.5264 3.93121 14.978 4.66527 15.3411 5.5131C16.0684 7.21145 16.5 9.50541 16.5 12C16.5 14.4945 16.0684 16.7885 15.3411 18.4868C14.978 19.3347 14.5264 20.0687 13.9867 20.6017C13.4438 21.1379 12.7716 21.5062 12 21.5062C11.2284 21.5062 10.5562 21.1379 10.0133 20.6017C9.47362 20.0687 9.02201 19.3347 8.65891 18.4868C7.93157 16.7885 7.5 14.4945 7.5 12C7.5 9.50541 7.93157 7.21145 8.65891 5.5131C9.02201 4.66527 9.47362 3.93121 10.0133 3.3982Z" fill="white"/>
</svg>
