<svg width="36" height="38" viewBox="0 0 36 38" fill="none" xmlns="http://www.w3.org/2000/svg">
<g filter="url(#filter0_dd_1812_15825)">
<path d="M8 19L17.5 27H18.5L23.5 23L26.5 21L29.5 16.5L30 13L29.5 8.5L27.5 6.5L24 5L19.5 7L17.5 9L15.5 6L12.5 5L7.5 6.5L5.5 12L8 19Z" fill="white"/>
<path d="M18 28C17.8312 28 17.6637 27.9575 17.5112 27.8725C16.98 27.575 4.5 20.4825 4.5 11.5C4.5 7.36504 7.865 4.00004 12 4.00004C14.4037 4.00004 16.6075 5.13504 18.0013 6.99754C20.01 4.32004 23.6563 3.23129 26.885 4.57754C29.6888 5.74629 31.5 8.46379 31.5 11.5C31.5 20.4825 19.02 27.575 18.4888 27.8725C18.3375 27.9575 18.1688 28 18 28ZM12 6.00004C8.9675 6.00004 6.5 8.46754 6.5 11.5C6.5 18.395 15.7475 24.4625 18 25.8375C20.2525 24.4625 29.5 18.395 29.5 11.5C29.5 9.27254 28.1712 7.28004 26.115 6.42254C24.7587 5.85754 23.2638 5.85379 21.905 6.41379C20.5463 6.97379 19.4875 8.02754 18.9225 9.38379C18.7675 9.75629 18.4025 9.99879 18 9.99879C17.5975 9.99879 17.2325 9.75629 17.0775 9.38379C16.2213 7.32754 14.2275 5.99879 12 5.99879V6.00004Z" fill="white"/>
</g>
<defs>
<filter id="filter0_dd_1812_15825" x="0" y="0" width="36" height="38" filterUnits="userSpaceOnUse" color-interpolation-filters="sRGB">
<feFlood flood-opacity="0" result="BackgroundImageFix"/>
<feColorMatrix in="SourceAlpha" type="matrix" values="0 0 0 0 0 0 0 0 0 0 0 0 0 0 0 0 0 0 127 0" result="hardAlpha"/>
<feMorphology radius="2" operator="erode" in="SourceAlpha" result="effect1_dropShadow_1812_15825"/>
<feOffset dy="4"/>
<feGaussianBlur stdDeviation="2"/>
<feColorMatrix type="matrix" values="0 0 0 0 0.0941176 0 0 0 0 0.152941 0 0 0 0 0.294118 0 0 0 0.08 0"/>
<feBlend mode="normal" in2="BackgroundImageFix" result="effect1_dropShadow_1812_15825"/>
<feColorMatrix in="SourceAlpha" type="matrix" values="0 0 0 0 0 0 0 0 0 0 0 0 0 0 0 0 0 0 127 0" result="hardAlpha"/>
<feMorphology radius="2" operator="erode" in="SourceAlpha" result="effect2_dropShadow_1812_15825"/>
<feOffset dy="2"/>
<feGaussianBlur stdDeviation="2"/>
<feColorMatrix type="matrix" values="0 0 0 0 0.0941176 0 0 0 0 0.152941 0 0 0 0 0.294118 0 0 0 0.12 0"/>
<feBlend mode="normal" in2="effect1_dropShadow_1812_15825" result="effect2_dropShadow_1812_15825"/>
<feBlend mode="normal" in="SourceGraphic" in2="effect2_dropShadow_1812_15825" result="shape"/>
</filter>
</defs>
</svg>
