<svg width="32" height="32" viewBox="0 0 32 32" fill="none" xmlns="http://www.w3.org/2000/svg">
<path d="M16 28C15.8313 28 15.6637 27.9575 15.5112 27.8725C14.98 27.575 2.5 20.4825 2.5 11.5C2.5 7.36504 5.865 4.00004 10 4.00004C12.4037 4.00004 14.6075 5.13504 16.0013 6.99754C18.01 4.32004 21.6562 3.23129 24.885 4.57754C27.6888 5.74629 29.5 8.46379 29.5 11.5C29.5 20.4825 17.02 27.575 16.4888 27.8725C16.3375 27.9575 16.1687 28 16 28ZM10 6.00004C6.9675 6.00004 4.5 8.46754 4.5 11.5C4.5 18.395 13.7475 24.4625 16 25.8375C18.2525 24.4625 27.5 18.395 27.5 11.5C27.5 9.27254 26.1712 7.28004 24.115 6.42254C22.7587 5.85754 21.2638 5.85379 19.905 6.41379C18.5463 6.97379 17.4875 8.02754 16.9225 9.38379C16.7675 9.75629 16.4025 9.99879 16 9.99879C15.5975 9.99879 15.2325 9.75629 15.0775 9.38379C14.2213 7.32754 12.2275 5.99879 10 5.99879V6.00004Z" fill="#EB4D2D"/>
</svg>
