<svg width="64" height="64" viewBox="0 0 64 64" fill="none" xmlns="http://www.w3.org/2000/svg">
<rect width="64" height="64" rx="8" fill="#3283CA"/>
<path fill-rule="evenodd" clip-rule="evenodd" d="M20 21C20.5523 21 21 21.4477 21 22V41H44C44.5523 41 45 41.4477 45 42C45 42.5523 44.5523 43 44 43H20C19.4477 43 19 42.5523 19 42V22C19 21.4477 19.4477 21 20 21Z" fill="white"/>
<path fill-rule="evenodd" clip-rule="evenodd" d="M42.7071 23.2929C43.0976 23.6834 43.0976 24.3166 42.7071 24.7071L32.7071 34.7071C32.3166 35.0976 31.6834 35.0976 31.2929 34.7071L28 31.4142L20.7071 38.7071C20.3166 39.0976 19.6834 39.0976 19.2929 38.7071C18.9024 38.3166 18.9024 37.6834 19.2929 37.2929L27.2929 29.2929C27.6834 28.9024 28.3166 28.9024 28.7071 29.2929L32 32.5858L41.2929 23.2929C41.6834 22.9024 42.3166 22.9024 42.7071 23.2929Z" fill="white"/>
<path fill-rule="evenodd" clip-rule="evenodd" d="M36 24C36 23.4477 36.4477 23 37 23H42C42.5523 23 43 23.4477 43 24V29C43 29.5523 42.5523 30 42 30C41.4477 30 41 29.5523 41 29V25H37C36.4477 25 36 24.5523 36 24Z" fill="white"/>
</svg>
