<svg width="64" height="64" viewBox="0 0 64 64" fill="none" xmlns="http://www.w3.org/2000/svg">
<rect width="64" height="64" rx="8" fill="#3283CA"/>
<path fill-rule="evenodd" clip-rule="evenodd" d="M19 26C19 24.8954 19.8954 24 21 24H43C44.1046 24 45 24.8954 45 26V42C45 43.1046 44.1046 44 43 44H21C19.8954 44 19 43.1046 19 42V26ZM43 26H21V42H43V26Z" fill="white"/>
<path fill-rule="evenodd" clip-rule="evenodd" d="M26.8787 20.8787C27.4413 20.3161 28.2044 20 29 20H35C35.7957 20 36.5587 20.3161 37.1213 20.8787C37.6839 21.4413 38 22.2043 38 23V25C38 25.5523 37.5523 26 37 26C36.4477 26 36 25.5523 36 25V23C36 22.7348 35.8946 22.4804 35.7071 22.2929C35.5196 22.1054 35.2652 22 35 22H29C28.7348 22 28.4804 22.1054 28.2929 22.2929C28.1054 22.4804 28 22.7348 28 23V25C28 25.5523 27.5523 26 27 26C26.4477 26 26 25.5523 26 25V23C26 22.2043 26.3161 21.4413 26.8787 20.8787Z" fill="white"/>
<path fill-rule="evenodd" clip-rule="evenodd" d="M44.8658 31.2869C45.1423 31.765 44.9789 32.3767 44.5008 32.6532C40.7017 34.8504 36.3895 36.0049 32.0008 36C27.6104 36.0111 23.2958 34.8559 19.4983 32.6525C19.0206 32.3753 18.858 31.7634 19.1352 31.2857C19.4124 30.808 20.0243 30.6454 20.502 30.9226C23.9936 32.9485 27.9608 34.0105 31.9976 34L32.0014 34C36.0383 34.0048 40.0049 32.9429 43.4995 30.9219C43.9776 30.6454 44.5893 30.8088 44.8658 31.2869Z" fill="white"/>
<path fill-rule="evenodd" clip-rule="evenodd" d="M29.5 31C29.5 30.4477 29.9477 30 30.5 30H33.5C34.0523 30 34.5 30.4477 34.5 31C34.5 31.5523 34.0523 32 33.5 32H30.5C29.9477 32 29.5 31.5523 29.5 31Z" fill="white"/>
</svg>
