<svg width="64" height="64" viewBox="0 0 64 64" fill="none" xmlns="http://www.w3.org/2000/svg">
<rect width="64" height="64" rx="8" fill="#3283CA"/>
<path fill-rule="evenodd" clip-rule="evenodd" d="M27 28C27.3344 28 27.6466 28.1671 27.8321 28.4453L31 33.1972L32.1679 31.4453C32.3534 31.1671 32.6656 31 33 31H36C36.5523 31 37 31.4477 37 32C37 32.5523 36.5523 33 36 33H33.5352L31.8321 35.5547C31.6466 35.8329 31.3344 36 31 36C30.6656 36 30.3534 35.8329 30.1679 35.5547L27 30.8028L25.8321 32.5547C25.6466 32.8329 25.3344 33 25 33H20C19.4477 33 19 32.5523 19 32C19 31.4477 19.4477 31 20 31H24.4648L26.1679 28.4453C26.3534 28.1671 26.6656 28 27 28Z" fill="white"/>
<path fill-rule="evenodd" clip-rule="evenodd" d="M28.5851 22.6454C27.4628 22.0478 26.1681 21.8575 24.9214 22.1068C23.6746 22.3562 22.5527 23.0298 21.7466 24.0131C20.9405 24.9964 20.5 26.2285 20.5 27.5C20.5 27.6703 20.5005 27.8059 20.5096 27.9233C20.5519 28.474 20.1399 28.9547 19.5892 28.9971C19.0385 29.0394 18.5578 28.6274 18.5154 28.0767C18.5 27.8754 18.5 27.6678 18.5 27.5143L18.5 27.5C18.5 25.7662 19.1007 24.0859 20.1999 22.7451C21.2992 21.4043 22.829 20.4857 24.5291 20.1457C26.2293 19.8056 27.9947 20.0651 29.5251 20.8801C30.5021 21.4003 31.3448 22.1265 32 23C32.6552 22.1265 33.4979 21.4003 34.4749 20.8801C36.0053 20.0651 37.7707 19.8056 39.4709 20.1457C41.171 20.4857 42.7008 21.4043 43.8001 22.7451C44.8993 24.0859 45.5 25.7662 45.5 27.5C45.5 32.2103 42.072 36.3431 38.919 39.1808C37.3122 40.6269 35.71 41.796 34.5117 42.6029C33.9115 43.007 33.4102 43.3219 33.057 43.5369C32.8803 43.6444 32.7406 43.727 32.6438 43.7834C32.5954 43.8115 32.5578 43.8332 32.5317 43.8481L32.5012 43.8654L32.4927 43.8702L32.4901 43.8717C32.4897 43.8719 32.4886 43.8725 32 43C31.5105 43.872 31.5103 43.8719 31.5101 43.8718L31.5084 43.8709L31.5046 43.8687L31.4915 43.8613L31.4444 43.8343C31.4038 43.811 31.3452 43.777 31.2701 43.7326C31.1198 43.6439 30.9034 43.5137 30.6333 43.3449C30.0933 43.0074 29.3369 42.5143 28.4637 41.8873C26.7231 40.6377 24.4913 38.8372 22.5849 36.6585C22.2212 36.2429 22.2634 35.6111 22.679 35.2474C23.0946 34.8838 23.7264 34.9259 24.0901 35.3415C25.8587 37.3628 27.9581 39.0623 29.6301 40.2627C30.4631 40.8608 31.1833 41.3301 31.6933 41.6489C31.8065 41.7197 31.9093 41.7829 32.0006 41.8385C32.0061 41.8352 32.0116 41.8318 32.0172 41.8284C32.3476 41.6273 32.8229 41.3289 33.3946 40.944C34.54 40.1728 36.0628 39.0606 37.581 37.6942C40.678 34.9069 43.5 31.2897 43.5 27.5C43.5 26.2285 43.0595 24.9964 42.2534 24.0131C41.4473 23.0298 40.3254 22.3562 39.0786 22.1068C37.8319 21.8575 36.5372 22.0478 35.4149 22.6454C34.2927 23.243 33.4121 24.211 32.9231 25.3846C32.7678 25.7573 32.4037 26 32 26C31.5963 26 31.2322 25.7573 31.0769 25.3846C30.5879 24.211 29.7073 23.243 28.5851 22.6454ZM32 43L31.5101 43.8718C31.8138 44.0423 32.1847 44.0427 32.4886 43.8725L32 43Z" fill="white"/>
</svg>
