<svg width="22" height="20" viewBox="0 0 22 20" fill="none" xmlns="http://www.w3.org/2000/svg">
<path d="M19.0588 6.125H14V4.625C14 2.55687 12.3181 0.875 10.25 0.875C9.96594 0.875 9.70625 1.03531 9.57875 1.28938L6.03688 8.375H2C1.17313 8.375 0.5 9.04813 0.5 9.875V18.125C0.5 18.9519 1.17313 19.625 2 19.625H17.9319C19.0578 19.6194 20.0131 18.7738 20.1538 17.6553L21.2778 8.66187C21.2909 8.5625 21.2975 8.46125 21.2975 8.36C21.2947 7.12625 20.2897 6.125 19.0588 6.125ZM1.99906 9.875H5.75V18.125H2V9.875H1.99906ZM19.7891 8.46969L18.6641 17.4688C18.6172 17.8409 18.2984 18.1231 17.9272 18.125H7.25V9.30219L10.6916 2.41812C11.7219 2.62437 12.5 3.53469 12.5 4.625V6.875C12.5 7.28937 12.8356 7.625 13.25 7.625H19.0569C19.2538 7.625 19.4394 7.70188 19.5791 7.84063C19.7197 7.98031 19.7966 8.16594 19.7975 8.36375C19.7975 8.3975 19.7956 8.43031 19.79 8.46875L19.7891 8.46969Z" fill="#1F1F1F"/>
</svg>
