<svg width="24" height="24" viewBox="0 0 24 24" fill="none" xmlns="http://www.w3.org/2000/svg">
<path fill-rule="evenodd" clip-rule="evenodd" d="M9.72761 3.56828C9.82807 3.97012 9.58375 4.37732 9.1819 4.47778L3.75 5.83576V17.7896L8.8181 16.5226C9.21994 16.4221 9.62715 16.6664 9.72761 17.0683C9.82807 17.4701 9.58375 17.8773 9.1819 17.9778L3.1819 19.4778C2.95785 19.5338 2.72048 19.4835 2.53844 19.3413C2.3564 19.1992 2.25 18.9811 2.25 18.7502V5.25018C2.25 4.90603 2.48422 4.60604 2.8181 4.52257L8.8181 3.02257C9.21994 2.92211 9.62715 3.16643 9.72761 3.56828Z" fill="#1F1F1F"/>
<path fill-rule="evenodd" clip-rule="evenodd" d="M8.6057 3.1122C8.82681 2.97554 9.10292 2.96312 9.33541 3.07936L15.3354 6.07936C15.5895 6.20641 15.75 6.4661 15.75 6.75018V20.2502C15.75 20.5101 15.6154 20.7515 15.3943 20.8882C15.1732 21.0248 14.8971 21.0373 14.6646 20.921L8.66459 17.921C8.4105 17.794 8.25 17.5343 8.25 17.2502V3.75018C8.25 3.49025 8.38459 3.24885 8.6057 3.1122ZM9.75 4.96371V16.7867L14.25 19.0367V7.21371L9.75 4.96371Z" fill="#1F1F1F"/>
<path fill-rule="evenodd" clip-rule="evenodd" d="M21.4617 4.65904C21.6438 4.80117 21.7502 5.01924 21.7502 5.25019V18.7502C21.7502 19.0943 21.516 19.3943 21.1821 19.4778L15.1821 20.9778C14.7802 21.0783 14.373 20.8339 14.2726 20.4321C14.1721 20.0302 14.4164 19.623 14.8183 19.5226L20.2502 18.1646V6.21077L15.1821 7.4778C14.7802 7.57826 14.373 7.33394 14.2726 6.93209C14.1721 6.53025 14.4164 6.12304 14.8183 6.02258L20.8183 4.52258C21.0423 4.46657 21.2797 4.51691 21.4617 4.65904Z" fill="#1F1F1F"/>
</svg>
