<svg width="40" height="36" viewBox="0 0 40 36" fill="none" xmlns="http://www.w3.org/2000/svg">
<path fill-rule="evenodd" clip-rule="evenodd" d="M15.4552 1.13655C15.6561 1.94024 15.1675 2.75465 14.3638 2.95557L3.5 5.67152V29.5792L13.6362 27.0451C14.4399 26.8442 15.2543 27.3329 15.4552 28.1366C15.6561 28.9402 15.1675 29.7546 14.3638 29.9556L2.3638 32.9556C1.91569 33.0676 1.44096 32.9669 1.07688 32.6827C0.712807 32.3984 0.5 31.9623 0.5 31.5004V4.50035C0.5 3.81205 0.968446 3.21208 1.6362 3.04514L13.6362 0.0451411C14.4399 -0.155782 15.2543 0.332859 15.4552 1.13655Z" fill="#144E84"/>
<path fill-rule="evenodd" clip-rule="evenodd" d="M13.2114 0.224392C13.6536 -0.0489183 14.2058 -0.0737643 14.6708 0.158727L26.6708 6.15873C27.179 6.41282 27.5 6.93221 27.5 7.50037V34.5004C27.5 35.0202 27.2308 35.503 26.7886 35.7763C26.3464 36.0497 25.7942 36.0745 25.3292 35.842L13.3292 29.842C12.821 29.5879 12.5 29.0685 12.5 28.5004V1.50037C12.5 0.980501 12.7692 0.497702 13.2114 0.224392ZM15.5 3.92742V27.5733L24.5 32.0733V8.42742L15.5 3.92742Z" fill="#144E84"/>
<path fill-rule="evenodd" clip-rule="evenodd" d="M38.9235 3.31807C39.2875 3.60233 39.5004 4.03848 39.5004 4.50038V31.5004C39.5004 32.1887 39.0319 32.7887 38.3642 32.9556L26.3642 35.9556C25.5605 36.1565 24.7461 35.6679 24.5451 34.8642C24.3442 34.0605 24.8329 33.2461 25.6366 33.0452L36.5004 30.3292V6.42154L26.3642 8.95559C25.5605 9.15652 24.7461 8.66788 24.5451 7.86418C24.3442 7.06049 24.8329 6.24609 25.6366 6.04517L37.6366 3.04517C38.0847 2.93314 38.5594 3.03381 38.9235 3.31807Z" fill="#144E84"/>
</svg>
