<svg width="24" height="14" viewBox="0 0 24 14" fill="none" xmlns="http://www.w3.org/2000/svg">
<path fill-rule="evenodd" clip-rule="evenodd" d="M0.75 1.75C0.75 0.921573 1.42157 0.25 2.25 0.25H21.75C22.5784 0.25 23.25 0.921573 23.25 1.75V12.25C23.25 13.0784 22.5784 13.75 21.75 13.75H2.25C1.42157 13.75 0.75 13.0784 0.75 12.25V1.75ZM21.75 1.75H2.25V12.25H21.75V1.75Z" fill="#595959"/>
<path fill-rule="evenodd" clip-rule="evenodd" d="M12 4.75C10.7574 4.75 9.75 5.75736 9.75 7C9.75 8.24264 10.7574 9.25 12 9.25C13.2426 9.25 14.25 8.24264 14.25 7C14.25 5.75736 13.2426 4.75 12 4.75ZM8.25 7C8.25 4.92893 9.92893 3.25 12 3.25C14.0711 3.25 15.75 4.92893 15.75 7C15.75 9.07107 14.0711 10.75 12 10.75C9.92893 10.75 8.25 9.07107 8.25 7Z" fill="#595959"/>
<path fill-rule="evenodd" clip-rule="evenodd" d="M15.9356 0.506132C16.2083 0.194404 16.6822 0.162816 16.9939 0.435578L22.9939 5.68558C23.3056 5.95834 23.3372 6.43216 23.0644 6.74389C22.7917 7.05562 22.3179 7.0872 22.0061 6.81444L16.0061 1.56444C15.6944 1.29168 15.6628 0.817859 15.9356 0.506132Z" fill="#595959"/>
<path fill-rule="evenodd" clip-rule="evenodd" d="M23.0644 7.25613C23.3372 7.56786 23.3056 8.04168 22.9939 8.31444L16.9939 13.5644C16.6822 13.8372 16.2083 13.8056 15.9356 13.4939C15.6628 13.1822 15.6944 12.7083 16.0061 12.4356L22.0061 7.18558C22.3179 6.91282 22.7917 6.9444 23.0644 7.25613Z" fill="#595959"/>
<path fill-rule="evenodd" clip-rule="evenodd" d="M8.06444 0.506132C8.3372 0.817859 8.30562 1.29168 7.99389 1.56444L1.99389 6.81444C1.68216 7.0872 1.20834 7.05562 0.935578 6.74389C0.662816 6.43216 0.694404 5.95834 1.00613 5.68558L7.00613 0.435578C7.31786 0.162816 7.79168 0.194404 8.06444 0.506132Z" fill="#595959"/>
<path fill-rule="evenodd" clip-rule="evenodd" d="M0.935578 7.25613C1.20834 6.9444 1.68216 6.91282 1.99389 7.18558L7.99389 12.4356C8.30562 12.7083 8.3372 13.1822 8.06444 13.4939C7.79168 13.8056 7.31786 13.8372 7.00613 13.5644L1.00613 8.31444C0.694404 8.04168 0.662816 7.56786 0.935578 7.25613Z" fill="#595959"/>
</svg>
