<svg width="40" height="40" viewBox="0 0 40 40" fill="none" xmlns="http://www.w3.org/2000/svg">
<path d="M34.3438 27.4984C33.4157 25.8953 32.3094 22.8594 32.3094 17.5V16.3906C32.3078 9.47188 26.7532 3.80156 19.925 3.75H19.8375C16.5032 3.75469 13.3688 5.05781 11.0157 7.41875C8.66097 9.77969 7.36722 12.9156 7.3719 16.25V17.5C7.3719 22.8594 6.26565 25.8953 5.33597 27.5C5.11722 27.8766 5.00003 28.3063 5.00003 28.7406C4.9969 29.4078 5.25472 30.0375 5.72659 30.5109C6.19847 30.9844 6.82347 31.2469 7.4969 31.25H13.5891C13.5891 34.6969 16.3922 37.5 19.8391 37.5C23.286 37.5 26.0891 34.6969 26.0891 31.25H32.1875C32.6235 31.25 33.0532 31.1328 33.4282 30.9156C34.0063 30.5812 34.4203 30.0422 34.5938 29.3984C34.7672 28.7531 34.6782 28.0797 34.3438 27.5V27.4984ZM19.8407 35C17.7735 35 16.0907 33.3172 16.0907 31.25H23.5907C23.5907 33.3172 21.9078 35 19.8407 35ZM24.8485 28.75C24.8485 28.75 24.8438 28.75 24.8407 28.75C24.8375 28.75 24.836 28.75 24.8328 28.75H14.8563C14.8563 28.75 14.8453 28.75 14.8391 28.75C14.8328 28.75 14.8282 28.75 14.8219 28.75H7.50003C8.58128 26.8813 9.8719 23.4125 9.8719 17.4984V16.2484C9.86878 13.5797 10.9032 11.0703 12.786 9.18281C14.6688 7.29375 17.175 6.25156 19.8438 6.24844H19.9094C25.3688 6.29062 29.8094 10.8391 29.8094 16.3891V17.4984C29.8094 23.4125 31.0985 26.8813 32.1844 28.7484H24.8485V28.75Z" fill="white"/>
</svg>
