<svg width="32" height="32" viewBox="0 0 32 32" fill="none" xmlns="http://www.w3.org/2000/svg">
<path d="M27.475 21.9988C26.7325 20.7163 25.8475 18.2875 25.8475 14V13.1125C25.8463 7.5775 21.4025 3.04125 15.94 3H15.87C13.2025 3.00375 10.695 4.04625 8.81252 5.935C6.92877 7.82375 5.89377 10.3325 5.89752 13V14C5.89752 18.2875 5.01252 20.7163 4.26877 22C4.09377 22.3013 4.00002 22.645 4.00002 22.9925C3.99752 23.5263 4.20377 24.03 4.58127 24.4088C4.95877 24.7875 5.45877 24.9975 5.99752 25H10.8713C10.8713 27.7575 13.1138 30 15.8713 30C18.6288 30 20.8713 27.7575 20.8713 25H25.75C26.0988 25 26.4425 24.9062 26.7425 24.7325C27.205 24.465 27.5363 24.0337 27.675 23.5187C27.8138 23.0025 27.7425 22.4638 27.475 22V21.9988ZM15.8725 28C14.2188 28 12.8725 26.6538 12.8725 25H18.8725C18.8725 26.6538 17.5263 28 15.8725 28ZM19.8788 23C19.8788 23 19.875 23 19.8725 23C19.87 23 19.8688 23 19.8663 23H11.885C11.885 23 11.8763 23 11.8713 23C11.8663 23 11.8625 23 11.8575 23H6.00002C6.86502 21.505 7.89752 18.73 7.89752 13.9988V12.9987C7.89502 10.8637 8.72252 8.85625 10.2288 7.34625C11.735 5.835 13.74 5.00125 15.875 4.99875H15.9275C20.295 5.0325 23.8475 8.67125 23.8475 13.1112V13.9988C23.8475 18.73 24.8788 21.505 25.7475 22.9988H19.8788V23Z" fill="#1F1F1F"/>
</svg>
