<svg width="417" height="306" viewBox="0 0 417 306" fill="none" xmlns="http://www.w3.org/2000/svg">
<rect width="417" height="306" rx="8" fill="white"/>
<g clip-path="url(#clip0_861_20779)">
<path d="M379.242 186.127H136.314C135.318 186.125 134.362 185.729 133.658 185.025C132.953 184.321 132.557 183.366 132.556 182.369V48.7571C132.557 47.761 132.953 46.806 133.658 46.1017C134.362 45.3973 135.318 45.0011 136.314 45H379.242C380.238 45.0011 381.193 45.3973 381.898 46.1017C382.603 46.806 382.999 47.761 383 48.7571V182.369C382.999 183.366 382.603 184.321 381.898 185.025C381.193 185.729 380.238 186.125 379.242 186.127Z" fill="#E6E6E6"/>
<path d="M374.117 181.005H141.439C140.443 181.004 139.487 180.608 138.783 179.903C138.078 179.199 137.682 178.244 137.681 177.248V53.8821C137.682 52.886 138.078 51.931 138.783 51.2267C139.487 50.5223 140.443 50.1261 141.439 50.125H374.117C375.113 50.1261 376.068 50.5223 376.773 51.2267C377.477 51.931 377.874 52.886 377.875 53.8821V177.248C377.874 178.244 377.477 179.199 376.773 179.903C376.068 180.608 375.113 181.004 374.117 181.005Z" fill="white"/>
<path d="M206.548 126.244H162.773C162.29 126.244 161.826 126.051 161.484 125.709C161.142 125.368 160.95 124.904 160.949 124.421V78.8468C160.95 78.3634 161.142 77.8999 161.484 77.5581C161.826 77.2163 162.29 77.024 162.773 77.0234H206.548C207.031 77.024 207.495 77.2163 207.837 77.5581C208.179 77.8999 208.371 78.3634 208.372 78.8468V124.421C208.371 124.904 208.179 125.368 207.837 125.709C207.495 126.051 207.031 126.244 206.548 126.244ZM162.773 77.7528C162.483 77.7531 162.205 77.8684 162 78.0735C161.795 78.2786 161.679 78.5567 161.679 78.8468V124.421C161.679 124.711 161.795 124.989 162 125.194C162.205 125.399 162.483 125.515 162.773 125.515H206.548C206.838 125.515 207.116 125.399 207.321 125.194C207.526 124.989 207.642 124.711 207.642 124.421V78.8468C207.642 78.5567 207.526 78.2786 207.321 78.0735C207.116 77.8684 206.838 77.7531 206.548 77.7528H162.773Z" fill="#3F3D56"/>
<path d="M279.665 126.244H235.89C235.407 126.244 234.943 126.051 234.601 125.709C234.259 125.368 234.067 124.904 234.066 124.421V78.8468C234.067 78.3634 234.259 77.8999 234.601 77.5581C234.943 77.2163 235.407 77.024 235.89 77.0234H279.665C280.148 77.024 280.612 77.2163 280.954 77.5581C281.296 77.8999 281.488 78.3634 281.489 78.8468V124.421C281.488 124.904 281.296 125.368 280.954 125.709C280.612 126.051 280.148 126.244 279.665 126.244ZM235.89 77.7528C235.6 77.7531 235.322 77.8685 235.117 78.0736C234.912 78.2786 234.796 78.5567 234.796 78.8468V124.421C234.796 124.711 234.912 124.989 235.117 125.194C235.322 125.399 235.6 125.515 235.89 125.515H279.665C279.955 125.515 280.233 125.399 280.438 125.194C280.644 124.989 280.759 124.711 280.759 124.421V78.8468C280.759 78.5567 280.644 78.2786 280.438 78.0736C280.233 77.8685 279.955 77.7531 279.665 77.7528H235.89Z" fill="#3F3D56"/>
<path d="M352.782 126.244H309.008C308.524 126.244 308.06 126.051 307.718 125.709C307.377 125.368 307.184 124.904 307.184 124.421V78.8468C307.184 78.3634 307.377 77.8999 307.718 77.5581C308.06 77.2163 308.524 77.024 309.008 77.0234H352.782C353.266 77.024 353.729 77.2163 354.071 77.5581C354.413 77.8999 354.605 78.3634 354.606 78.8468V124.421C354.605 124.904 354.413 125.368 354.071 125.709C353.729 126.051 353.266 126.244 352.782 126.244ZM309.008 77.7528C308.717 77.7531 308.439 77.8684 308.234 78.0735C308.029 78.2786 307.913 78.5567 307.913 78.8468V124.421C307.913 124.711 308.029 124.989 308.234 125.194C308.439 125.399 308.717 125.515 309.008 125.515H352.782C353.072 125.515 353.35 125.399 353.556 125.194C353.761 124.989 353.876 124.711 353.876 124.421V78.8468C353.876 78.5567 353.761 78.2786 353.556 78.0735C353.35 77.8684 353.072 77.7531 352.782 77.7528H309.008Z" fill="#3F3D56"/>
<path d="M176.208 154.109C176.37 154.109 176.531 154.077 176.682 154.015C176.832 153.952 176.969 153.861 177.084 153.746C177.199 153.631 177.29 153.495 177.352 153.345C177.414 153.195 177.447 153.034 177.447 152.871C177.447 152.709 177.415 152.548 177.353 152.397C177.29 152.247 177.199 152.111 177.084 151.996C176.969 151.881 176.833 151.789 176.683 151.727C176.532 151.665 176.371 151.633 176.209 151.633H165.097C164.768 151.633 164.453 151.763 164.221 151.995C163.989 152.228 163.858 152.542 163.858 152.871C163.858 153.199 163.989 153.514 164.221 153.746C164.453 153.978 164.768 154.109 165.097 154.109H176.208Z" fill="#E6E6E6"/>
<path d="M204.225 146.812C204.553 146.812 204.868 146.682 205.101 146.451C205.333 146.219 205.465 145.904 205.465 145.576C205.466 145.248 205.336 144.933 205.104 144.7C204.872 144.468 204.558 144.337 204.229 144.336H165.096C164.768 144.337 164.454 144.467 164.222 144.699C163.991 144.931 163.86 145.246 163.86 145.574C163.86 145.902 163.991 146.216 164.222 146.448C164.454 146.68 164.768 146.811 165.096 146.812H204.225Z" fill="#E6E6E6"/>
<path d="M249.325 154.109C249.653 154.109 249.968 153.978 250.201 153.746C250.433 153.514 250.563 153.199 250.563 152.871C250.563 152.542 250.433 152.228 250.201 151.995C249.968 151.763 249.653 151.633 249.325 151.633H238.214C237.885 151.633 237.571 151.763 237.338 151.995C237.106 152.228 236.976 152.542 236.976 152.871C236.976 153.199 237.106 153.514 237.338 153.746C237.571 153.978 237.885 154.109 238.214 154.109H249.325Z" fill="#E6E6E6"/>
<path d="M277.342 146.812C277.67 146.811 277.984 146.68 278.216 146.448C278.448 146.216 278.578 145.902 278.578 145.574C278.578 145.246 278.448 144.931 278.216 144.699C277.984 144.467 277.67 144.337 277.342 144.336H238.214C237.886 144.337 237.571 144.467 237.339 144.699C237.108 144.931 236.978 145.246 236.978 145.574C236.978 145.902 237.108 146.216 237.339 146.448C237.571 146.68 237.886 146.811 238.214 146.812H277.342Z" fill="#E6E6E6"/>
<path d="M322.443 154.109C322.771 154.109 323.086 153.978 323.318 153.746C323.551 153.514 323.681 153.199 323.681 152.871C323.681 152.542 323.551 152.228 323.318 151.995C323.086 151.763 322.771 151.633 322.443 151.633H311.332C311.169 151.633 311.008 151.665 310.858 151.727C310.707 151.789 310.571 151.88 310.456 151.995C310.341 152.11 310.25 152.246 310.187 152.397C310.125 152.547 310.093 152.708 310.093 152.87C310.093 153.033 310.125 153.194 310.187 153.344C310.249 153.494 310.34 153.631 310.455 153.746C310.57 153.861 310.707 153.952 310.857 154.014C311.007 154.076 311.168 154.108 311.331 154.109H322.443Z" fill="#E6E6E6"/>
<path d="M350.459 146.812C350.788 146.811 351.102 146.68 351.334 146.448C351.565 146.216 351.696 145.902 351.696 145.574C351.696 145.246 351.565 144.931 351.334 144.699C351.102 144.467 350.788 144.337 350.459 144.336H311.331C311.169 144.336 311.008 144.367 310.857 144.429C310.707 144.491 310.57 144.582 310.455 144.697C310.34 144.812 310.248 144.948 310.186 145.098C310.123 145.248 310.091 145.409 310.091 145.572C310.091 145.734 310.122 145.895 310.184 146.045C310.246 146.196 310.337 146.332 310.452 146.448C310.567 146.563 310.703 146.654 310.853 146.717C311.003 146.779 311.164 146.811 311.327 146.812H350.459Z" fill="#E6E6E6"/>
<path d="M204.225 139.64C204.553 139.64 204.868 139.51 205.101 139.278C205.333 139.046 205.463 138.731 205.464 138.402C205.464 138.074 205.333 137.759 205.101 137.527C204.869 137.295 204.554 137.164 204.226 137.164H165.097C164.768 137.164 164.453 137.294 164.221 137.527C163.989 137.759 163.858 138.074 163.858 138.402C163.858 138.73 163.989 139.045 164.221 139.277C164.453 139.509 164.768 139.64 165.097 139.64H204.225Z" fill="#144E84"/>
<path d="M277.342 139.64C277.67 139.64 277.985 139.509 278.218 139.277C278.45 139.045 278.58 138.73 278.58 138.402C278.58 138.074 278.45 137.759 278.218 137.527C277.985 137.294 277.67 137.164 277.342 137.164H238.214C237.885 137.164 237.571 137.294 237.338 137.527C237.106 137.759 236.976 138.074 236.976 138.402C236.976 138.73 237.106 139.045 237.338 139.277C237.571 139.509 237.885 139.64 238.214 139.64H277.342Z" fill="#144E84"/>
<path d="M350.46 139.64C350.788 139.64 351.103 139.509 351.335 139.277C351.568 139.045 351.698 138.73 351.698 138.402C351.698 138.074 351.568 137.759 351.335 137.527C351.103 137.294 350.788 137.164 350.46 137.164H311.332C311.003 137.164 310.688 137.294 310.456 137.526C310.223 137.758 310.093 138.073 310.093 138.401C310.093 138.73 310.223 139.045 310.455 139.277C310.687 139.509 311.002 139.64 311.331 139.64H350.46Z" fill="#144E84"/>
<path d="M197.221 117.413C197.549 117.413 197.863 117.282 198.095 117.05C198.326 116.818 198.457 116.503 198.457 116.175C198.457 115.847 198.326 115.533 198.095 115.301C197.863 115.069 197.549 114.938 197.221 114.938H172.101C171.938 114.937 171.777 114.969 171.627 115.031C171.477 115.093 171.34 115.184 171.225 115.298C171.109 115.413 171.018 115.549 170.955 115.7C170.893 115.85 170.861 116.011 170.86 116.173C170.86 116.336 170.892 116.497 170.954 116.647C171.016 116.797 171.107 116.934 171.221 117.049C171.336 117.164 171.473 117.256 171.623 117.318C171.773 117.381 171.934 117.413 172.096 117.413H197.221Z" fill="#E6E6E6"/>
<path d="M197.221 110.116C197.549 110.116 197.863 109.985 198.095 109.753C198.326 109.521 198.457 109.206 198.457 108.878C198.457 108.551 198.326 108.236 198.095 108.004C197.863 107.772 197.549 107.641 197.221 107.641H172.101C171.938 107.64 171.777 107.672 171.627 107.734C171.477 107.796 171.34 107.887 171.225 108.002C171.109 108.116 171.018 108.253 170.955 108.403C170.893 108.553 170.861 108.714 170.86 108.876C170.86 109.039 170.892 109.2 170.954 109.35C171.016 109.5 171.107 109.637 171.221 109.752C171.336 109.867 171.473 109.959 171.623 110.021C171.773 110.084 171.934 110.116 172.096 110.116H197.221Z" fill="#E6E6E6"/>
<path d="M184.66 101.563C189 101.563 192.519 98.046 192.519 93.7073C192.519 89.3687 189 85.8516 184.66 85.8516C180.32 85.8516 176.802 89.3687 176.802 93.7073C176.802 98.046 180.32 101.563 184.66 101.563Z" fill="#144E84"/>
<path d="M270.337 117.413C270.665 117.413 270.98 117.282 271.211 117.05C271.443 116.818 271.573 116.503 271.573 116.175C271.573 115.847 271.443 115.533 271.211 115.301C270.98 115.069 270.665 114.938 270.337 114.938H245.218C244.89 114.938 244.575 115.069 244.343 115.301C244.112 115.533 243.981 115.847 243.981 116.175C243.981 116.503 244.112 116.818 244.343 117.05C244.575 117.282 244.89 117.413 245.218 117.413H270.337Z" fill="#E6E6E6"/>
<path d="M270.337 110.116C270.665 110.116 270.98 109.985 271.211 109.753C271.443 109.521 271.573 109.206 271.573 108.878C271.573 108.551 271.443 108.236 271.211 108.004C270.98 107.772 270.665 107.641 270.337 107.641H245.218C244.89 107.641 244.575 107.772 244.343 108.004C244.112 108.236 243.981 108.551 243.981 108.878C243.981 109.206 244.112 109.521 244.343 109.753C244.575 109.985 244.89 110.116 245.218 110.116H270.337Z" fill="#E6E6E6"/>
<path d="M257.777 101.563C262.117 101.563 265.636 98.046 265.636 93.7073C265.636 89.3687 262.117 85.8516 257.777 85.8516C253.437 85.8516 249.919 89.3687 249.919 93.7073C249.919 98.046 253.437 101.563 257.777 101.563Z" fill="#144E84"/>
<path d="M343.455 117.413C343.618 117.414 343.779 117.382 343.929 117.32C344.08 117.258 344.216 117.167 344.332 117.052C344.447 116.938 344.538 116.801 344.601 116.651C344.663 116.501 344.696 116.34 344.696 116.178C344.696 116.015 344.664 115.854 344.602 115.704C344.541 115.553 344.45 115.417 344.335 115.302C344.22 115.187 344.084 115.095 343.934 115.033C343.783 114.97 343.622 114.938 343.46 114.938H318.336C318.008 114.938 317.693 115.069 317.462 115.301C317.23 115.533 317.1 115.847 317.1 116.175C317.1 116.503 317.23 116.818 317.462 117.05C317.693 117.282 318.008 117.413 318.336 117.413H343.455Z" fill="#E6E6E6"/>
<path d="M343.455 110.116C343.618 110.117 343.779 110.085 343.929 110.023C344.08 109.961 344.216 109.87 344.332 109.755C344.447 109.641 344.538 109.504 344.601 109.354C344.663 109.204 344.696 109.043 344.696 108.881C344.696 108.718 344.664 108.557 344.602 108.407C344.541 108.257 344.45 108.12 344.335 108.005C344.22 107.89 344.084 107.798 343.934 107.736C343.783 107.673 343.622 107.641 343.46 107.641H318.336C318.008 107.641 317.693 107.772 317.462 108.004C317.23 108.236 317.1 108.551 317.1 108.878C317.1 109.206 317.23 109.521 317.462 109.753C317.693 109.985 318.008 110.116 318.336 110.116H343.455Z" fill="#E6E6E6"/>
<path d="M330.896 101.563C335.236 101.563 338.754 98.046 338.754 93.7073C338.754 89.3687 335.236 85.8516 330.896 85.8516C326.555 85.8516 323.037 89.3687 323.037 93.7073C323.037 98.046 326.555 101.563 330.896 101.563Z" fill="#144E84"/>
<path d="M60.3181 255.13H64.9674L67.1791 237.203L60.3174 237.204L60.3181 255.13Z" fill="#FFB6B6"/>
<path d="M59.1318 253.618L68.2879 253.617H68.2882C69.8357 253.617 71.3198 254.232 72.4141 255.326C73.5083 256.42 74.1231 257.903 74.1232 259.45V259.64L59.1321 259.64L59.1318 253.618Z" fill="#2F2E41"/>
<path d="M76.2459 255.13H80.8952L83.1068 237.203L76.2451 237.204L76.2459 255.13Z" fill="#FFB6B6"/>
<path d="M75.0596 253.618L84.2156 253.617H84.216C85.7635 253.617 87.2476 254.232 88.3418 255.326C89.436 256.42 90.0508 257.903 90.0509 259.45V259.64L75.0599 259.64L75.0596 253.618Z" fill="#2F2E41"/>
<path d="M93.9126 177.039L82.5552 247.166L74.9707 246.787L75.1588 182.396L93.9126 177.039Z" fill="#2F2E41"/>
<path d="M63.2946 155.609L90.8513 155.992L93.9131 177.035L75.1593 185.835L67.0075 245.267L59.8022 244.888L57.1709 171.296L63.2946 155.609Z" fill="#2F2E41"/>
<path d="M79.7521 101.28C84.4024 101.28 88.1722 97.5113 88.1722 92.8626C88.1722 88.2138 84.4024 84.4453 79.7521 84.4453C75.1018 84.4453 71.332 88.2138 71.332 92.8626C71.332 97.5113 75.1018 101.28 79.7521 101.28Z" fill="#FFB9B9"/>
<path d="M83.693 106.145L88.5546 112.382L86.2581 160.207L68.2699 159.825L65.208 118.122L69.0352 107.409L70.4201 105.008L83.693 106.145Z" fill="#E4E4E4"/>
<path d="M91.999 130.358L96.2091 146.427L91.999 162.496L98.8882 171.679L105.012 142.601C105.012 142.601 100.419 118.88 100.036 116.201C99.6536 113.523 98.8882 113.141 98.8882 113.141L95.8263 113.523L91.999 130.358Z" fill="#2F2E41"/>
<path d="M61.3811 136.479L58.7019 141.454L57.9362 149.871L59.4671 159.436L54.1091 168.236L48.751 144.131L54.4917 113.141H56.7883L61.3811 136.479Z" fill="#2F2E41"/>
<path d="M72.4694 95.0456L72.2699 98.4482C72.2699 98.4482 69.8003 92.8653 69.4175 87.1263C69.0348 81.3873 75.5412 80.2395 79.3685 79.8569C83.1958 79.4743 89.7023 82.1525 89.7023 85.2133C89.7023 88.2741 82.8131 87.5089 80.134 86.7437C77.4549 85.9785 76.3067 92.4827 76.3067 92.4827L74.7758 92.8654L72.4694 95.0456Z" fill="#2F2E41"/>
<path d="M93.1476 135.721L91.6167 150.26L94.6786 159.06L96.5922 167.477C96.5922 167.477 96.5922 175.512 88.9376 175.895C81.283 176.277 59.0846 175.512 59.0846 175.512C59.0846 175.512 56.0228 175.129 53.3436 169.008C50.6645 162.886 58.7019 157.147 58.7019 157.147L60.9983 149.112L60.2328 139.165L54.8745 113.148L70.7579 104.922L74.7765 144.139L83.388 106.07L86.2585 108.174L98.5059 113.148L93.1476 135.721Z" fill="#2F2E41"/>
<path d="M131.741 260.001H34V259.203H131.886L131.741 260.001Z" fill="#3F3D56"/>
</g>
<defs>
<clipPath id="clip0_861_20779">
<rect width="349" height="215" fill="white" transform="translate(34 45)"/>
</clipPath>
</defs>
</svg>
