<svg width="417" height="306" viewBox="0 0 417 306" fill="none" xmlns="http://www.w3.org/2000/svg">
<rect width="417" height="306" rx="8" fill="white"/>
<g clip-path="url(#clip0_862_21276)">
<path d="M151.342 15.7689V209.113H276.111V11.0916C256.154 3.04414 234.727 -0.698645 213.229 0.107258C191.731 0.913161 170.644 6.24966 151.342 15.7689Z" fill="white"/>
<path d="M139.101 23.7911V209.663H181.522L180.764 199.142L176.593 83.9555H260.591L256.42 199.142L255.662 209.663H298.559V27.1563C297.772 26.5748 296.981 26.0006 296.18 25.4373C296.024 25.3283 296.711 22.2462 296.551 22.1371C287.325 15.67 277.344 10.3573 266.831 6.31738L263.725 40.552H249.17V4.05C248.219 3.81377 247.269 3.59208 246.312 3.38493V3.38497C246.312 13.2423 242.404 22.6959 235.447 29.6661C228.491 36.6362 219.056 40.552 209.218 40.552H191.348V2.42188C190.394 2.59631 189.44 2.78166 188.493 2.9779V40.552H173.456L171.084 7.76417C160.854 11.3181 151.077 16.0668 141.955 21.9121C141.64 22.1157 141.32 22.3156 141.005 22.5263C140.366 22.9406 139.732 23.3622 139.101 23.7911ZM249.17 43.4158H263.518L261.28 74.4156H249.17V43.4158ZM191.348 43.4158H246.312V74.4156H225.017V73.8015C225.018 73.5065 224.96 73.2144 224.847 72.9418C224.734 72.6693 224.569 72.4217 224.361 72.2131C224.153 72.0045 223.906 71.8391 223.634 71.7262C223.362 71.6134 223.07 71.5554 222.776 71.5555H213.933C213.639 71.555 213.347 71.6128 213.074 71.7254C212.802 71.8381 212.554 72.0034 212.346 72.212C212.137 72.4206 211.972 72.6684 211.859 72.9411C211.746 73.2138 211.688 73.5062 211.688 73.8015V74.4156H191.348V43.4158ZM175.9 74.4156L173.662 43.4158H188.493V74.4156H175.9Z" fill="#F2F2F2"/>
<path d="M74.96 204.118C74.9636 204.129 74.9672 204.136 74.9708 204.147C74.9962 204.224 75.0216 204.293 75.0506 204.369V204.373C76.2875 207.854 77.6464 211.278 79.1274 214.643L358.858 214.338C360.359 210.903 361.738 207.406 362.992 203.846C362.997 203.838 362.999 203.829 363 203.82L74.96 204.118Z" fill="#CCCCCC"/>
<path d="M180 151.084C179.777 152.015 179.353 152.886 178.758 153.635C178.162 154.384 177.411 154.993 176.555 155.419C175.7 155.845 174.761 156.078 173.806 156.102C172.851 156.125 171.902 155.939 171.027 155.555L155.261 172.642L152.373 160.901L167.788 146.475C168.528 145.044 169.767 143.935 171.269 143.358C172.771 142.781 174.432 142.776 175.937 143.345C177.442 143.913 178.687 145.014 179.436 146.441C180.185 147.867 180.386 149.52 180 151.084L180 151.084Z" fill="#FFB6B6"/>
<path d="M162.062 166.231L140.64 190.322L140.466 190.29C140.394 190.279 138.769 189.988 136.194 189.516C126.879 187.808 105.154 183.734 99.7639 181.847C96.6559 180.798 93.8669 178.97 91.6611 176.538C92.2197 173.489 92.8182 171.206 93.4094 170.094C93.841 169.284 93.7612 168.226 93.7793 167.02C95.1937 166.041 96.8422 165.457 98.5561 165.326C109.274 164.549 120.025 166.277 129.962 170.374L135.613 172.715L135.845 172.544L154.931 158.509L155.061 158.414L161.626 165.744L162.062 166.231Z" fill="#144E84"/>
<path d="M206.769 305.524C206.482 305.502 206.199 305.477 205.913 305.451C202.318 305.15 198.76 304.723 195.238 304.172L191.372 295.152L189.519 290.827L196.515 287.815L201.063 285.859L203.225 293.302L204.121 296.395L206.239 303.692L206.769 305.524Z" fill="#FFB6B6"/>
<path d="M128.39 263.547V276.216C130.511 277.786 132.676 279.3 134.882 280.759V263.547H128.39Z" fill="#CACACA"/>
<path d="M105.583 255.523C107.407 257.551 109.286 259.527 111.219 261.451C115.769 265.991 120.6 270.239 125.684 274.171H154.628C155.396 274.171 156.156 274.006 156.856 273.689C157.555 273.371 158.18 272.907 158.686 272.328L158.69 272.317C159.293 271.635 159.713 270.809 159.909 269.919L159.912 269.911C159.994 269.529 160.035 269.139 160.035 268.748V260.946C160.034 259.509 159.465 258.13 158.451 257.114C157.437 256.097 156.062 255.525 154.628 255.523H105.583Z" fill="#3F3D56"/>
<path d="M93.6572 225.065L96.7946 238.534C96.4878 240.485 96.3857 242.463 96.4899 244.436C97.977 246.435 99.5112 248.393 101.093 250.312C102.551 252.082 104.047 253.818 105.583 255.52C107.407 257.548 109.286 259.524 111.219 261.448C116.254 263.032 122.187 263.679 128.39 263.723C130.53 263.741 132.702 263.683 134.882 263.566C143.721 263.101 138.879 261.68 146.202 260.205C148.139 259.819 149.959 259.427 151.635 259.045C154.809 258.329 157.464 257.661 159.386 257.152C161.551 256.585 169.367 252.673 169.367 252.673L175.532 266.12L180.973 278.84L188.137 294.908C189.059 294.991 189.981 295.062 190.905 295.119C191.884 295.188 192.865 295.243 193.846 295.286C194.623 295.326 195.395 295.355 196.175 295.377L196.44 295.46L196.657 295.391L200.154 294.275L201.333 293.901L205.573 292.549C205.573 292.549 204.626 289.562 202.968 284.579C202.359 282.751 198.043 269.236 193.527 257.435C192.189 253.932 190.803 250.378 189.378 246.842C188.21 243.938 187.02 241.045 185.816 238.192C183.723 233.246 173.611 230.578 161.704 229.179C161.098 229.11 160.489 229.041 159.876 228.976C153.808 228.336 147.37 228.005 141.349 227.853C138.335 227.777 149.209 227.747 146.503 227.744C145.629 227.744 144.779 227.746 143.953 227.751H143.949C141.719 227.762 139.666 227.795 137.86 227.831C137.508 227.838 137.167 227.849 136.833 227.856H136.83C136.605 227.86 136.383 227.867 136.166 227.871C132.216 227.973 129.793 228.096 129.793 228.096L128.854 220.712L128.662 219.222L128.48 217.804V217.801L128.458 217.623L128.31 217.619L125.698 217.568L103.748 217.139L94.398 216.742L93.6572 225.065Z" fill="#2F2E41"/>
<path d="M165.014 252.315C162.37 256.844 160.31 265.428 157.6 269.68C152.403 277.842 149.356 282.294 145.755 287.316C142.033 285.285 138.41 283.099 134.884 280.76C133.002 279.517 131.149 278.23 129.324 276.897L131.482 271.965L132.708 269.549L138.214 258.686L144.387 246.508L146.534 247.511L165.014 252.315Z" fill="#2F2E41"/>
<path d="M350.56 190.088C350.664 189.774 350.699 189.442 350.664 189.113C350.63 188.785 350.525 188.468 350.357 188.183C350.19 187.899 349.964 187.653 349.694 187.464C349.424 187.274 349.116 187.145 348.792 187.084C348.672 187.058 348.55 187.043 348.427 187.039L333.647 186.656C333.316 186.653 332.987 186.719 332.682 186.851C332.378 186.983 332.104 187.177 331.879 187.421C331.672 187.376 331.461 187.354 331.25 187.355C330.789 187.343 330.331 187.422 329.901 187.588C329.472 187.753 329.079 188.002 328.745 188.32C328.411 188.637 328.143 189.018 327.956 189.44C327.769 189.861 327.667 190.316 327.655 190.777C327.644 191.238 327.723 191.697 327.889 192.128C328.054 192.558 328.303 192.952 328.62 193.286C328.938 193.62 329.318 193.888 329.739 194.075C330.16 194.262 330.613 194.364 331.074 194.375C331.603 194.386 332.128 194.278 332.611 194.059L333.971 208.627C334.101 209.106 334.383 209.53 334.774 209.835C335.165 210.14 335.644 210.31 336.14 210.32L345.748 210.567C346.24 210.576 346.722 210.429 347.125 210.146C347.528 209.863 347.831 209.46 347.991 208.993L350.56 190.088ZM331.104 193.37C330.441 193.353 329.812 193.073 329.354 192.591C328.897 192.109 328.649 191.466 328.664 190.801C328.68 190.136 328.958 189.505 329.437 189.045C329.917 188.586 330.558 188.335 331.222 188.349C331.269 188.349 331.31 188.371 331.357 188.371C331.252 188.774 331.254 189.197 331.364 189.598L332.332 193.069C331.958 193.28 331.533 193.384 331.104 193.37Z" fill="#CCCCCC"/>
<path d="M348.792 187.085C348.477 188.889 344.937 190.157 340.68 189.936C336.766 189.756 333.565 188.378 332.979 186.746C333.196 186.682 333.421 186.652 333.647 186.657L348.428 187.039C348.55 187.044 348.672 187.059 348.792 187.085Z" fill="white"/>
<path d="M256.257 168.023V205.296H282.317V168.023C282.317 167.755 282.232 167.494 282.073 167.278C281.915 167.062 281.691 166.903 281.436 166.824C281.315 166.784 281.189 166.764 281.062 166.766H257.515C257.35 166.765 257.187 166.798 257.034 166.861C256.882 166.924 256.743 167.016 256.626 167.133C256.509 167.25 256.416 167.389 256.353 167.541C256.29 167.694 256.257 167.858 256.257 168.023ZM266.427 180.83C266.434 180.095 266.73 179.393 267.251 178.875C267.772 178.358 268.475 178.068 269.209 178.068C269.942 178.068 270.646 178.358 271.167 178.875C271.688 179.393 271.984 180.095 271.991 180.83V185.155C271.987 185.892 271.693 186.597 271.171 187.117C270.65 187.637 269.944 187.929 269.209 187.929C268.473 187.929 267.768 187.637 267.246 187.117C266.725 186.597 266.43 185.892 266.427 185.155V180.83Z" fill="#CCCCCC"/>
<path d="M256.177 204.102V207.696C256.177 207.882 256.251 208.06 256.382 208.192C256.513 208.324 256.691 208.399 256.877 208.401H281.696C281.882 208.4 282.061 208.325 282.192 208.193C282.323 208.061 282.397 207.882 282.396 207.696V204.102H256.177Z" fill="#3F3D56"/>
<path d="M215.261 111.861V179.915C215.261 180.782 215.606 181.614 216.218 182.227C216.83 182.84 217.66 183.185 218.525 183.186H319.175C320.04 183.185 320.87 182.84 321.482 182.227C322.094 181.614 322.438 180.782 322.439 179.915V111.861C322.437 110.994 322.092 110.164 321.481 109.552C320.869 108.939 320.04 108.595 319.175 108.594H218.525C217.66 108.595 216.831 108.939 216.219 109.552C215.607 110.164 215.263 110.994 215.261 111.861Z" fill="#CCCCCC"/>
<path d="M217.621 112.713V179.081C217.622 179.544 217.806 179.988 218.133 180.316C218.46 180.643 218.903 180.828 219.366 180.829H318.336C318.799 180.828 319.242 180.643 319.569 180.316C319.896 179.988 320.08 179.544 320.081 179.081V112.713C320.081 112.249 319.897 111.804 319.57 111.475C319.243 111.147 318.799 110.962 318.336 110.961H219.366C218.903 110.962 218.459 111.147 218.132 111.475C217.805 111.804 217.621 112.249 217.621 112.713Z" fill="white"/>
<path d="M238.106 208.155C238.207 208.282 238.335 208.384 238.48 208.454C238.626 208.524 238.786 208.56 238.947 208.559H297.828C297.989 208.559 298.148 208.522 298.294 208.453C298.439 208.383 298.567 208.282 298.669 208.157C298.77 208.032 298.842 207.885 298.88 207.729C298.918 207.572 298.921 207.408 298.888 207.251L297.974 202.9C297.936 202.723 297.854 202.558 297.736 202.42C297.618 202.282 297.468 202.176 297.299 202.112C297.176 202.064 297.046 202.039 296.914 202.039H239.858C239.726 202.039 239.596 202.064 239.473 202.112C239.304 202.176 239.154 202.282 239.036 202.42C238.918 202.558 238.837 202.723 238.799 202.9L237.885 207.251C237.852 207.408 237.855 207.571 237.893 207.728C237.932 207.885 238.004 208.031 238.106 208.155Z" fill="#F2F2F2"/>
<path d="M315.125 120.105H222.518C222.422 120.103 222.331 120.063 222.263 119.994C222.196 119.925 222.158 119.833 222.158 119.736C222.158 119.64 222.196 119.547 222.263 119.478C222.331 119.409 222.422 119.369 222.518 119.367H315.125C315.221 119.369 315.313 119.409 315.38 119.478C315.447 119.547 315.485 119.64 315.485 119.736C315.485 119.833 315.447 119.925 315.38 119.994C315.313 120.063 315.221 120.103 315.125 120.105Z" fill="#3F3D56"/>
<path d="M228.822 117.476C230.014 117.476 230.981 116.486 230.981 115.265C230.981 114.044 230.014 113.055 228.822 113.055C227.63 113.055 226.664 114.044 226.664 115.265C226.664 116.486 227.63 117.476 228.822 117.476Z" fill="#3F3D56"/>
<path d="M236.278 117.476C237.47 117.476 238.437 116.486 238.437 115.265C238.437 114.044 237.47 113.055 236.278 113.055C235.086 113.055 234.12 114.044 234.12 115.265C234.12 116.486 235.086 117.476 236.278 117.476Z" fill="#3F3D56"/>
<path d="M243.733 117.476C244.925 117.476 245.892 116.486 245.892 115.265C245.892 114.044 244.925 113.055 243.733 113.055C242.541 113.055 241.575 114.044 241.575 115.265C241.575 116.486 242.541 117.476 243.733 117.476Z" fill="#3F3D56"/>
<path d="M310.635 113.602H305.34C305.235 113.604 305.136 113.647 305.062 113.722C304.989 113.797 304.948 113.898 304.948 114.003C304.948 114.108 304.989 114.209 305.062 114.284C305.136 114.359 305.235 114.402 305.34 114.405H310.635C310.741 114.403 310.841 114.36 310.915 114.285C310.989 114.21 311.031 114.109 311.031 114.003C311.031 113.898 310.989 113.796 310.915 113.721C310.841 113.646 310.741 113.603 310.635 113.602Z" fill="#3F3D56"/>
<path d="M310.635 115.109H305.34C305.235 115.112 305.136 115.155 305.062 115.23C304.989 115.305 304.948 115.406 304.948 115.511C304.948 115.616 304.989 115.717 305.062 115.792C305.136 115.867 305.235 115.91 305.34 115.913H310.635C310.741 115.911 310.841 115.868 310.915 115.793C310.989 115.718 311.031 115.617 311.031 115.511C311.031 115.405 310.989 115.304 310.915 115.229C310.841 115.154 310.741 115.111 310.635 115.109Z" fill="#3F3D56"/>
<path d="M310.635 116.617H305.34C305.235 116.62 305.136 116.663 305.062 116.738C304.989 116.813 304.948 116.914 304.948 117.019C304.948 117.124 304.989 117.225 305.062 117.3C305.136 117.375 305.235 117.418 305.34 117.42H310.635C310.741 117.419 310.841 117.376 310.915 117.301C310.989 117.226 311.031 117.124 311.031 117.019C311.031 116.913 310.989 116.812 310.915 116.737C310.841 116.662 310.741 116.619 310.635 116.617Z" fill="#3F3D56"/>
<path d="M279.689 140.164H264.057C263.294 140.164 262.675 140.784 262.675 141.549V142.721C262.675 143.486 263.294 144.106 264.057 144.106H279.689C280.452 144.106 281.071 143.486 281.071 142.721V141.549C281.071 140.784 280.452 140.164 279.689 140.164Z" fill="#144E84"/>
<path d="M289.031 148.047H254.714C253.951 148.047 253.332 148.667 253.332 149.432V150.604C253.332 151.368 253.951 151.988 254.714 151.988H289.031C289.795 151.988 290.413 151.368 290.413 150.604V149.432C290.413 148.667 289.795 148.047 289.031 148.047Z" fill="#144E84"/>
<path d="M289.031 155.93H254.714C253.951 155.93 253.332 156.55 253.332 157.314V158.487C253.332 159.251 253.951 159.871 254.714 159.871H289.031C289.795 159.871 290.413 159.251 290.413 158.487V157.314C290.413 156.55 289.795 155.93 289.031 155.93Z" fill="#144E84"/>
<path d="M207.994 210.881C212.702 210.881 216.518 209.661 216.518 208.155C216.518 206.65 212.702 205.43 207.994 205.43C203.287 205.43 199.471 206.65 199.471 208.155C199.471 209.661 203.287 210.881 207.994 210.881Z" fill="#3F3D56"/>
<path d="M207.994 209.068C212.702 209.068 216.518 207.848 216.518 206.343C216.518 204.838 212.702 203.617 207.994 203.617C203.287 203.617 199.471 204.838 199.471 206.343C199.471 207.848 203.287 209.068 207.994 209.068Z" fill="#3F3D56"/>
<path d="M208.629 208.165L207.359 208.146L207.709 184.382C207.76 180.505 206.795 176.682 204.91 173.295C203.026 169.908 200.287 167.075 196.969 165.08L172.727 150.561L173.378 149.469L197.62 163.988C201.13 166.098 204.026 169.093 206.019 172.675C208.013 176.257 209.033 180.3 208.979 184.401L208.629 208.165Z" fill="#3F3D56"/>
<path d="M176.439 138.925C176.439 137.219 175.059 135.836 173.356 135.836C171.654 135.836 170.273 137.219 170.273 138.925V158.186C170.273 159.892 171.654 161.275 173.356 161.275C175.059 161.275 176.439 159.892 176.439 158.186V138.925Z" fill="#144E84"/>
<path d="M171.198 166.583C168.763 166.579 166.427 165.616 164.695 163.9C162.963 162.184 161.975 159.854 161.944 157.413L161.84 147.654L163.11 147.641L163.215 157.4C163.231 158.892 163.663 160.35 164.464 161.608C165.265 162.866 166.401 163.874 167.744 164.518C169.087 165.162 170.583 165.416 172.063 165.252C173.543 165.087 174.948 164.511 176.117 163.587L184.761 156.765L185.547 157.765L176.903 164.587C175.28 165.877 173.27 166.58 171.198 166.583Z" fill="#3F3D56"/>
<path d="M163.745 155.644C165.848 155.644 167.553 151.495 167.553 146.377C167.553 141.258 165.848 137.109 163.745 137.109C161.642 137.109 159.937 141.258 159.937 146.377C159.937 151.495 161.642 155.644 163.745 155.644Z" fill="#3F3D56"/>
<path d="M136.89 196.255C136.56 194.176 136.339 191.897 136.194 189.513C135.853 184.058 135.885 178.043 135.846 172.541C135.829 170.041 135.631 167.31 135.374 164.775C135.15 162.466 134.381 160.243 133.13 158.29C131.88 156.337 130.184 154.71 128.182 153.543C126.819 152.753 125.591 151.75 124.544 150.572C123.978 149.94 123.909 148.479 123.836 146.935C123.749 145.056 123.659 143.108 122.654 142.105L122.611 142.061L122.552 142.039C118.334 140.633 111.207 141.545 109.089 142.036L108.998 142.057L108.94 142.13C108.066 143.289 108.113 145.143 108.16 146.935C108.2 148.545 108.24 150.067 107.529 150.525C106.978 150.881 106.449 151.219 105.937 151.546C99.666 155.555 96.5178 157.568 94.2109 164.114C93.9032 165.05 93.7572 166.032 93.7793 167.017C93.7612 168.224 93.841 169.281 93.4094 170.092C92.8182 171.204 92.2197 173.486 91.6611 176.535C88.7341 192.558 86.9968 229.816 94.1493 230.689C94.7078 230.758 93.569 231.881 93.1772 232.444C92.6151 233.254 92.1327 233.952 92.4119 234.486C92.6005 234.85 93.0938 235.021 93.9571 235.021C97.2141 235.021 130.695 230.096 131.645 228.323C131.707 228.207 131.714 228.425 131.645 228.323C147.343 226.269 139.034 209.843 136.89 196.255Z" fill="#144E84"/>
<path d="M174.675 212.304C174.004 211.605 173.187 211.063 172.284 210.715C171.38 210.367 170.411 210.221 169.446 210.289C168.48 210.357 167.541 210.636 166.694 211.106C165.848 211.577 165.115 212.228 164.546 213.013L142.021 206.195L145.513 217.937L166.368 222.611C167.748 223.48 169.398 223.812 171.006 223.543C172.614 223.275 174.067 222.425 175.091 221.154C176.115 219.884 176.638 218.281 176.562 216.65C176.485 215.019 175.814 213.472 174.675 212.304L174.675 212.304Z" fill="#FFB6B6"/>
<path d="M147.484 219.027L116.552 213.339C116.427 213.014 104.009 180.806 102.475 173.571C101.504 169.21 102.051 164.646 104.025 160.639L104.079 160.543L104.181 160.499C106.255 159.613 108.569 159.462 110.741 160.07C112.913 160.678 114.813 162.01 116.128 163.846C122.43 172.742 126.582 182.984 128.256 193.763L129.202 199.896L143.942 204.188L147.484 219.027Z" fill="#144E84"/>
<path d="M137.349 131.994C135.439 135.495 132.395 138.239 128.72 139.775C125.044 141.311 120.957 141.547 117.13 140.445C113.302 139.342 109.964 136.966 107.665 133.709C105.365 130.451 104.241 126.506 104.478 122.523C104.715 118.54 106.299 114.756 108.969 111.796C111.639 108.835 115.235 106.874 119.166 106.235C123.097 105.595 127.128 106.317 130.595 108.28C134.062 110.243 136.758 113.33 138.24 117.034C138.32 117.235 138.392 117.436 138.465 117.645C139.302 119.979 139.636 122.466 139.444 124.939C139.252 127.413 138.538 129.817 137.349 131.994Z" fill="#FFB6B6"/>
<path d="M139.868 117.649C139.114 115.535 139.443 116.637 138.681 114.53C139.178 116.395 138.392 117.44 138.464 117.649H117.597V105.495C123.71 103.067 129.687 101.001 133.297 105.495C136.515 105.495 139.6 106.776 141.875 109.055C144.15 111.334 145.428 114.426 145.428 117.649L139.868 117.649Z" fill="#2F2E41"/>
<path d="M123.041 151.065C123.025 150.84 123.001 150.607 122.968 150.382C122.688 148.731 122.234 147.114 121.613 145.559C121.011 143.863 120.401 142.158 119.791 140.462C120.577 143.541 120.337 146.793 119.109 149.723C115.587 146.974 117.281 142.835 113.205 140.687C102.266 134.923 98.4812 125.608 101.541 111.301C102.629 106.213 108.967 101.125 120.039 101.125C131.118 101.125 136.057 106.645 136.274 117.738C122.635 120.954 125.616 149.94 123.041 151.065Z" fill="#2F2E41"/>
<path d="M102.643 111.83C106.642 111.83 109.884 108.582 109.884 104.575C109.884 100.568 106.642 97.3203 102.643 97.3203C98.6441 97.3203 95.4023 100.568 95.4023 104.575C95.4023 108.582 98.6441 111.83 102.643 111.83Z" fill="#2F2E41"/>
<path d="M99.2555 102.473C98.0207 103.913 96.0873 104.473 94.3432 105.223C91.2651 106.576 88.5629 108.661 86.4708 111.297C84.3787 113.933 82.9599 117.04 82.3375 120.35C81.8553 123.046 81.9183 125.837 81.1567 128.465C80.3996 131.093 78.5248 133.671 75.8343 134.127C74.0137 134.439 72.1885 133.734 70.4759 133.039C69.534 132.66 68.5921 132.279 67.6502 131.897C68.6327 129.427 69.6136 126.956 70.5931 124.486C69.0189 126.818 67.1883 128.964 65.1355 130.885C61.76 129.521 58.3815 128.158 55 126.794C63.3193 126.826 61.8997 118.734 63.761 110.615C64.784 106.153 73.4954 103.132 75.2034 98.8875C76.1264 96.5852 77.6882 94.596 79.7042 93.1554C81.7202 91.7148 84.1059 90.883 86.579 90.7585C89.052 90.6341 91.5089 91.2221 93.6588 92.4531C95.8087 93.684 97.5617 95.5063 98.7102 97.7044C100.418 98.3862 100.468 101.05 99.2555 102.473Z" fill="#2F2E41"/>
<path d="M131.678 101.402C132.362 101.631 132.928 102.123 133.25 102.769C133.573 103.416 133.626 104.164 133.397 104.85L126.993 124.079C126.88 124.419 126.701 124.733 126.467 125.003C126.233 125.274 125.948 125.495 125.629 125.655C125.309 125.815 124.961 125.91 124.605 125.936C124.248 125.961 123.891 125.916 123.552 125.802C122.867 125.573 122.302 125.082 121.979 124.435C121.657 123.788 121.604 123.04 121.832 122.354L128.237 103.125C128.465 102.439 128.956 101.872 129.601 101.549C130.247 101.226 130.994 101.173 131.678 101.402Z" fill="white"/>
<path d="M122.975 134.24C126.981 134.24 130.229 130.986 130.229 126.972C130.229 122.957 126.981 119.703 122.975 119.703C118.968 119.703 115.721 122.957 115.721 126.972C115.721 130.986 118.968 134.24 122.975 134.24Z" fill="white"/>
<path d="M122.975 128.783C123.976 128.783 124.788 127.969 124.788 126.966C124.788 125.962 123.976 125.148 122.975 125.148C121.973 125.148 121.161 125.962 121.161 126.966C121.161 127.969 121.973 128.783 122.975 128.783Z" fill="#144E84"/>
<path d="M227.77 302.829C228.159 303.775 228.587 304.721 228.997 305.671L228.807 305.683C228.743 305.683 228.684 305.692 228.621 305.696C225.627 305.883 222.607 305.982 219.56 305.993C219.421 305.997 219.285 305.997 219.146 305.997C219.146 305.989 219.15 305.985 219.15 305.976C219.463 305.99 219.773 305.908 220.037 305.74C220.302 305.572 220.509 305.326 220.63 305.037C220.751 304.747 220.78 304.427 220.714 304.12C220.648 303.813 220.489 303.534 220.259 303.321C220.217 303.164 220.191 303.053 220.153 302.901C220.165 302.866 220.18 302.832 220.195 302.799C220.511 302.052 221.04 301.416 221.715 300.969C222.391 300.522 223.183 300.286 223.992 300.289C224.802 300.292 225.592 300.535 226.264 300.987C226.936 301.439 227.46 302.079 227.77 302.829Z" fill="#F2F2F2"/>
<path d="M255.694 288.975C255.69 289.009 255.686 289.038 255.682 289.072C255.145 289.289 254.623 289.542 254.12 289.827C253.827 289.988 253.544 290.162 253.269 290.345C252.921 290.578 252.652 290.91 252.496 291.299C252.34 291.688 252.305 292.115 252.396 292.524C252.487 292.933 252.698 293.305 253.004 293.592C253.309 293.878 253.694 294.065 254.107 294.129L254.149 294.137C254.179 294.142 254.204 294.146 254.234 294.15C252.635 298.018 249.882 301.296 246.351 303.534C246.181 303.568 246.016 303.597 245.847 303.627C244.992 303.784 244.141 303.928 243.285 304.06C240.313 304.543 237.312 304.934 234.28 305.23C234.887 302.154 235.194 299.025 235.195 295.889C235.197 294.133 235.099 292.378 234.903 290.633C234.742 289.204 234.522 287.778 234.234 286.37C234.09 285.657 233.929 284.946 233.751 284.236C232.802 280.463 231.415 276.814 229.619 273.364C228.161 270.56 226.432 267.906 224.458 265.439C222.103 264.153 220.2 262.173 219.005 259.768C218.57 258.903 218.263 257.98 218.095 257.027C218.357 257.065 218.628 257.087 218.895 257.103C218.975 257.108 219.064 257.112 219.149 257.116H219.179C219.471 257.13 219.76 257.059 220.013 256.911C220.265 256.763 220.469 256.545 220.601 256.284C220.733 256.022 220.786 255.728 220.754 255.437C220.723 255.146 220.608 254.87 220.423 254.643C220.309 254.503 220.195 254.359 220.08 254.219C219.907 254.002 219.725 253.786 219.551 253.57C219.532 253.55 219.513 253.528 219.496 253.506C219.297 253.256 219.094 253.01 218.895 252.764C219.258 252.194 219.75 251.718 220.33 251.372C222.337 250.193 225.106 251.008 226.558 252.827C228.01 254.647 228.285 257.201 227.781 259.471C227.285 261.406 226.463 263.242 225.351 264.901C225.461 265.041 225.571 265.172 225.682 265.312C227.525 267.686 229.147 270.223 230.529 272.893C230.643 273.105 230.754 273.317 230.859 273.533C230.506 270.281 230.928 266.99 232.091 263.933C233.268 261.087 235.478 258.686 237.422 256.225C239.759 253.269 244.551 254.558 244.962 258.308C244.966 258.342 244.97 258.38 244.975 258.414C244.687 258.58 244.403 258.754 244.128 258.936C243.78 259.169 243.51 259.501 243.354 259.889C243.198 260.278 243.163 260.705 243.253 261.114C243.343 261.523 243.555 261.895 243.86 262.182C244.165 262.468 244.549 262.656 244.962 262.72L245.004 262.729C244.665 266.181 243.469 269.493 241.525 272.364C239.582 275.235 236.953 277.574 233.878 279.167C233.704 279.256 233.539 279.345 233.37 279.426C233.902 280.923 234.358 282.447 234.738 283.99C234.924 284.711 235.085 285.437 235.233 286.166C235.647 288.184 235.936 290.226 236.097 292.279C236.293 294.865 236.281 297.463 236.063 300.047L236.075 299.958C236.634 297.084 238.163 294.49 240.406 292.614C243.743 289.87 248.451 288.86 252.049 286.654C252.431 286.408 252.875 286.277 253.33 286.276C253.784 286.274 254.229 286.403 254.612 286.647C254.995 286.891 255.301 287.24 255.493 287.653C255.684 288.065 255.754 288.524 255.694 288.975Z" fill="#F2F2F2"/>
</g>
<defs>
<clipPath id="clip0_862_21276">
<rect width="308" height="306" fill="white" transform="translate(55)"/>
</clipPath>
</defs>
</svg>
