<svg width="417" height="306" viewBox="0 0 417 306" fill="none" xmlns="http://www.w3.org/2000/svg">
<rect width="417" height="306" rx="8" fill="white"/>
<g clip-path="url(#clip0_861_19603)">
<path d="M27.1684 80.4018C21.9928 80.4018 16.9334 78.8651 12.63 75.9861C8.32667 73.1071 4.97259 69.0151 2.99196 64.2275C1.01134 59.4399 0.493116 54.1718 1.50283 49.0893C2.51255 44.0069 5.00485 39.3383 8.66457 35.6741C12.3243 32.0098 16.9871 29.5144 22.0632 28.5035C27.1394 27.4925 32.401 28.0114 37.1827 29.9944C41.9643 31.9775 46.0513 35.3357 48.9267 39.6445C51.8021 43.9532 53.3369 49.0188 53.3369 54.2009C53.329 61.1474 50.5695 67.8071 45.6636 72.719C40.7578 77.6309 34.1063 80.3939 27.1684 80.4018ZM27.1684 29.0917C22.2085 29.0917 17.3599 30.5643 13.2358 33.3234C9.11174 36.0824 5.89742 40.0039 3.99932 44.592C2.10122 49.1801 1.60459 54.2287 2.57224 59.0994C3.53988 63.9701 5.92833 68.4442 9.43556 71.9558C12.9428 75.4673 17.4113 77.8587 22.276 78.8276C27.1406 79.7964 32.183 79.2992 36.7654 77.3987C41.3478 75.4983 45.2645 72.28 48.0201 68.1508C50.7757 64.0216 52.2465 59.167 52.2465 54.2009C52.239 47.5438 49.5944 41.1616 44.893 36.4544C40.1916 31.7471 33.8172 29.0993 27.1684 29.0917Z" fill="#F2F2F2"/>
<path d="M204.896 65.1149C202.308 65.1149 199.778 64.3466 197.627 62.9071C195.475 61.4676 193.798 59.4216 192.807 57.0278C191.817 54.634 191.558 52 192.063 49.4587C192.568 46.9175 193.814 44.5832 195.644 42.7511C197.474 40.919 199.805 39.6713 202.343 39.1658C204.881 38.6603 207.512 38.9197 209.903 39.9113C212.294 40.9028 214.337 42.5819 215.775 44.7363C217.213 46.8907 217.98 49.4235 217.98 52.0145C217.976 55.4877 216.596 58.8176 214.143 61.2736C211.69 63.7295 208.365 65.111 204.896 65.1149ZM204.896 40.0058C202.524 40.0058 200.205 40.7101 198.232 42.0296C196.26 43.3491 194.723 45.2247 193.815 47.419C192.907 49.6133 192.67 52.0278 193.132 54.3573C193.595 56.6868 194.737 58.8265 196.415 60.506C198.092 62.1854 200.229 63.3291 202.556 63.7925C204.882 64.2559 207.294 64.018 209.486 63.1091C211.677 62.2002 213.55 60.661 214.868 58.6862C216.186 56.7114 216.89 54.3896 216.89 52.0145C216.886 48.8307 215.621 45.7783 213.373 43.527C211.124 41.2757 208.076 40.0094 204.896 40.0058Z" fill="#F2F2F2"/>
<path d="M297.03 128.984C294.119 128.984 291.273 128.119 288.852 126.5C286.432 124.881 284.545 122.579 283.431 119.886C282.317 117.193 282.025 114.229 282.593 111.371C283.161 108.512 284.563 105.886 286.622 103.824C288.68 101.763 291.303 100.36 294.159 99.791C297.014 99.2223 299.974 99.5142 302.663 100.63C305.353 101.745 307.652 103.634 309.269 106.058C310.887 108.481 311.75 111.331 311.75 114.246C311.746 118.153 310.193 121.899 307.434 124.662C304.674 127.425 300.933 128.979 297.03 128.984ZM297.03 100.6C294.335 100.6 291.7 101.4 289.458 102.899C287.217 104.399 285.47 106.53 284.438 109.024C283.407 111.517 283.137 114.261 283.663 116.908C284.189 119.555 285.487 121.987 287.393 123.895C289.299 125.804 291.727 127.103 294.371 127.63C297.015 128.156 299.756 127.886 302.246 126.853C304.736 125.82 306.865 124.071 308.363 121.827C309.86 119.583 310.66 116.945 310.66 114.246C310.656 110.628 309.218 107.159 306.663 104.601C304.108 102.043 300.644 100.604 297.03 100.6Z" fill="#F2F2F2"/>
<path d="M416.455 277.998H293.79C293.646 277.998 293.507 277.94 293.405 277.838C293.303 277.736 293.245 277.597 293.245 277.452C293.245 277.307 293.303 277.169 293.405 277.066C293.507 276.964 293.646 276.906 293.79 276.906H416.455C416.599 276.906 416.738 276.964 416.84 277.066C416.943 277.169 417 277.307 417 277.452C417 277.597 416.943 277.736 416.84 277.838C416.738 277.94 416.599 277.998 416.455 277.998Z" fill="#CCCCCC"/>
<path d="M350.413 111.649C357.808 111.649 363.803 105.647 363.803 98.2426C363.803 90.8383 357.808 84.8359 350.413 84.8359C343.017 84.8359 337.022 90.8383 337.022 98.2426C337.022 105.647 343.017 111.649 350.413 111.649Z" fill="#FFB8B8"/>
<path d="M351.801 257.441L345.473 259.593L334.17 236.176L343.51 233L351.801 257.441Z" fill="#FFB8B8"/>
<path d="M340.338 259.324L352.543 255.173L355.154 262.868L335.264 269.632C334.921 268.621 334.78 267.553 334.85 266.488C334.919 265.424 335.197 264.383 335.669 263.426C336.14 262.469 336.795 261.614 337.596 260.91C338.397 260.206 339.329 259.667 340.338 259.324Z" fill="#2F2E41"/>
<path d="M366.101 270.671L359.426 271.006L354.955 245.387L364.807 244.891L366.101 270.671Z" fill="#FFB8B8"/>
<path d="M354.562 269.334L367.436 268.687L367.843 276.802L346.863 277.858C346.81 276.792 346.967 275.726 347.325 274.721C347.682 273.716 348.235 272.791 348.949 272C349.664 271.208 350.528 270.566 351.491 270.108C352.454 269.651 353.497 269.388 354.562 269.334Z" fill="#2F2E41"/>
<path d="M326.377 185.552C326.975 185.018 327.45 184.359 327.766 183.622C328.083 182.885 328.235 182.088 328.211 181.286C328.186 180.484 327.987 179.697 327.626 178.98C327.265 178.264 326.751 177.635 326.122 177.139L332.486 158.703L322.677 161.213L318.137 178.335C317.375 179.449 317.047 180.805 317.216 182.146C317.386 183.486 318.04 184.718 319.056 185.607C320.071 186.497 321.377 186.983 322.727 186.972C324.076 186.962 325.375 186.457 326.377 185.552Z" fill="#FFB8B8"/>
<path d="M365.477 262.944C365.391 262.944 365.305 262.939 365.219 262.93L356.158 261.969C355.601 261.913 355.08 261.667 354.683 261.272C354.287 260.877 354.037 260.357 353.978 259.8L346.975 197.295L341.908 214.399L351.355 248.014C351.451 248.357 351.472 248.716 351.416 249.067C351.36 249.418 351.229 249.753 351.031 250.048C350.833 250.344 350.573 250.592 350.27 250.777C349.967 250.962 349.627 251.079 349.274 251.12L340.089 252.177C339.504 252.242 338.915 252.095 338.429 251.763C337.943 251.431 337.591 250.936 337.438 250.367L327.402 212.538C327.319 212.227 327.298 211.903 327.341 211.584L331.852 177.633L365.497 180.334L367.929 260.412C367.939 260.741 367.883 261.068 367.765 261.375C367.646 261.682 367.467 261.961 367.238 262.197C367.01 262.434 366.736 262.621 366.433 262.749C366.131 262.878 365.806 262.944 365.477 262.944V262.944Z" fill="#2F2E41"/>
<path d="M353.847 186.145C342.575 186.145 329.813 181.785 329.04 181.517L328.816 181.439L341.532 116.109L341.766 116.119C346.806 116.324 360.558 116.429 360.697 116.43L360.943 116.432L366.244 174.084L367.191 182.516L367.075 182.611C363.833 185.235 358.995 186.145 353.847 186.145Z" fill="#144E84"/>
<path d="M333.483 180.497L325.529 177.289L329.583 128.193C329.681 126.982 330.049 125.81 330.659 124.76C331.27 123.711 332.109 122.813 333.113 122.132L337.298 119.28C337.18 118.877 337.159 118.451 337.236 118.038C337.314 117.625 337.488 117.237 337.745 116.904C338.002 116.572 338.334 116.305 338.714 116.126C339.094 115.947 339.51 115.861 339.93 115.874L341.129 115.913C341.356 115.759 341.625 115.678 341.9 115.68C342.175 115.682 342.443 115.767 342.668 115.924C342.894 116.081 343.067 116.303 343.164 116.56C343.262 116.817 343.28 117.098 343.215 117.365L342.952 122.567L333.483 180.497Z" fill="#2F2E41"/>
<path d="M329.47 171.693L319.085 171.255L322.449 149.589L325.237 129.202C325.291 128.47 325.511 127.76 325.878 127.125C326.246 126.49 326.752 125.946 327.359 125.534C327.966 125.122 328.658 124.853 329.384 124.747C330.109 124.64 330.849 124.7 331.549 124.92C332.638 125.262 333.572 125.977 334.188 126.94C334.803 127.903 335.06 129.052 334.915 130.186L332.091 152.275L329.47 171.693Z" fill="#2F2E41"/>
<path d="M345.914 181.252L345.843 181.033C345.795 180.884 341.115 165.852 348.946 147.916L352.873 128.36L356.229 116.081C356.292 115.862 356.405 115.66 356.559 115.492C356.714 115.324 356.905 115.194 357.118 115.113C357.369 115.027 357.639 115.016 357.896 115.082C358.153 115.148 358.384 115.288 358.562 115.485C360.901 114.797 363.416 115.049 365.573 116.187L370.286 118.673C371.334 119.225 372.169 120.11 372.66 121.189C373.152 122.268 373.272 123.48 373.002 124.635L366.56 152.158L369.691 177.866L345.914 181.252Z" fill="#2F2E41"/>
<path d="M352.772 170.65C353.568 170.736 354.374 170.647 355.133 170.388C355.892 170.129 356.584 169.706 357.162 169.15C357.74 168.594 358.189 167.918 358.478 167.17C358.766 166.421 358.888 165.618 358.833 164.818L373.42 153.999L368.321 151.578L352.592 159.691C351.255 159.872 350.03 160.538 349.151 161.563C348.271 162.587 347.798 163.899 347.82 165.25C347.842 166.601 348.359 167.897 349.271 168.892C350.184 169.887 351.429 170.512 352.772 170.65V170.65Z" fill="#FFB8B8"/>
<path d="M361.917 165.807L356.99 156.599L369.141 148.592L363.211 127.299C362.974 126.446 362.914 125.554 363.037 124.677C363.159 123.8 363.461 122.959 363.923 122.204C364.385 121.449 364.997 120.798 365.722 120.291C366.446 119.784 367.268 119.432 368.134 119.257C369.665 118.952 371.256 119.213 372.609 119.992C373.963 120.772 374.988 122.017 375.494 123.495L383.494 147.041C383.659 147.526 383.669 148.051 383.521 148.541C383.373 149.032 383.076 149.464 382.67 149.777L361.917 165.807Z" fill="#2F2E41"/>
<path d="M351.359 101.084C349.754 101.293 348.543 99.6486 347.982 98.1286C347.42 96.6085 346.992 94.839 345.597 94.0179C343.69 92.8961 341.251 94.2453 339.071 93.8752C336.608 93.4572 335.007 90.8445 334.882 88.3472C334.756 85.8498 335.749 83.4479 336.723 81.1454L337.063 84.0069C337.017 83.0371 337.221 82.0718 337.655 81.2033C338.089 80.3349 338.737 79.5924 339.54 79.0469L339.101 83.2457C339.195 82.6664 339.401 82.1112 339.709 81.6121C340.017 81.113 340.421 80.6796 340.897 80.337C341.372 79.9944 341.911 79.7492 342.482 79.6156C343.052 79.4819 343.644 79.4624 344.222 79.5582L344.153 82.06C346.997 81.7214 349.866 81.3823 352.718 81.6403C355.57 81.8982 358.442 82.8018 360.604 84.6826C363.838 87.496 365.019 92.1286 364.623 96.3995C364.226 100.67 362.465 104.683 360.63 108.558C360.168 109.534 359.53 110.634 358.459 110.758C357.497 110.87 356.617 110.065 356.318 109.142C356.087 108.196 356.096 107.207 356.344 106.265C356.614 104.826 356.955 103.354 356.701 101.912C356.446 100.469 355.41 99.0437 353.958 98.8669C352.505 98.6901 351.019 100.352 351.717 101.639L351.359 101.084Z" fill="#2F2E41"/>
<path d="M176.171 248.297L170.958 246.099L167.383 219.938H119.767L115.892 245.992L111.228 248.327C111.005 248.438 110.826 248.622 110.721 248.849C110.615 249.075 110.589 249.33 110.646 249.573C110.703 249.816 110.841 250.033 111.036 250.188C111.232 250.343 111.474 250.427 111.724 250.427H175.741C175.997 250.427 176.245 250.339 176.442 250.176C176.64 250.014 176.776 249.789 176.827 249.538C176.877 249.287 176.839 249.026 176.72 248.8C176.6 248.574 176.406 248.396 176.171 248.297Z" fill="#E6E6E6"/>
<path d="M260.786 223.414H26.8853C25.6581 223.411 24.4821 222.921 23.6153 222.051C22.7485 221.181 22.2617 220.003 22.2617 218.774V185.75H265.41V218.774C265.41 220.003 264.923 221.181 264.056 222.051C263.19 222.921 262.014 223.411 260.786 223.414Z" fill="#CCCCCC"/>
<path d="M265.655 201.357H22.0488V60.0541C22.0505 58.5712 22.6397 57.1495 23.687 56.1009C24.7343 55.0524 26.1542 54.4626 27.6352 54.4609H260.069C261.55 54.4626 262.97 55.0524 264.017 56.101C265.064 57.1495 265.653 58.5712 265.655 60.0541V201.357Z" fill="#3F3D56"/>
<path d="M251.105 191.103H36.5977C35.4559 191.102 34.3612 190.647 33.5538 189.839C32.7465 189.031 32.2923 187.935 32.291 186.791V69.0309C32.2923 67.8877 32.7464 66.7916 33.5538 65.9832C34.3612 65.1748 35.4559 64.7201 36.5977 64.7188H251.105C252.247 64.7201 253.341 65.1748 254.149 65.9832C254.956 66.7916 255.41 67.8877 255.411 69.0309V186.791C255.41 187.935 254.956 189.031 254.149 189.839C253.341 190.647 252.247 191.102 251.105 191.103Z" fill="white"/>
<path d="M249.086 250.693H41.3743C41.2297 250.693 41.091 250.636 40.9888 250.533C40.8865 250.431 40.8291 250.292 40.8291 250.147C40.8291 250.003 40.8865 249.864 40.9888 249.761C41.091 249.659 41.2297 249.602 41.3743 249.602H249.086C249.231 249.602 249.369 249.659 249.472 249.761C249.574 249.864 249.631 250.003 249.631 250.147C249.631 250.292 249.574 250.431 249.472 250.533C249.369 250.636 249.231 250.693 249.086 250.693Z" fill="#CCCCCC"/>
<path d="M230.953 176.472H56.7503C56.6057 176.472 56.467 176.414 56.3647 176.312C56.2625 176.21 56.2051 176.071 56.2051 175.926V92.3271C56.2051 92.1823 56.2625 92.0435 56.3647 91.9411C56.467 91.8388 56.6057 91.7812 56.7503 91.7812C56.8948 91.7812 57.0335 91.8388 57.1357 91.9411C57.238 92.0435 57.2954 92.1823 57.2954 92.3271V175.38H230.953C231.098 175.38 231.236 175.438 231.339 175.54C231.441 175.642 231.498 175.781 231.498 175.926C231.498 176.071 231.441 176.21 231.339 176.312C231.236 176.414 231.098 176.472 230.953 176.472Z" fill="#3F3D56"/>
<path d="M93.9696 170.469H78.1252C77.6961 170.468 77.2848 170.297 76.9814 169.993C76.678 169.69 76.5073 169.278 76.5068 168.848V146.98C76.5073 146.55 76.678 146.138 76.9814 145.834C77.2848 145.531 77.6961 145.36 78.1252 145.359H93.9696C94.3987 145.36 94.81 145.531 95.1134 145.834C95.4168 146.138 95.5875 146.55 95.588 146.98V168.848C95.5875 169.278 95.4168 169.69 95.1134 169.993C94.81 170.297 94.3987 170.468 93.9696 170.469Z" fill="#144E84"/>
<path d="M122.864 170.469H107.02C106.591 170.468 106.179 170.297 105.876 169.994C105.573 169.69 105.402 169.278 105.401 168.848V126.237C105.402 125.808 105.573 125.396 105.876 125.092C106.179 124.789 106.591 124.618 107.02 124.617H122.864C123.293 124.618 123.705 124.789 124.008 125.092C124.311 125.396 124.482 125.808 124.483 126.237V168.848C124.482 169.278 124.311 169.69 124.008 169.994C123.705 170.297 123.293 170.468 122.864 170.469Z" fill="#144E84"/>
<path d="M151.758 170.469H135.913C135.484 170.468 135.073 170.297 134.77 169.993C134.466 169.69 134.295 169.278 134.295 168.848V146.98C134.295 146.55 134.466 146.138 134.77 145.834C135.073 145.531 135.484 145.36 135.913 145.359H151.758C152.187 145.36 152.598 145.531 152.901 145.834C153.205 146.138 153.376 146.55 153.376 146.98V168.848C153.376 169.278 153.205 169.69 152.901 169.993C152.598 170.297 152.187 170.468 151.758 170.469Z" fill="#144E84"/>
<path d="M180.652 170.469H164.808C164.389 170.478 163.983 170.321 163.679 170.031C163.376 169.741 163.2 169.342 163.189 168.923V117.977C163.2 117.557 163.376 117.159 163.679 116.869C163.983 116.579 164.389 116.421 164.808 116.43H180.652C181.072 116.421 181.477 116.579 181.781 116.869C182.084 117.159 182.26 117.557 182.271 117.977V168.923C182.26 169.342 182.084 169.741 181.781 170.031C181.477 170.321 181.072 170.478 180.652 170.469Z" fill="#144E84"/>
<path d="M209.547 170.465H193.702C193.273 170.464 192.862 170.293 192.559 169.99C192.255 169.686 192.084 169.274 192.084 168.845V103.308C192.084 102.878 192.255 102.466 192.559 102.163C192.862 101.859 193.273 101.688 193.702 101.688H209.547C209.976 101.688 210.387 101.859 210.691 102.163C210.994 102.466 211.165 102.878 211.165 103.308V168.845C211.165 169.274 210.994 169.686 210.691 169.99C210.387 170.293 209.976 170.464 209.547 170.465Z" fill="#144E84"/>
<path d="M86.0474 138.808C87.854 138.808 89.3185 137.342 89.3185 135.533C89.3185 133.724 87.854 132.258 86.0474 132.258C84.2409 132.258 82.7764 133.724 82.7764 135.533C82.7764 137.342 84.2409 138.808 86.0474 138.808Z" fill="#3F3D56"/>
<path d="M114.942 117.519C116.749 117.519 118.213 116.053 118.213 114.244C118.213 112.435 116.749 110.969 114.942 110.969C113.135 110.969 111.671 112.435 111.671 114.244C111.671 116.053 113.135 117.519 114.942 117.519Z" fill="#3F3D56"/>
<path d="M143.836 138.808C145.643 138.808 147.108 137.342 147.108 135.533C147.108 133.724 145.643 132.258 143.836 132.258C142.03 132.258 140.565 133.724 140.565 135.533C140.565 137.342 142.03 138.808 143.836 138.808Z" fill="#3F3D56"/>
<path d="M172.73 107.152C174.537 107.152 176.001 105.685 176.001 103.877C176.001 102.068 174.537 100.602 172.73 100.602C170.923 100.602 169.459 102.068 169.459 103.877C169.459 105.685 170.923 107.152 172.73 107.152Z" fill="#3F3D56"/>
<path d="M201.625 95.1362C203.431 95.1362 204.896 93.6698 204.896 91.861C204.896 90.0523 203.431 88.5859 201.625 88.5859C199.818 88.5859 198.354 90.0523 198.354 91.861C198.354 93.6698 199.818 95.1362 201.625 95.1362Z" fill="#3F3D56"/>
<path d="M143.905 136.267L114.942 114.546L86.3749 135.97L85.7207 135.096L114.942 113.182L143.768 134.799L172.412 103.414L172.527 103.367L201.421 91.7109L201.829 92.7235L173.05 104.333L143.905 136.267Z" fill="#3F3D56"/>
</g>
<defs>
<clipPath id="clip0_861_19603">
<rect width="416" height="250" fill="white" transform="translate(1 28)"/>
</clipPath>
</defs>
</svg>
