<svg width="417" height="306" viewBox="0 0 417 306" fill="none" xmlns="http://www.w3.org/2000/svg">
<rect width="417" height="306" rx="8" fill="white"/>
<g clip-path="url(#clip0_862_20906)">
<path d="M149.052 286.467L149.388 278.929C152.893 277.061 156.802 276.074 160.776 276.055C155.306 280.514 155.99 289.109 152.282 295.105C151.111 296.967 149.535 298.541 147.671 299.713C145.807 300.884 143.702 301.622 141.513 301.873L136.936 304.667C136.308 301.176 136.447 297.59 137.342 294.157C138.238 290.724 139.869 287.526 142.123 284.782C143.403 283.256 144.871 281.896 146.491 280.735C147.588 283.617 149.052 286.467 149.052 286.467Z" fill="#F2F2F2"/>
<path d="M338.236 176.634C350.575 167.261 356.469 151.512 352.779 136.488C352.687 136.115 352.591 135.743 352.489 135.371C350.043 126.453 343.991 117.977 335.171 115.128C327.765 112.735 319.681 114.575 311.955 113.624C296.788 111.756 285.03 99.5185 276.756 86.7059C268.483 73.8932 262.124 59.5512 251.13 48.9661C233.009 31.5182 203.448 27.7617 180.98 39.1189C158.512 50.4762 144.2 75.6732 144.811 100.785C145.421 125.897 160.371 149.906 182.081 162.644C190.057 167.324 199.282 170.639 208.462 169.479C216.427 168.472 223.665 164.204 231.593 162.937C244.058 160.945 256.444 166.565 267.225 173.114C278.006 179.663 288.42 187.425 300.671 190.461C312.567 193.409 327.305 184.936 338.236 176.634Z" fill="#F2F2F2"/>
<path d="M240.601 64.4844H117.672C115.108 64.4873 112.65 65.5042 110.838 67.312C109.025 69.1198 108.005 71.5708 108.002 74.1273V135.138C108.005 137.694 109.025 140.145 110.838 141.953C112.65 143.761 115.108 144.778 117.672 144.781H240.601C243.165 144.779 245.623 143.762 247.436 141.954C249.249 140.146 250.269 137.695 250.271 135.138V74.1273C250.269 71.5705 249.249 69.1191 247.436 67.3111C245.623 65.5032 243.165 64.4865 240.601 64.4844Z" fill="white"/>
<path d="M240.601 145.262H117.674C114.984 145.259 112.405 144.192 110.503 142.296C108.601 140.399 107.531 137.828 107.528 135.145V74.1328C107.531 71.4505 108.601 68.8789 110.503 66.9822C112.405 65.0856 114.984 64.0187 117.674 64.0156H240.601C243.291 64.0187 245.87 65.0856 247.772 66.9822C249.674 68.8789 250.743 71.4505 250.746 74.1328V135.145C250.743 137.828 249.674 140.399 247.772 142.296C245.87 144.192 243.291 145.259 240.601 145.262ZM117.674 64.9638C115.236 64.9666 112.899 65.9335 111.175 67.6524C109.452 69.3714 108.482 71.7019 108.479 74.1328V135.145C108.482 137.576 109.452 139.907 111.175 141.626C112.899 143.345 115.236 144.311 117.674 144.314H240.601C243.039 144.311 245.376 143.345 247.099 141.626C248.823 139.907 249.793 137.576 249.796 135.145V74.1328C249.793 71.7019 248.823 69.3714 247.099 67.6524C245.376 65.9335 243.039 64.9666 240.601 64.9638H117.674Z" fill="#CCCCCC"/>
<path d="M246.256 162.126H128.453C127.434 162.126 126.458 161.723 125.738 161.005C125.018 160.287 124.613 159.313 124.613 158.297C124.613 157.282 125.018 156.308 125.738 155.59C126.458 154.872 127.434 154.469 128.453 154.469H246.256C247.274 154.469 248.25 154.872 248.97 155.59C249.69 156.308 250.095 157.282 250.095 158.297C250.095 159.313 249.69 160.287 248.97 161.005C248.25 161.723 247.274 162.126 246.256 162.126Z" fill="#E6E6E6"/>
<path d="M166.218 125.615C165.52 125.613 164.834 125.435 164.224 125.097C163.571 124.746 163.027 124.224 162.649 123.588C162.272 122.951 162.075 122.224 162.081 121.484V87.4343C162.081 86.696 162.28 85.9712 162.657 85.3357C163.034 84.7003 163.575 84.1775 164.224 83.8219C164.873 83.4664 165.606 83.2911 166.346 83.3146C167.086 83.338 167.806 83.5592 168.431 83.9551L200.821 100.98C201.409 101.352 201.892 101.866 202.227 102.475C202.563 103.083 202.738 103.765 202.738 104.459C202.738 105.153 202.563 105.836 202.227 106.444C201.892 107.052 201.409 107.566 200.821 107.939L168.431 124.964C167.771 125.387 167.003 125.613 166.218 125.615Z" fill="#F2F2F2"/>
<path d="M356.434 108.642H305.064C303.993 108.641 302.966 108.216 302.208 107.46C301.451 106.705 301.025 105.681 301.023 104.612V79.1157C301.025 78.0473 301.451 77.023 302.208 76.2675C302.966 75.5121 303.993 75.0871 305.064 75.0859H356.434C357.506 75.0871 358.533 75.5121 359.291 76.2675C360.048 77.023 360.474 78.0473 360.475 79.1157V104.612C360.474 105.681 360.048 106.705 359.291 107.46C358.533 108.216 357.506 108.641 356.434 108.642Z" fill="white"/>
<path d="M356.434 109.113H305.064C303.867 109.112 302.719 108.637 301.872 107.793C301.025 106.948 300.549 105.804 300.548 104.61V79.1132C300.549 77.9191 301.025 76.7744 301.872 75.93C302.719 75.0857 303.867 74.6107 305.064 74.6094H356.434C357.632 74.6107 358.78 75.0857 359.626 75.93C360.473 76.7744 360.949 77.9191 360.951 79.1132V104.61C360.949 105.804 360.473 106.948 359.626 107.793C358.78 108.637 357.632 109.112 356.434 109.113ZM305.064 75.5576C304.119 75.5586 303.213 75.9335 302.544 76.6001C301.876 77.2667 301.5 78.1705 301.499 79.1132V104.61C301.5 105.552 301.876 106.456 302.544 107.123C303.213 107.789 304.119 108.164 305.064 108.165H356.434C357.38 108.164 358.286 107.789 358.954 107.123C359.623 106.456 359.999 105.552 360 104.61V79.1132C359.999 78.1705 359.623 77.2667 358.954 76.6001C358.286 75.9335 357.38 75.5586 356.434 75.5576H305.064Z" fill="#CCCCCC"/>
<path d="M347.995 121.118H313.39C312.372 121.117 311.397 120.713 310.678 119.995C309.959 119.277 309.555 118.304 309.555 117.29C309.555 116.275 309.959 115.302 310.678 114.584C311.397 113.866 312.372 113.462 313.39 113.461H347.995C349.013 113.461 349.99 113.864 350.71 114.582C351.43 115.3 351.834 116.274 351.834 117.29C351.834 118.305 351.43 119.279 350.71 119.997C349.99 120.715 349.013 121.118 347.995 121.118Z" fill="#E6E6E6"/>
<path d="M325.226 100.936C324.934 100.935 324.648 100.86 324.393 100.719C324.12 100.572 323.892 100.354 323.735 100.088C323.577 99.8224 323.495 99.5185 323.497 99.2095V84.9803C323.497 84.6717 323.58 84.3689 323.738 84.1033C323.895 83.8378 324.121 83.6193 324.393 83.4707C324.664 83.3221 324.97 83.2489 325.279 83.2587C325.588 83.2685 325.889 83.3609 326.151 83.5264L339.686 90.641C339.932 90.7965 340.134 91.0113 340.274 91.2654C340.414 91.5196 340.487 91.8049 340.487 92.0949C340.487 92.3849 340.414 92.6702 340.274 92.9243C340.134 93.1785 339.932 93.3933 339.686 93.5488L326.151 100.663C325.875 100.84 325.554 100.935 325.226 100.936Z" fill="#144E84"/>
<path d="M323.631 218.322H272.261C271.189 218.32 270.162 217.895 269.405 217.14C268.647 216.384 268.221 215.36 268.22 214.292V188.795C268.221 187.727 268.647 186.703 269.405 185.947C270.162 185.192 271.189 184.767 272.261 184.766H323.631C324.702 184.767 325.729 185.192 326.487 185.947C327.244 186.703 327.671 187.727 327.672 188.795V214.292C327.671 215.36 327.244 216.384 326.487 217.14C325.729 217.895 324.702 218.32 323.631 218.322Z" fill="white"/>
<path d="M323.631 218.801H272.261C271.063 218.8 269.915 218.325 269.068 217.48C268.222 216.636 267.746 215.491 267.744 214.297V188.801C267.746 187.607 268.222 186.462 269.068 185.618C269.915 184.773 271.063 184.298 272.261 184.297H323.631C324.828 184.298 325.976 184.773 326.823 185.618C327.669 186.462 328.146 187.607 328.147 188.801V214.297C328.146 215.491 327.669 216.636 326.823 217.48C325.976 218.325 324.828 218.8 323.631 218.801ZM272.261 185.245C271.315 185.246 270.409 185.621 269.74 186.288C269.072 186.954 268.696 187.858 268.695 188.801V214.297C268.696 215.24 269.072 216.144 269.74 216.81C270.409 217.477 271.315 217.852 272.261 217.853H323.631C324.576 217.852 325.482 217.477 326.151 216.81C326.819 216.144 327.195 215.24 327.196 214.297V188.801C327.195 187.858 326.819 186.954 326.151 186.288C325.482 185.621 324.576 185.246 323.631 185.245H272.261Z" fill="#CCCCCC"/>
<path d="M315.191 230.868H280.586C279.569 230.867 278.593 230.463 277.874 229.745C277.155 229.027 276.751 228.054 276.751 227.04C276.751 226.025 277.155 225.052 277.874 224.334C278.593 223.616 279.569 223.212 280.586 223.211H315.191C316.209 223.211 317.186 223.614 317.906 224.332C318.626 225.05 319.03 226.024 319.03 227.04C319.03 228.055 318.626 229.029 317.906 229.747C317.186 230.465 316.209 230.868 315.191 230.868Z" fill="#E6E6E6"/>
<path d="M292.297 211.396C292.006 211.396 291.719 211.321 291.464 211.18C291.191 211.033 290.964 210.815 290.806 210.549C290.648 210.283 290.566 209.979 290.568 209.67V195.441C290.568 195.133 290.652 194.83 290.809 194.564C290.967 194.299 291.193 194.08 291.464 193.932C291.735 193.783 292.041 193.71 292.35 193.72C292.66 193.729 292.961 193.822 293.222 193.987L306.758 201.102C307.003 201.257 307.205 201.472 307.345 201.726C307.485 201.981 307.559 202.266 307.559 202.556C307.559 202.846 307.485 203.131 307.345 203.385C307.205 203.639 307.003 203.854 306.758 204.01L293.222 211.124C292.946 211.301 292.625 211.396 292.297 211.396Z" fill="#144E84"/>
<path d="M149.194 130.114L122.902 130.29C122.902 130.29 107.928 125.476 101.137 126.482L98.54 136.653L117.193 142.816L149.656 138.119C150.385 138.486 151.197 138.656 152.012 138.61C152.827 138.564 153.616 138.305 154.298 137.859C154.981 137.412 155.534 136.795 155.901 136.068C156.268 135.341 156.437 134.53 156.39 133.717C156.343 132.905 156.082 132.119 155.634 131.439C155.186 130.758 154.566 130.208 153.836 129.842C153.107 129.477 152.294 129.31 151.479 129.358C150.664 129.405 149.876 129.666 149.194 130.114L149.194 130.114Z" fill="#A0616A"/>
<path d="M116.971 143.8L85.7771 134.854L82.9372 124.302C82.1974 122.894 81.8672 121.308 81.9839 119.723C82.1006 118.137 82.6596 116.616 83.5977 115.331C86.2608 111.735 88.3424 115.307 92.1217 117.712C98.747 118.179 115.284 123.822 121.997 130.355L121.468 134.372L116.971 143.8Z" fill="#3F3D56"/>
<path d="M144.112 135.185C143.414 135.183 142.728 135.005 142.118 134.667C141.465 134.316 140.921 133.794 140.543 133.158C140.165 132.521 139.969 131.794 139.975 131.055V97.0046C139.975 96.2663 140.174 95.5415 140.551 94.9061C140.927 94.2706 141.469 93.7478 142.118 93.3922C142.766 93.0367 143.499 92.8615 144.239 92.8849C144.979 92.9083 145.699 93.1295 146.324 93.5254L178.715 110.551C179.302 110.923 179.786 111.437 180.121 112.045C180.456 112.653 180.632 113.336 180.632 114.03C180.632 114.724 180.456 115.406 180.121 116.015C179.786 116.623 179.302 117.137 178.715 117.509L146.324 134.534C145.664 134.957 144.896 135.183 144.112 135.185Z" fill="#144E84"/>
<path d="M122.352 299.189L128.988 299.189L132.145 273.664L122.351 273.665L122.352 299.189Z" fill="#A0616A"/>
<path d="M120.658 297.036L122.526 297.035L129.819 294.078L133.727 297.035H133.728C135.936 297.035 138.055 297.91 139.617 299.468C141.179 301.025 142.056 303.138 142.056 305.34V305.61L120.659 305.611L120.658 297.036Z" fill="#2F2E41"/>
<path d="M75.0947 292.966L81.3807 295.088L92.5806 271.921L83.3038 268.789L75.0947 292.966Z" fill="#A0616A"/>
<path d="M74.1865 290.375L75.9557 290.972L83.8141 290.504L86.5651 294.555L86.5656 294.555C88.6577 295.261 90.3826 296.768 91.361 298.742C92.3394 300.717 92.4912 302.999 91.7828 305.085L91.696 305.34L71.4287 298.497L74.1865 290.375Z" fill="#2F2E41"/>
<path d="M82.787 189.244C82.787 189.244 82.0121 198.516 83.9493 207.402C85.8865 216.289 90.0555 245.787 90.0555 245.787C81.6113 259.627 76.7174 273.247 75.793 287.033L87.6784 287.981L104.697 247.714L106.421 207.402L118.819 234.834L118.182 236.953C118.031 237.454 118.049 237.991 118.234 238.481C118.419 238.97 118.76 239.386 119.205 239.664C119.205 239.664 118.044 247.198 118.819 247.198C119.594 247.198 121.531 248.357 121.531 248.357C116.701 263.351 116.053 277.711 120.482 291.299L130.941 290.825L137.804 231.743L132.767 199.675L132.38 193.494L130.636 193.565L129.748 190.982L128.118 186.539L82.787 189.244Z" fill="#2F2E41"/>
<path d="M82.1169 191.191L82.0479 191.095C78.36 185.946 83.9066 173.574 84.7432 171.78L81.2197 170.64L78.1387 144.641L75.8853 135.659C75.0363 132.264 75.1087 128.704 76.095 125.346C77.0813 121.988 78.946 118.952 81.4978 116.55L86.7063 111.652L93.0363 102.312H103.244L106.744 108.905C110.137 109.687 113.148 111.632 115.252 114.4C117.355 117.168 118.418 120.584 118.256 124.053L117.463 141.344L120.568 162.872L120.57 166.768L125.961 175.583L127.136 181.048C127.622 181.687 130.83 185.952 130.83 187.119C130.83 187.294 130.7 187.463 130.422 187.651C128.236 189.127 116.152 192.136 110.804 190.002C105.108 187.731 82.4628 191.138 82.2346 191.173L82.1169 191.191Z" fill="#3F3D56"/>
<path d="M186.386 305.439C186.387 305.513 186.372 305.586 186.344 305.655C186.316 305.723 186.275 305.785 186.222 305.837C186.17 305.89 186.108 305.931 186.04 305.96C185.971 305.988 185.898 306.003 185.824 306.003H52.5657C52.4157 306.003 52.2718 305.944 52.1657 305.838C52.0596 305.732 52 305.589 52 305.439C52 305.29 52.0596 305.146 52.1657 305.04C52.2718 304.934 52.4157 304.875 52.5657 304.875H185.821C185.97 304.875 186.114 304.933 186.22 305.039C186.326 305.144 186.386 305.287 186.386 305.436V305.439Z" fill="#CCCCCC"/>
<path d="M99.4594 99.2984C106.926 99.2984 112.978 93.2626 112.978 85.8171C112.978 78.3717 106.926 72.3359 99.4594 72.3359C91.9931 72.3359 85.9404 78.3717 85.9404 85.8171C85.9404 93.2626 91.9931 99.2984 99.4594 99.2984Z" fill="#A0616A"/>
<path d="M149.644 96.1729L128.786 112.137C128.786 112.137 113.933 117.311 109.127 122.2L113.212 131.872L131.815 125.561L154.857 102.278C155.66 102.132 156.411 101.778 157.033 101.251C157.655 100.724 158.127 100.043 158.401 99.2764C158.675 98.5097 158.742 97.6845 158.595 96.8839C158.448 96.0833 158.091 95.3354 157.562 94.7157C157.033 94.0959 156.349 93.6261 155.58 93.3535C154.811 93.0809 153.984 93.0152 153.181 93.1629C152.378 93.3106 151.629 93.6666 151.008 94.195C150.387 94.7234 149.917 95.4056 149.644 96.1729Z" fill="#A0616A"/>
<path d="M132.234 126.476L103.259 134.937L93.2963 131.412C91.8544 130.734 90.6312 129.668 89.7649 128.334C88.8986 127 88.4238 125.451 88.3941 123.862C88.3408 119.391 92.1626 120.987 96.6317 120.63C102.197 117.015 118.798 111.562 128.104 112.732L130.113 116.252L132.234 126.476Z" fill="#3F3D56"/>
<path d="M108.73 70.2536C107.761 70.2249 108.093 68.4037 107.313 67.8227C107.309 67.8403 107.305 67.8579 107.301 67.8755C107.199 68.2689 106.972 68.6191 106.655 68.8746C106.338 69.1301 105.948 69.2773 105.54 69.2947C105.133 69.312 104.731 69.1985 104.394 68.9708C104.056 68.7432 103.801 68.4134 103.665 68.0302C103.536 67.5868 103.301 67.1809 102.982 66.8467C102.662 66.5124 102.267 66.2595 101.829 66.1094C101.78 67.7974 100.5 69.2625 98.9723 69.9916C97.4448 70.7207 95.7031 70.842 94.0098 70.867C92.3164 70.8919 90.5988 70.8354 88.9567 71.2486C87.3147 71.6618 85.7176 72.6333 85.016 74.1703C84.3144 75.7074 84.815 77.8235 86.349 78.5389C85.1606 78.5452 84.1523 79.5231 83.7413 80.6351C83.4045 81.7757 83.3166 82.975 83.4837 84.1523C83.8176 88.5117 84.6319 93.205 87.8151 96.2114C90.2412 98.5027 93.7137 99.4257 97.0551 99.4124C100.397 99.399 99.809 99.0927 103.04 98.2423C103.04 98.2423 106.111 89.4614 105.338 88.5976C104.564 87.7338 103.922 86.6285 104.062 85.4789C104.202 84.3293 105.441 83.2995 106.516 83.7371C106.335 83.2762 106.199 83.1884 106.114 83.2118C106.168 83.0809 106.215 82.9471 106.256 82.8112C106.458 82.1186 106.823 81.4838 107.319 80.959C107.815 80.4341 108.429 80.0342 109.111 79.7921C109.799 79.5693 110.54 79.562 111.232 79.771C111.925 79.9801 112.537 80.3955 112.986 80.9616C116.524 77.653 114.329 70.4194 108.73 70.2536Z" fill="#2F2E41"/>
<path d="M337.568 16.3458H121.589C121.364 16.341 121.15 16.2487 120.993 16.0886C120.836 15.9285 120.748 15.7133 120.748 15.4893C120.748 15.2653 120.836 15.0501 120.993 14.89C121.15 14.7299 121.364 14.6376 121.589 14.6328H337.568C337.792 14.6376 338.006 14.7299 338.163 14.89C338.32 15.0501 338.408 15.2653 338.408 15.4893C338.408 15.7133 338.32 15.9285 338.163 16.0886C338.006 16.2487 337.792 16.341 337.568 16.3458Z" fill="#CACACA"/>
<path d="M136.291 10.2626C139.071 10.2626 141.325 7.96521 141.325 5.13128C141.325 2.29735 139.071 0 136.291 0C133.511 0 131.258 2.29735 131.258 5.13128C131.258 7.96521 133.511 10.2626 136.291 10.2626Z" fill="#3F3D56"/>
<path d="M153.679 10.2626C156.459 10.2626 158.712 7.96521 158.712 5.13128C158.712 2.29735 156.459 0 153.679 0C150.899 0 148.646 2.29735 148.646 5.13128C148.646 7.96521 150.899 10.2626 153.679 10.2626Z" fill="#3F3D56"/>
<path d="M171.068 10.2626C173.848 10.2626 176.101 7.96521 176.101 5.13128C176.101 2.29735 173.848 0 171.068 0C168.288 0 166.034 2.29735 166.034 5.13128C166.034 7.96521 168.288 10.2626 171.068 10.2626Z" fill="#3F3D56"/>
<path d="M327.099 1.27344H314.747C314.502 1.27827 314.269 1.37865 314.098 1.55303C313.926 1.72741 313.83 1.96187 313.83 2.20608C313.83 2.45028 313.926 2.68475 314.098 2.85913C314.269 3.03351 314.502 3.13389 314.747 3.13872H327.099C327.344 3.13389 327.577 3.03351 327.748 2.85913C327.92 2.68475 328.016 2.45028 328.016 2.20608C328.016 1.96187 327.92 1.72741 327.748 1.55303C327.577 1.37865 327.344 1.27827 327.099 1.27344Z" fill="#3F3D56"/>
<path d="M327.099 4.77344H314.747C314.502 4.77827 314.269 4.87865 314.098 5.05303C313.926 5.2274 313.83 5.46187 313.83 5.70608C313.83 5.95028 313.926 6.18474 314.098 6.35912C314.269 6.5335 314.502 6.63389 314.747 6.63872H327.099C327.344 6.63389 327.577 6.5335 327.748 6.35912C327.92 6.18474 328.016 5.95028 328.016 5.70608C328.016 5.46187 327.92 5.2274 327.748 5.05303C327.577 4.87865 327.344 4.77827 327.099 4.77344Z" fill="#3F3D56"/>
<path d="M327.099 8.26562H314.747C314.502 8.27046 314.269 8.37083 314.098 8.54521C313.926 8.71959 313.83 8.95406 313.83 9.19826C313.83 9.44247 313.926 9.67693 314.098 9.85131C314.269 10.0257 314.502 10.1261 314.747 10.1309H327.099C327.344 10.1261 327.577 10.0257 327.748 9.85131C327.92 9.67693 328.016 9.44247 328.016 9.19826C328.016 8.95406 327.92 8.71959 327.748 8.54521C327.577 8.37083 327.344 8.27046 327.099 8.26562Z" fill="#3F3D56"/>
<path d="M222.711 64.4844V77.3606C222.711 78.0006 221.589 78.5364 220.077 78.6833C220.064 78.6826 220.052 78.6842 220.039 78.6881C219.787 78.707 219.521 78.7213 219.25 78.7213C218.417 78.7365 217.587 78.6016 216.802 78.323C216.73 78.2946 216.659 78.2614 216.588 78.233C216.521 78.195 216.45 78.1618 216.383 78.1239C216.008 77.9011 215.789 77.6403 215.789 77.3606V64.4844H222.711Z" fill="#CCCCCC"/>
<path d="M327.789 222.895C331.038 222.895 333.671 220.269 333.671 217.03C333.671 213.79 331.038 211.164 327.789 211.164C324.541 211.164 321.907 213.79 321.907 217.03C321.907 220.269 324.541 222.895 327.789 222.895Z" fill="#3F3D56"/>
<path d="M327.349 219.373C327.336 219.373 327.324 219.372 327.311 219.372C327.2 219.366 327.092 219.337 326.994 219.286C326.895 219.235 326.809 219.164 326.741 219.076L325.758 217.816C325.696 217.736 325.65 217.646 325.623 217.548C325.596 217.451 325.589 217.35 325.602 217.25C325.614 217.15 325.646 217.053 325.696 216.965C325.746 216.878 325.813 216.801 325.893 216.739L325.928 216.712C326.008 216.65 326.099 216.604 326.197 216.577C326.294 216.55 326.396 216.543 326.496 216.556C326.597 216.568 326.693 216.6 326.781 216.65C326.869 216.7 326.946 216.767 327.008 216.846C327.058 216.91 327.121 216.962 327.193 216.999C327.264 217.036 327.343 217.057 327.424 217.061C327.505 217.065 327.585 217.052 327.66 217.022C327.735 216.992 327.803 216.946 327.858 216.887L329.854 214.786C329.995 214.639 330.188 214.553 330.392 214.547C330.596 214.542 330.794 214.617 330.942 214.757L330.975 214.788C331.049 214.857 331.108 214.94 331.149 215.032C331.19 215.124 331.213 215.224 331.215 215.324C331.218 215.425 331.201 215.525 331.165 215.619C331.128 215.714 331.074 215.8 331.005 215.873L327.907 219.133C327.835 219.209 327.749 219.269 327.653 219.31C327.557 219.351 327.453 219.373 327.349 219.373Z" fill="white"/>
<path d="M360.118 113.856C363.367 113.856 366 111.23 366 107.991C366 104.751 363.367 102.125 360.118 102.125C356.87 102.125 354.236 104.751 354.236 107.991C354.236 111.23 356.87 113.856 360.118 113.856Z" fill="#3F3D56"/>
<path d="M359.678 110.334C359.665 110.334 359.653 110.333 359.64 110.333C359.529 110.327 359.421 110.298 359.323 110.247C359.224 110.196 359.138 110.125 359.07 110.037L358.087 108.777C358.025 108.697 357.979 108.606 357.952 108.509C357.926 108.412 357.918 108.311 357.931 108.211C357.943 108.111 357.975 108.014 358.025 107.926C358.075 107.839 358.142 107.762 358.222 107.7L358.257 107.672C358.337 107.611 358.428 107.565 358.526 107.538C358.623 107.511 358.725 107.504 358.825 107.517C358.926 107.529 359.023 107.561 359.11 107.611C359.198 107.661 359.275 107.727 359.338 107.807C359.387 107.871 359.45 107.923 359.522 107.96C359.593 107.997 359.672 108.018 359.753 108.022C359.834 108.026 359.914 108.013 359.989 107.983C360.064 107.953 360.132 107.907 360.188 107.848L362.183 105.747C362.324 105.6 362.517 105.514 362.721 105.508C362.925 105.503 363.123 105.578 363.272 105.718L363.304 105.749C363.378 105.818 363.437 105.901 363.478 105.993C363.519 106.085 363.542 106.184 363.544 106.285C363.547 106.386 363.53 106.486 363.494 106.58C363.458 106.675 363.403 106.761 363.334 106.834L360.236 110.094C360.164 110.17 360.078 110.23 359.982 110.271C359.886 110.312 359.782 110.334 359.678 110.334Z" fill="white"/>
</g>
<defs>
<clipPath id="clip0_862_20906">
<rect width="314" height="306" fill="white" transform="translate(52)"/>
</clipPath>
</defs>
</svg>
