<svg width="417" height="306" viewBox="0 0 417 306" fill="none" xmlns="http://www.w3.org/2000/svg">
<rect width="417" height="306" rx="8" fill="white"/>
<g clip-path="url(#clip0_861_19598)">
<path d="M317.753 25.9063H117.397C110.047 25.9063 104.07 31.863 104.07 39.1885V176.033C104.07 183.359 110.047 189.316 117.397 189.316H317.753C325.102 189.316 331.079 183.359 331.079 176.033V39.1885C331.079 31.863 325.102 25.9062 317.753 25.9062V25.9063Z" fill="#F2F2F2"/>
<path d="M296.015 36.4453H95.6593C88.3095 36.4453 82.333 42.402 82.333 49.7275V186.572C82.333 193.898 88.3095 199.855 95.6593 199.855H296.015C303.365 199.855 309.342 193.898 309.342 186.572V49.7275C309.342 42.402 303.365 36.4453 296.015 36.4453ZM307.94 146.295C307.94 175.104 284.509 198.458 255.605 198.458H95.6593C89.0733 198.458 83.7343 193.137 83.7343 186.572V49.7275C83.7343 43.1633 89.0733 37.842 95.6592 37.842H296.015C302.601 37.842 307.94 43.1633 307.94 49.7276V146.295Z" fill="#3F3D56"/>
<path d="M110.951 170.199L109.766 169.455C110.536 168.234 111.332 167.051 112.129 165.938L113.27 166.749C112.488 167.84 111.708 169.001 110.951 170.199H110.951Z" fill="#CCCCCC"/>
<path d="M118.678 160.243L117.675 159.267C119.813 157.083 122.063 155.208 124.363 153.695L125.136 154.86C122.919 156.319 120.746 158.13 118.678 160.243V160.243ZM153.637 151.427C151.964 151.427 150.439 151.213 149.298 151.027L149.524 149.649C150.681 149.838 152.073 150.03 153.637 150.03C155.018 150.03 156.375 149.879 157.786 149.568L158.088 150.932C156.577 151.265 155.121 151.427 153.637 151.427V151.427ZM132.669 151.242L132.248 149.91C133.753 149.437 135.312 149.082 136.882 148.856C138.231 148.661 139.52 148.567 140.823 148.567H140.909V149.963H140.823C139.587 149.963 138.364 150.053 137.083 150.238C135.588 150.454 134.102 150.792 132.669 151.242H132.669ZM166.07 147.206L165.174 146.132C167.108 144.531 168.494 142.595 169.961 140.545L170.547 139.73L171.684 140.546L171.102 141.357C169.58 143.482 168.143 145.49 166.07 147.206V147.206ZM177.308 134.4L176.445 133.299C178.334 131.83 180.468 130.639 182.969 129.66C183.395 129.493 183.802 129.344 184.193 129.211L184.645 130.533C184.274 130.659 183.887 130.801 183.482 130.959C181.108 131.889 179.089 133.015 177.308 134.4ZM194.225 129.549C193.753 129.549 193.306 129.544 192.876 129.54L192.893 128.143C193.332 128.148 193.79 128.149 194.276 128.152C195.925 128.152 198.221 128.105 201.371 127.742L201.533 129.129C198.279 129.505 195.946 129.544 194.225 129.549ZM210.057 127.72L209.779 126.351C212.296 125.844 215.224 125.24 218.122 124.494L218.473 125.847C215.541 126.601 212.591 127.209 210.057 127.72ZM226.727 123.199L226.203 121.904C229.013 120.775 231.452 119.501 233.662 118.011L234.447 119.167C232.155 120.714 229.63 122.033 226.727 123.199ZM240.885 113.219L239.748 112.403C240.139 111.862 240.477 111.335 240.804 110.824C241.769 109.319 242.767 107.761 245.143 105.85L245.309 105.717L246.177 106.813L246.023 106.936C243.825 108.705 242.931 110.1 241.985 111.576C241.648 112.102 241.299 112.647 240.885 113.219ZM253.456 102.744L252.945 101.444C255.443 100.468 258.263 99.6826 261.329 99.1094L261.588 100.482C258.608 101.039 255.872 101.8 253.456 102.744V102.744Z" fill="#CCCCCC"/>
<path d="M270.153 99.4591L270.065 98.0652C271.427 97.9803 272.851 97.9244 274.297 97.8984L274.322 99.2951C272.896 99.3203 271.494 99.3756 270.153 99.4591Z" fill="#CCCCCC"/>
<path d="M126.578 51.5781H106.918C105.93 51.5781 105.124 52.3812 105.124 53.3659C105.124 54.3575 105.93 55.1606 106.918 55.1606H126.578C127.566 55.1606 128.371 54.3575 128.371 53.3659C128.371 52.3812 127.566 51.5781 126.578 51.5781Z" fill="#E6E6E6"/>
<path d="M159.508 51.5781H139.848C138.86 51.5781 138.055 52.3812 138.055 53.3659C138.055 54.3575 138.86 55.1606 139.848 55.1606H159.508C160.496 55.1606 161.302 54.3575 161.302 53.3659C161.302 52.3812 160.496 51.5781 159.508 51.5781Z" fill="#E6E6E6"/>
<path d="M192.438 51.5781H172.778C171.79 51.5781 170.984 52.3812 170.984 53.3659C170.984 54.3575 171.79 55.1606 172.778 55.1606H192.438C193.426 55.1606 194.232 54.3575 194.232 53.3659C194.232 52.3812 193.426 51.5781 192.438 51.5781Z" fill="#E6E6E6"/>
<path d="M283.768 169.125H105.104V170.522H283.768V169.125Z" fill="#E6E6E6"/>
<path d="M274.33 67.1701C261.614 67.4983 252.127 71.2274 246.116 78.2386C243.895 80.8364 242.991 82.8825 242.038 85.0473C241.092 87.1842 240.125 89.384 237.876 92.2541V89.8798C239.27 87.8407 240.02 86.1367 240.756 84.4817C241.751 82.2191 242.696 80.0822 245.051 77.3378C251.328 70.0053 261.165 66.1156 274.288 65.7734L274.33 67.1701V67.1701Z" fill="#CCCCCC"/>
<path d="M242.037 85.0449C241.092 87.1818 240.125 89.3816 237.876 92.2517C237.609 92.5939 237.322 92.95 237.014 93.3202C228.9 102.936 218.061 106.093 209.345 108.635C208.799 108.795 208.266 108.942 207.748 109.081C199.999 111.176 195.753 111.1 192.593 111.051C189.419 110.995 187.324 110.96 183.576 113.097C176.702 117.001 173.886 122.713 171.16 128.237C168.351 133.921 165.702 139.291 158.948 141.812C154.261 143.558 150.968 142.692 147.486 141.784C144.494 140.995 139.102 121.572 134.327 118.739C124.469 120.799 118.479 152.909 111.003 170.102L109.714 169.543C117.386 151.917 123.706 119.535 134.033 117.371C138.636 116.407 144.697 139.605 147.843 140.43C151.108 141.288 154.184 142.092 158.458 140.499C164.693 138.181 167.104 133.286 169.899 127.622C172.59 122.175 175.637 116.002 182.875 111.882C186.96 109.556 189.335 109.598 192.614 109.654C195.739 109.71 199.957 109.78 207.748 107.636C208.14 107.524 208.54 107.412 208.953 107.294C217.487 104.808 228.102 101.714 235.935 92.4263C236.706 91.5115 237.343 90.6665 237.876 89.8774C239.27 87.8383 240.02 86.1343 240.755 84.4793C241.75 82.2167 242.99 82.8801 242.037 85.0449V85.0449Z" fill="#144E84"/>
<path d="M167.322 244.811C166.767 242.886 165.817 241.244 164.686 240.073L160.578 221.406L151.623 223.593L156.755 242.292C156.417 243.875 156.485 245.763 157.039 247.688C158.306 252.086 161.635 255.006 164.475 254.212C167.314 253.417 168.589 249.208 167.322 244.811L167.322 244.811Z" fill="#FFB6B6"/>
<path d="M166.083 122.368C166.083 122.368 151.941 122.079 148.345 132.344C145.072 141.687 141.192 167.355 143.289 168.838L152.217 232.027L164.949 230.283L161.681 154.466L166.083 122.368Z" fill="#144E84"/>
<path d="M231.57 239.661L229.062 306.002H195.781L194.436 276.274L188.522 306.002H152.853L157.302 254.898L161.898 244.151L165.009 236.867L231.57 239.661Z" fill="#2F2E41"/>
<path d="M204.946 109.772L181.824 108.375L174.117 118.152L157.302 124.437L165.009 199.158L161.506 243.851C161.506 243.851 210.551 282.958 231.57 239.661L225.965 187.286L227.366 126.532L211.251 119.548L204.946 109.772Z" fill="#144E84"/>
<path d="M249.458 92.7691C249.709 95.1902 249.39 97.467 248.656 99.2925L252.508 122.206L241.515 123.714L238.792 100.308C237.699 98.6704 236.92 96.5065 236.67 94.0854C236.096 88.5545 238.495 83.7761 242.026 83.4126C245.557 83.0491 248.885 87.2381 249.458 92.7691V92.7691H249.458Z" fill="#FFB6B6"/>
<path d="M230.31 129.148C226.521 122.692 217.12 122.083 212.91 128.275C211.759 129.967 212.08 131.87 211.805 134.156C210.638 143.86 229.296 172.536 242.206 175.838C243.9 176.271 244.865 178.092 246.575 178.459H246.575C251.641 179.544 256.357 175.536 256.083 170.38L252.577 104.242L237.844 109.251L238.787 143.588L230.31 129.148L230.31 129.148Z" fill="#144E84"/>
<path d="M195.785 106.559C207.033 106.559 216.151 97.4706 216.151 86.2598C216.151 75.0491 207.033 65.9609 195.785 65.9609C184.537 65.9609 175.419 75.0491 175.419 86.2598C175.419 97.4706 184.537 106.559 195.785 106.559Z" fill="#FFB6B6"/>
<path d="M214.755 71.3574C214.58 71.3994 217.436 68.6248 217.558 68.5641C220.36 67.1674 217.481 80.8198 215.456 80.4357C210.474 79.493 208.323 77.6214 206.389 82.2933C205.85 83.5922 205.514 85.0587 204.463 85.9875C203.019 87.2514 200.623 87.1467 199.446 88.655C198.5 89.8702 198.773 91.6579 199.474 93.0266C200.175 94.4023 201.24 95.5685 201.877 96.9722C202.592 98.5504 199.544 103.571 198.381 106.393V106.4L198.374 106.416C198.065 107.156 197.331 105.024 196.555 104.812C195.628 104.557 194.261 106.741 192.783 106.344C192.776 106.344 192.769 106.337 192.762 106.337C191.354 105.946 189.784 105.527 188.229 105.108H188.222C183.843 103.921 182.736 105.624 182.525 105.576L179.807 102.74C178.874 102.063 178.979 99.8777 178.322 99.2906C177.784 98.8106 176.442 99.9199 176.047 99.4585C174.109 97.1959 173.663 94.9324 172.52 90.4637C171.476 86.3785 169.311 74.1507 173.76 73.599C177.957 73.0753 174.888 67.2512 179.113 67.4677C178.861 66.4063 179.331 65.268 180.094 64.4858C180.851 63.6967 181.86 63.2079 182.876 62.7889C187.885 60.7498 187.052 58.997 192.335 60.1841C192.86 59.4509 200.49 59.9397 201.443 60.1841C201.513 60.1981 199.082 60.7778 202.844 60.1841C202.704 61.0431 205.086 61.4202 204.946 62.2791C205.472 61.5738 211.119 65.6241 211.252 66.4691C211.427 67.5236 209.83 66.9859 210.895 67.1465C211.525 67.2443 212.604 68.5222 212.499 69.1577C212.954 68.5431 213.41 67.9356 213.872 67.3211C213.956 67.3281 214.033 67.342 214.118 67.356C216.247 67.761 213.806 74.701 213.893 72.5376C214.054 68.5641 216.878 70.8896 214.755 71.3574Z" fill="#2F2E41"/>
<path d="M292.779 179.403C292.935 179.789 293.477 179.789 293.634 179.403C294.728 176.715 296.285 173.705 297.98 171.404C298.251 171.036 297.877 170.544 297.446 170.699L293.814 172.008V149.602H292.599V172.009L288.966 170.699C288.534 170.543 288.161 171.036 288.432 171.404C290.126 173.705 291.684 176.715 292.779 179.403Z" fill="#3F3D56"/>
<path d="M316.593 202.473C316.476 202.872 316.9 203.207 317.263 203.003C319.797 201.576 322.895 200.184 325.657 199.432C326.1 199.312 326.114 198.695 325.679 198.549L322.018 197.324L336 179.777L335.048 179.023L321.066 196.57L319.039 193.293C318.798 192.904 318.198 193.057 318.181 193.514C318.072 196.366 317.413 199.689 316.593 202.473Z" fill="#3F3D56"/>
<path d="M305.22 217.425H281.593C280.126 217.425 278.933 216.235 278.933 214.773C275.809 205.673 275.871 196.755 278.933 188.011C278.933 186.549 280.126 185.359 281.593 185.359H305.22C306.687 185.359 307.88 186.549 307.88 188.011V214.773C307.88 216.235 306.687 217.425 305.22 217.425Z" fill="#E6E6E6"/>
<path d="M286.655 186.148C282.828 186.148 279.726 189.241 279.726 193.055V214.204C279.726 215.546 280.817 216.634 282.163 216.634H295.229C301.778 216.634 307.088 211.342 307.088 204.814V188.578C307.088 187.236 305.996 186.148 304.65 186.148H286.655Z" fill="white"/>
<path d="M298.909 193.93H287.848C287.569 193.93 287.342 193.704 287.342 193.426C287.342 193.148 287.569 192.922 287.848 192.922H298.909C299.188 192.922 299.415 193.148 299.415 193.426C299.415 193.704 299.188 193.93 298.909 193.93Z" fill="#E6E6E6"/>
<path d="M298.909 204.68H287.848C287.569 204.68 287.342 204.454 287.342 204.176C287.342 203.898 287.569 203.672 287.848 203.672H298.909C299.188 203.672 299.415 203.898 299.415 204.176C299.415 204.454 299.188 204.68 298.909 204.68Z" fill="#E6E6E6"/>
<path d="M304.845 199.305H281.912C281.633 199.305 281.406 199.079 281.406 198.801C281.406 198.523 281.633 198.297 281.912 198.297H304.845C305.124 198.297 305.351 198.523 305.351 198.801C305.351 199.079 305.124 199.305 304.845 199.305Z" fill="#E6E6E6"/>
<path d="M305.115 209.047H295.546C295.267 209.047 295.04 208.821 295.04 208.543C295.04 208.265 295.267 208.039 295.546 208.039H305.115C305.394 208.039 305.621 208.265 305.621 208.543C305.621 208.821 305.394 209.047 305.115 209.047Z" fill="#E6E6E6"/>
<path d="M90.7323 17.2668C95.555 17.2668 99.4646 13.4522 99.4646 8.74668C99.4646 4.04115 95.555 0.226562 90.7323 0.226562C85.9096 0.226562 82 4.04115 82 8.74668C82 13.4522 85.9096 17.2668 90.7323 17.2668Z" fill="#144E84"/>
<path d="M160.736 5.82955H113.733C112.121 5.82955 110.809 4.52193 110.809 2.91478C110.809 1.30762 112.121 0 113.733 0H160.736C162.348 0 163.66 1.30762 163.66 2.91478C163.66 4.52193 162.348 5.82955 160.736 5.82955Z" fill="#F2F2F2"/>
<path d="M197.417 15.6967H113.733C112.121 15.6967 110.809 14.3891 110.809 12.782C110.809 11.1748 112.121 9.86719 113.733 9.86719H197.417C199.029 9.86719 200.341 11.1748 200.341 12.782C200.341 14.3891 199.029 15.6967 197.417 15.6967Z" fill="#F2F2F2"/>
</g>
<defs>
<clipPath id="clip0_861_19598">
<rect width="254" height="306" fill="white" transform="translate(82)"/>
</clipPath>
</defs>
</svg>
