<svg width="417" height="306" viewBox="0 0 417 306" fill="none" xmlns="http://www.w3.org/2000/svg">
<rect width="417" height="306" rx="8" fill="white"/>
<g clip-path="url(#clip0_861_20621)">
<path d="M333.104 55.7387C330.943 77.3329 324.786 100.103 315.131 122.073C303.191 149.242 286.878 173.172 267.954 191.276L266.904 190.446C285.736 172.429 301.975 148.604 313.865 121.548C324.611 97.0972 331.002 71.6528 332.357 47.9766L333.699 48.1803C333.557 50.6808 333.358 53.2003 333.104 55.7387Z" fill="#F2F2F2"/>
<path d="M341.71 181.158C315.131 219.507 282.886 246.908 250.912 258.312L250.266 257.237C282.018 245.912 314.074 218.651 340.532 180.477L341.71 181.158Z" fill="#F2F2F2"/>
<path d="M332.458 82.6215C330.297 104.216 324.141 126.986 314.485 148.956C302.545 176.125 286.232 200.055 267.309 218.159L266.259 217.329C285.09 199.311 301.329 175.487 313.219 148.43C323.965 123.98 330.357 98.5357 331.711 74.8594L333.053 75.0631C332.911 77.5637 332.713 80.0831 332.458 82.6215Z" fill="#F2F2F2"/>
<path d="M34.0784 138.066H16.6396C16.267 138.067 15.899 137.991 15.5634 137.844C15.2277 137.698 14.933 137.484 14.7014 137.219C14.4726 136.961 14.3111 136.66 14.2292 136.337C14.1473 136.014 14.1469 135.679 14.2283 135.356C15.8892 128.71 15.7848 121.801 13.9239 115.198C13.8062 114.763 13.8346 114.307 14.0056 113.887C14.1766 113.467 14.4822 113.103 14.8832 112.842C23.8503 106.993 30.9121 107.162 35.8728 113.347C36.0964 113.629 36.245 113.954 36.3068 114.297C37.6322 121.523 37.7056 128.893 36.5242 136.141C36.4421 136.675 36.1491 137.165 35.6994 137.519C35.2497 137.873 34.6738 138.067 34.0784 138.066Z" fill="#E6E6E6"/>
<path d="M28.6717 122.222H22.6727C22.3409 122.222 22.0228 122.102 21.7882 121.89C21.5536 121.677 21.4219 121.388 21.4219 121.088C21.4219 120.787 21.5536 120.498 21.7882 120.285C22.0228 120.073 22.3409 119.953 22.6727 119.953H28.6717C29.0029 119.954 29.3204 120.074 29.5544 120.286C29.7884 120.499 29.9198 120.787 29.9198 121.088C29.9198 121.388 29.7884 121.676 29.5544 121.889C29.3204 122.101 29.0029 122.221 28.6717 122.222Z" fill="white"/>
<path d="M28.6717 126.206H22.6727C22.3409 126.206 22.0228 126.087 21.7882 125.874C21.5536 125.661 21.4219 125.373 21.4219 125.072C21.4219 124.771 21.5536 124.482 21.7882 124.27C22.0228 124.057 22.3409 123.937 22.6727 123.938H28.6717C29.0029 123.938 29.3204 124.058 29.5544 124.271C29.7884 124.483 29.9198 124.771 29.9198 125.072C29.9198 125.372 29.7884 125.661 29.5544 125.873C29.3204 126.086 29.0029 126.206 28.6717 126.206Z" fill="white"/>
<path d="M28.6717 130.183H22.6727C22.3409 130.183 22.0228 130.063 21.7882 129.851C21.5536 129.638 21.4219 129.349 21.4219 129.048C21.4219 128.748 21.5536 128.459 21.7882 128.246C22.0228 128.034 22.3409 127.914 22.6727 127.914H28.6717C29.0029 127.915 29.3204 128.034 29.5544 128.247C29.7884 128.46 29.9198 128.748 29.9198 129.048C29.9198 129.349 29.7884 129.637 29.5544 129.85C29.3204 130.062 29.0029 130.182 28.6717 130.183Z" fill="white"/>
<path d="M351.012 208.683H333.573C333.201 208.684 332.833 208.608 332.497 208.461C332.161 208.315 331.867 208.101 331.635 207.836C331.406 207.578 331.245 207.277 331.163 206.954C331.081 206.632 331.081 206.296 331.162 205.974C332.823 199.327 332.718 192.418 330.857 185.815C330.74 185.38 330.768 184.924 330.939 184.504C331.11 184.084 331.416 183.72 331.817 183.459C340.784 177.61 347.846 177.78 352.806 183.964C353.03 184.246 353.179 184.571 353.24 184.914C354.566 192.141 354.639 199.511 353.458 206.758C353.376 207.293 353.083 207.782 352.633 208.136C352.183 208.49 351.607 208.685 351.012 208.683Z" fill="#E6E6E6"/>
<path d="M345.606 192.839H339.607C339.275 192.838 338.958 192.719 338.724 192.506C338.49 192.293 338.358 192.005 338.358 191.705C338.358 191.404 338.49 191.116 338.724 190.903C338.958 190.691 339.275 190.571 339.607 190.57H345.606C345.937 190.57 346.255 190.69 346.49 190.903C346.725 191.115 346.856 191.404 346.856 191.705C346.856 192.006 346.725 192.294 346.49 192.507C346.255 192.72 345.937 192.839 345.606 192.839Z" fill="white"/>
<path d="M345.606 196.823H339.607C339.275 196.823 338.958 196.703 338.724 196.49C338.49 196.278 338.358 195.99 338.358 195.689C338.358 195.389 338.49 195.1 338.724 194.888C338.958 194.675 339.275 194.555 339.607 194.555H345.606C345.937 194.555 346.255 194.674 346.49 194.887C346.725 195.1 346.856 195.388 346.856 195.689C346.856 195.99 346.725 196.278 346.49 196.491C346.255 196.704 345.937 196.823 345.606 196.823Z" fill="white"/>
<path d="M345.606 200.8H339.607C339.275 200.799 338.958 200.68 338.724 200.467C338.49 200.254 338.358 199.966 338.358 199.666C338.358 199.365 338.49 199.077 338.724 198.864C338.958 198.652 339.275 198.532 339.607 198.531H345.606C345.937 198.531 346.255 198.651 346.49 198.864C346.725 199.076 346.856 199.365 346.856 199.666C346.856 199.967 346.725 200.255 346.49 200.468C346.255 200.681 345.937 200.8 345.606 200.8Z" fill="white"/>
<path d="M417 305.412C417 305.49 416.984 305.567 416.951 305.639C416.918 305.711 416.87 305.776 416.809 305.831C416.749 305.886 416.677 305.93 416.597 305.959C416.518 305.989 416.433 306.004 416.347 306.004H1.65251C1.47946 306.004 1.31349 305.942 1.19112 305.831C1.06875 305.72 1 305.569 1 305.412C1 305.255 1.06875 305.105 1.19112 304.994C1.31349 304.883 1.47946 304.82 1.65251 304.82H416.348C416.433 304.82 416.518 304.835 416.598 304.865C416.677 304.895 416.749 304.938 416.809 304.993C416.87 305.048 416.918 305.113 416.951 305.185C416.984 305.257 417 305.334 417 305.412Z" fill="#CCCCCC"/>
<path d="M110.393 269.177L109.305 255.457C102.181 252.227 94.2943 250.623 86.3311 250.785C97.5343 258.638 96.6369 274.335 104.396 285.078C106.844 288.412 110.088 291.203 113.887 293.245C117.687 295.287 121.944 296.528 126.344 296.875L135.668 301.739C136.734 295.346 136.26 288.819 134.277 282.608C132.295 276.397 128.851 270.65 124.184 265.762C121.535 263.044 118.52 260.638 115.209 258.603C113.171 263.91 110.393 269.177 110.393 269.177Z" fill="#F2F2F2"/>
<path d="M307.606 271.161L308.694 257.441C315.819 254.211 323.705 252.607 331.668 252.769C320.465 260.623 321.362 276.32 313.604 287.062C311.155 290.396 307.911 293.187 304.112 295.229C300.313 297.272 296.055 298.512 291.655 298.859L282.331 303.724C281.265 297.331 281.739 290.804 283.722 284.593C285.704 278.381 289.148 272.634 293.816 267.746C296.464 265.028 299.48 262.623 302.791 260.588C304.829 265.894 307.606 271.161 307.606 271.161Z" fill="#F2F2F2"/>
<path d="M204.065 116.343C209.819 116.343 214.483 112.112 214.483 106.894C214.483 101.676 209.819 97.4453 204.065 97.4453C198.311 97.4453 193.646 101.676 193.646 106.894C193.646 112.112 198.311 116.343 204.065 116.343Z" fill="#144E84"/>
<path d="M209.413 102.953C209.256 102.818 209.048 102.742 208.831 102.742C208.615 102.742 208.406 102.818 208.25 102.953C206.039 104.552 204.053 106.392 202.338 108.43C201.916 107.691 201.495 106.952 201.074 106.213C200.588 105.359 199.168 106.113 199.654 106.965C200.27 108.047 200.886 109.128 201.502 110.209C201.576 110.319 201.68 110.411 201.805 110.474C201.929 110.537 202.069 110.57 202.212 110.57C202.355 110.57 202.495 110.537 202.619 110.474C202.744 110.411 202.848 110.319 202.922 110.209C204.751 107.874 206.936 105.786 209.413 104.008C209.566 103.868 209.652 103.678 209.652 103.481C209.652 103.283 209.566 103.094 209.413 102.953Z" fill="white"/>
<path d="M157.449 133.681L141.738 111.305L159.931 102.469L164.705 119.541L198.348 136.029C199.676 135.595 201.115 135.521 202.489 135.817C203.862 136.112 205.112 136.763 206.084 137.691C207.057 138.619 207.71 139.783 207.966 141.043C208.221 142.302 208.067 143.601 207.522 144.782C206.978 145.963 206.066 146.975 204.898 147.694C203.73 148.413 202.357 148.809 200.945 148.832C199.534 148.856 198.145 148.506 196.949 147.827C195.753 147.147 194.801 146.166 194.208 145.004L157.449 133.681Z" fill="#A0616A"/>
<path d="M130.261 84.4674C125.324 91.0405 142.867 114.933 142.867 114.933C143.721 113.262 151.89 132.023 153.259 130.915C157.147 127.765 163.235 118.992 166.619 118.601C168.554 118.377 162.131 105.93 162.131 105.93C162.131 105.93 159.195 98.5804 155.212 89.1918C154.14 86.5186 152.34 84.1347 149.979 82.2622C147.618 80.3897 144.773 79.0894 141.709 78.4823C141.709 78.4823 135.197 77.8943 130.261 84.4674Z" fill="#3F3D56"/>
<path d="M130.502 298.625L137.963 298.624L141.512 272.523L130.5 272.524L130.502 298.625Z" fill="#A0616A"/>
<path d="M128.598 296.415L130.698 296.415L138.897 293.391L143.291 296.414H143.292C145.776 296.414 148.157 297.309 149.913 298.902C151.669 300.494 152.656 302.654 152.656 304.907V305.183L128.598 305.184L128.598 296.415Z" fill="#2F2E41"/>
<path d="M165.164 298.625L172.625 298.624L176.175 272.523L165.163 272.524L165.164 298.625Z" fill="#A0616A"/>
<path d="M163.262 296.415L165.362 296.415L173.561 293.391L177.956 296.414H177.956C180.44 296.414 182.821 297.309 184.577 298.902C186.333 300.494 187.32 302.654 187.32 304.907V305.183L163.262 305.184L163.262 296.415Z" fill="#2F2E41"/>
<path d="M168.395 155.93L119.864 157.03C110.646 161.57 110.507 171.397 113.527 183.065C113.527 183.065 112.507 189.999 114.546 191.849C116.585 193.698 117.605 193.698 116.585 196.934C115.566 200.17 120.952 205.456 120.298 206.049C119.644 206.643 118.114 209.879 118.114 209.879L123.212 236.231C123.212 236.231 126.78 282 127.8 282.925C128.819 283.849 129.839 282.925 128.819 285.236C127.8 287.548 126.78 286.623 127.8 287.548C128.703 288.431 129.554 289.357 130.349 290.322H142.673C142.673 290.322 143.602 285.699 143.602 285.236C143.602 284.774 144.622 282 144.622 281.538C144.622 281.076 143.721 280.258 143.721 280.258C143.409 279.318 143.199 278.354 143.092 277.377C143.092 276.452 140.034 240.854 140.034 240.854L146.151 194.623L160.934 239.929C160.934 239.929 160.934 279.689 161.953 280.613C162.973 281.538 162.973 281.076 162.463 282.925C161.953 284.774 159.914 284.312 161.444 285.699C162.973 287.086 163.483 284.774 162.973 287.086L162.463 289.397L177.756 289.596C177.756 289.596 179.795 285.699 178.775 284.312C177.756 282.925 177.817 283.303 179.061 281.034C180.305 278.764 180.814 278.302 180.305 277.839C179.795 277.377 179.795 274.918 179.795 274.918L177.246 230.683C177.246 230.683 176.736 183.989 176.736 182.602C176.698 181.889 176.843 181.177 177.16 180.523V178.64L175.207 171.969L168.395 155.93Z" fill="#2F2E41"/>
<path d="M139.241 64.4057C147.569 64.4057 154.32 58.283 154.32 50.7302C154.32 43.1774 147.569 37.0547 139.241 37.0547C130.913 37.0547 124.162 43.1774 124.162 50.7302C124.162 58.283 130.913 64.4057 139.241 64.4057Z" fill="#A0616A"/>
<path d="M146.78 73.4436C150.029 75.1951 151.972 78.4133 153.088 81.6881C155.153 87.751 156.396 94.0195 156.79 100.355L157.968 119.323L172.56 159.71C159.913 169.415 112.376 161.916 112.376 161.916C112.376 161.916 110.917 161.475 112.376 160.151C113.835 158.828 115.256 160 113.797 158.677C112.337 157.353 113.343 158.828 113.83 157.504C114.316 156.181 113.83 157.063 113.343 156.622C112.857 156.181 117.109 152.211 117.109 152.211L113.218 129.028L108.354 82.2665C114.191 75.6493 125.929 71.7485 125.929 71.7485L128.963 66.7969L144.129 67.8972L146.78 73.4436Z" fill="#3F3D56"/>
<path d="M151.671 43.4657C152.843 44.2584 153.711 45.3646 154.153 46.6284C154.323 44.5631 154.334 42.4895 154.185 40.4228C154.008 38.9705 152.88 38.6438 151.575 38.2653C150.396 37.9233 149.063 37.537 148.704 36.1272C143.964 31.9452 135.713 32.1561 130.066 33.6148C126.959 34.4175 125.171 35.4489 125.011 36.053L124.978 36.1774L124.852 36.2346C122.456 37.3208 121.99 40.7505 122.021 43.4364C122.079 48.4968 124.006 54.2442 125.091 54.7111C125.149 54.7358 125.163 54.7261 125.188 54.7073C126.822 53.5229 128.816 54.7973 129.692 55.4901C130.209 52.345 131.873 49.4476 134.418 47.2608C136.964 45.074 140.244 43.7238 143.735 43.426C144.875 43.326 146.005 43.154 147.119 42.9113C147.684 42.7787 148.265 42.7096 148.848 42.7055C149.852 42.6916 150.837 42.9569 151.671 43.4657Z" fill="#2F2E41"/>
<path d="M245.278 166.825L274.284 140.111L281.927 118.746L269.629 114.234C263.537 119.808 257.265 136.869 257.265 136.869L237.468 160.967C237.31 161.02 237.152 161.077 236.997 161.143C236.085 161.534 235.3 162.131 234.717 162.876C234.135 163.622 233.774 164.492 233.67 165.401C233.566 166.311 233.722 167.229 234.124 168.067C234.526 168.906 235.159 169.636 235.963 170.187C236.767 170.739 237.714 171.093 238.713 171.216C239.712 171.338 240.729 171.225 241.665 170.887C242.602 170.549 243.426 169.997 244.059 169.286C244.692 168.574 245.112 167.727 245.278 166.825Z" fill="#FFB8B8"/>
<path d="M266.274 116.675L281.827 120.755L281.885 120.745C287.601 119.739 292.123 111.122 294.91 104.072C295.827 101.746 295.736 99.1916 294.655 96.9245C293.575 94.6575 291.586 92.8471 289.09 91.8593C287.243 91.1419 285.212 90.9073 283.226 91.1819C281.24 91.4566 279.379 92.2295 277.852 93.4135L270.098 99.4692L266.274 116.675Z" fill="#144E84"/>
<path d="M252.968 297.829L244.604 297.829L240.625 268.57L252.969 268.571L252.968 297.829Z" fill="#FFB8B8"/>
<path d="M255.101 295.351L252.747 295.351L243.556 291.961L238.63 295.35H238.629C235.845 295.351 233.175 296.354 231.207 298.139C229.238 299.924 228.132 302.346 228.132 304.87V305.18L255.101 305.181L255.101 295.351Z" fill="#2F2E41"/>
<path d="M290.081 297.829L281.717 297.829L277.738 268.57L290.083 268.571L290.081 297.829Z" fill="#FFB8B8"/>
<path d="M292.215 295.351L289.86 295.351L280.669 291.961L275.743 295.35H275.742C272.958 295.351 270.288 296.354 268.32 298.139C266.351 299.924 265.245 302.346 265.245 304.87V305.18L292.214 305.181L292.215 295.351Z" fill="#2F2E41"/>
<path d="M302.834 171.803C302.834 171.803 303.811 182.432 301.369 192.618C298.928 202.805 298.928 231.492 298.928 231.492L293.556 287.394L277.441 286.065L273.046 192.618L257.42 224.063L258.885 228.492L256.934 229.599C256.934 229.599 258.397 238.235 257.42 238.235C256.443 238.235 254.002 239.563 254.002 239.563L255.955 285.18L239.352 284.737L233.492 220.52L239.84 183.761L240.329 176.675L242.526 176.757L243.645 173.796L245.7 168.703L302.834 171.803Z" fill="#2F2E41"/>
<path d="M303.678 174.036L303.765 173.925C308.414 168.023 301.423 153.841 300.368 151.786L304.809 150.479L303.809 142.769L303.335 139.332L306.73 136.254L306.739 136.177L308.692 120.676L311.533 110.381C312.603 106.489 312.511 102.409 311.268 98.5592C310.025 94.7097 307.675 91.2296 304.459 88.4761L297.894 82.8625L289.916 72.1562H277.05L272.639 79.7133C268.362 80.6097 264.567 82.8386 261.916 86.0115C259.265 89.1844 257.925 93.1004 258.13 97.0771L259.13 116.897L255.216 141.574L255.213 146.04L250.809 150.48L251.77 154.841L248.418 156.144L246.938 162.409C246.325 163.142 242.282 168.031 242.282 169.368C242.282 169.568 242.446 169.762 242.796 169.978C245.551 171.67 260.781 175.12 267.521 172.673C274.701 170.07 303.243 173.976 303.53 174.015L303.678 174.036Z" fill="#144E84"/>
<path d="M281.821 68.6955C291.232 68.6955 298.86 61.7769 298.86 53.2423C298.86 44.7077 291.232 37.7891 281.821 37.7891C272.411 37.7891 264.782 44.7077 264.782 53.2423C264.782 61.7769 272.411 68.6955 281.821 68.6955Z" fill="#FFB8B8"/>
<path d="M280.189 68.9458C282.827 68.9213 285.459 68.6925 288.055 68.2618C290.625 67.7248 296.295 63.7484 297.84 61.3993C298.988 59.654 299.677 56.9543 300.053 54.9971C300.561 52.4068 300.463 49.7486 299.766 47.1948C299.069 44.641 297.788 42.2484 296.007 40.172C295.32 39.3021 294.387 38.6167 293.306 38.1883C293.211 38.157 293.112 38.1295 293.013 38.1064C291.446 37.7714 290.026 37.0194 288.933 35.9469C288.721 35.7298 288.492 35.5267 288.248 35.3395C287.023 34.4498 285.583 33.8357 284.046 33.5474C281.563 33.0066 278.011 33.6843 273.489 35.5635C271.217 36.5076 268.696 36.2442 266.752 35.9093C266.643 35.8928 266.531 35.9025 266.428 35.9374C266.324 35.9723 266.232 36.0312 266.162 36.1082C265.359 36.8276 264.287 37.2449 263.159 37.2762C262.469 37.3199 261.769 38.2043 260.925 39.3561C260.734 39.6175 260.51 39.9226 260.348 40.1088L260.316 39.7591L259.936 40.159C259.339 40.7874 258.928 41.5425 258.739 42.3541C258.551 43.1657 258.592 44.0072 258.859 44.8005C259.126 45.5937 259.61 46.3128 260.265 46.8908C260.921 47.4688 261.728 47.8869 262.61 48.1061C263.309 48.2575 264.024 48.3437 264.743 48.3634C265.179 48.3887 265.63 48.4149 266.063 48.4726C267.454 48.6972 268.757 49.245 269.844 50.0626C270.932 50.8801 271.767 51.9395 272.269 53.1373C272.387 53.4141 272.574 53.6626 272.815 53.8634C273.057 54.0643 273.345 54.2123 273.659 54.2959C273.974 54.3794 274.305 54.3965 274.627 54.3456C274.95 54.2947 275.255 54.1772 275.52 54.0023C275.96 53.6747 276.481 53.4484 277.038 53.3428C277.595 53.2373 278.172 53.2555 278.72 53.396C279.197 53.6218 279.573 53.9894 279.786 54.437C280.044 54.9352 280.459 55.3525 280.979 55.6357C282.753 56.4133 282.977 60.037 282.435 63.0748C281.912 66.003 280.773 68.1391 279.667 68.2693C278.815 68.3694 278.719 68.4268 278.661 68.5652L278.61 68.6891L278.709 68.8015C279.185 68.9455 279.69 68.9947 280.189 68.9458Z" fill="#2F2E41"/>
<path d="M266.052 118.332L257.862 108.867C249.52 110.951 234.717 122.917 234.717 122.917L204.317 134.882C203.302 134.727 202.26 134.818 201.296 135.144C200.333 135.471 199.481 136.022 198.826 136.742C198.172 137.462 197.738 138.326 197.569 139.246C197.4 140.167 197.501 141.111 197.862 141.985C198.223 142.859 198.832 143.631 199.627 144.223C200.421 144.816 201.374 145.208 202.389 145.361C203.404 145.513 204.446 145.42 205.409 145.092C206.372 144.763 207.222 144.21 207.875 143.488L247.698 133.412L266.052 118.332Z" fill="#FFB8B8"/>
<path d="M264.089 120.493L277.012 107.428L277.73 98.1702C277.863 96.3523 277.434 94.5368 276.489 92.9287C275.545 91.3207 274.123 89.9843 272.385 89.0705C270.02 87.8463 267.231 87.4822 264.581 88.0519C261.931 88.6216 259.619 90.0825 258.111 92.1394C253.545 98.3808 248.633 106.819 251.16 111.577L251.186 111.625L264.089 120.493Z" fill="#144E84"/>
<path d="M144.979 169.6L111.392 153.999C109.003 152.889 108.212 149.946 109.628 147.438L131.528 108.657C132.944 106.149 136.04 105.011 138.429 106.121L172.017 121.721C174.406 122.831 175.197 125.774 173.781 128.283L151.881 167.064C150.465 169.572 147.369 170.71 144.979 169.6Z" fill="#E6E6E6"/>
<path d="M139.241 162.432L116.421 151.832C114.184 150.793 113.442 148.036 114.769 145.687L132.963 113.469C134.289 111.12 137.189 110.054 139.426 111.094L166.988 123.895C169.226 124.935 169.967 127.691 168.64 130.04L158.756 147.543C152.848 158.006 149.208 167.061 139.241 162.432Z" fill="white"/>
<path d="M150.523 144.836L130.311 135.447C130.064 135.288 129.888 135.053 129.816 134.785C129.744 134.518 129.781 134.236 129.919 133.991C130.058 133.746 130.288 133.554 130.57 133.451C130.851 133.348 131.164 133.34 131.451 133.428L151.663 142.816C151.91 142.976 152.086 143.211 152.158 143.478C152.23 143.746 152.193 144.028 152.055 144.273C151.917 144.518 151.686 144.709 151.404 144.813C151.123 144.916 150.81 144.924 150.523 144.836Z" fill="#144E84"/>
<path d="M132.671 141.582L128.058 139.44C127.811 139.28 127.635 139.045 127.563 138.778C127.491 138.51 127.528 138.228 127.666 137.983C127.805 137.738 128.036 137.547 128.317 137.443C128.598 137.34 128.911 137.332 129.198 137.42L133.811 139.563C134.058 139.723 134.234 139.958 134.305 140.225C134.377 140.492 134.341 140.774 134.202 141.019C134.064 141.264 133.833 141.456 133.552 141.559C133.271 141.663 132.958 141.671 132.671 141.582Z" fill="#144E84"/>
<path d="M138.588 149.361L125.806 143.424C125.559 143.264 125.383 143.029 125.311 142.762C125.239 142.495 125.276 142.213 125.414 141.968C125.553 141.723 125.784 141.531 126.065 141.428C126.346 141.324 126.659 141.316 126.946 141.405L139.728 147.342C139.976 147.502 140.151 147.737 140.223 148.004C140.295 148.271 140.258 148.553 140.12 148.798C139.982 149.043 139.751 149.235 139.47 149.338C139.188 149.442 138.875 149.45 138.588 149.361V149.361Z" fill="#144E84"/>
<path d="M158.522 130.672L138.31 121.283C138.063 121.124 137.887 120.889 137.815 120.621C137.743 120.354 137.78 120.072 137.918 119.827C138.057 119.582 138.287 119.39 138.569 119.287C138.85 119.184 139.163 119.176 139.45 119.264L159.662 128.652C159.909 128.812 160.085 129.047 160.157 129.314C160.229 129.582 160.192 129.864 160.054 130.109C159.916 130.354 159.685 130.545 159.403 130.649C159.122 130.752 158.809 130.76 158.522 130.672Z" fill="#144E84"/>
<path d="M140.67 127.418L136.057 125.276C135.81 125.116 135.634 124.881 135.562 124.613C135.49 124.346 135.527 124.064 135.665 123.819C135.804 123.574 136.035 123.383 136.316 123.279C136.597 123.176 136.91 123.168 137.197 123.256L141.81 125.399C142.057 125.558 142.233 125.793 142.304 126.061C142.376 126.328 142.34 126.61 142.201 126.855C142.063 127.1 141.832 127.292 141.551 127.395C141.27 127.498 140.957 127.507 140.67 127.418Z" fill="#144E84"/>
<path d="M146.586 135.197L133.804 129.26C133.557 129.1 133.381 128.865 133.309 128.598C133.238 128.33 133.274 128.049 133.412 127.804C133.551 127.559 133.782 127.367 134.063 127.264C134.344 127.16 134.657 127.152 134.944 127.241L147.726 133.178C147.974 133.337 148.149 133.572 148.221 133.84C148.293 134.107 148.256 134.389 148.118 134.634C147.98 134.879 147.749 135.071 147.468 135.174C147.186 135.277 146.873 135.286 146.586 135.197L146.586 135.197Z" fill="#144E84"/>
<path d="M117.147 135.843L109.56 110.223L129.836 106.742L128.746 124.327L155.388 149.207C156.798 149.154 158.195 149.475 159.408 150.131C160.621 150.786 161.597 151.747 162.218 152.897C162.839 154.046 163.077 155.335 162.905 156.606C162.732 157.876 162.155 159.074 161.245 160.053C160.335 161.031 159.13 161.748 157.778 162.117C156.426 162.485 154.986 162.489 153.631 162.127C152.277 161.766 151.068 161.055 150.152 160.081C149.236 159.107 148.651 157.913 148.471 156.643L117.147 135.843Z" fill="#A0616A"/>
<path d="M107.484 81.4987C100.602 86.4266 109.435 113.991 109.435 113.991C110.803 112.63 112.393 132.749 114.064 132.064C118.816 130.117 127.524 123.403 130.882 123.95C132.802 124.263 130.79 110.642 130.79 110.642C130.79 110.642 130.42 102.832 129.725 92.7923C129.586 89.9506 128.657 87.1868 127.024 84.7583C125.391 82.3298 123.107 80.3156 120.385 78.903C120.385 78.903 114.367 76.5709 107.484 81.4987Z" fill="#3F3D56"/>
<path d="M222.006 192.707L203.677 184.858C203.285 184.691 202.94 184.445 202.667 184.14C202.395 183.835 202.202 183.478 202.103 183.095C202.004 182.721 202 182.332 202.09 181.956C202.18 181.58 202.363 181.227 202.626 180.925C207.935 174.771 211.58 167.574 213.27 159.912C213.398 159.325 213.746 158.797 214.255 158.417C214.764 158.037 215.403 157.829 216.062 157.828C225.41 157.857 232.397 160.953 236.827 167.028C237.06 167.344 237.215 167.702 237.28 168.078C237.345 168.454 237.319 168.838 237.204 169.204C234.639 177.222 230.736 184.837 225.63 191.784C225.251 192.31 224.675 192.692 224.009 192.862C223.342 193.032 222.631 192.977 222.006 192.707Z" fill="#E6E6E6"/>
<path d="M227.397 181.692L213.383 175.69C213.034 175.541 212.765 175.272 212.635 174.943C212.505 174.614 212.524 174.251 212.689 173.935C212.854 173.619 213.15 173.375 213.513 173.257C213.876 173.139 214.276 173.157 214.624 173.306L228.639 179.308C228.811 179.382 228.966 179.486 229.094 179.614C229.223 179.742 229.322 179.892 229.386 180.055C229.451 180.218 229.479 180.391 229.47 180.564C229.461 180.737 229.414 180.906 229.332 181.063C229.251 181.22 229.136 181.36 228.995 181.476C228.853 181.593 228.688 181.683 228.508 181.741C228.329 181.8 228.138 181.825 227.947 181.817C227.757 181.809 227.57 181.766 227.397 181.692H227.397Z" fill="white"/>
<path d="M229.575 177.513L215.561 171.511C215.212 171.361 214.943 171.093 214.813 170.763C214.683 170.434 214.702 170.072 214.867 169.756C215.031 169.439 215.328 169.195 215.691 169.077C216.054 168.959 216.453 168.977 216.802 169.126L230.816 175.128C231.165 175.277 231.434 175.546 231.564 175.875C231.694 176.204 231.675 176.567 231.51 176.883C231.346 177.199 231.049 177.443 230.686 177.561C230.323 177.679 229.923 177.662 229.575 177.513V177.513Z" fill="white"/>
<path d="M210.849 46.2561L209.544 46.3857C203.728 25.6562 192.454 11.295 176.94 4.85447C157.218 -3.33264 132.83 2.16515 108.27 20.3353C83.5854 38.5983 61.7328 67.4458 46.7384 101.565L45.4727 101.04C60.5329 66.7714 82.4976 37.7845 107.321 19.42C132.268 0.962748 157.153 -4.57536 177.391 3.82611C193.35 10.4512 204.92 25.1234 210.849 46.2561Z" fill="#F2F2F2"/>
<path d="M66.927 73.2539C63.5155 79.7718 60.2706 86.5243 57.2824 93.3238C40.0865 132.452 31.3724 172.413 32.0845 208.887L30.7406 208.757C30.0277 172.147 38.7669 132.049 56.0166 92.7984C59.0134 85.9798 62.2676 79.2081 65.6889 72.6719L66.927 73.2539Z" fill="#F2F2F2"/>
<path d="M66.2815 100.137C62.87 106.655 59.6251 113.407 56.6369 120.207C39.441 159.335 30.7269 199.296 31.439 235.77L30.0951 235.64C29.3822 199.03 38.1214 158.932 55.3711 119.681C58.3679 112.863 61.622 106.091 65.0434 99.5547L66.2815 100.137Z" fill="#F2F2F2"/>
<path d="M30.1594 109.918C31.645 107.893 30.7657 104.994 28.1953 103.443C25.6249 101.892 22.3368 102.277 20.8512 104.302C19.3655 106.327 20.2448 109.226 22.8152 110.777C25.3856 112.328 28.6737 111.943 30.1594 109.918Z" fill="#CCCCCC"/>
<path d="M346.513 183.051C347.999 181.026 347.119 178.127 344.549 176.576C341.978 175.025 338.69 175.409 337.205 177.435C335.719 179.46 336.598 182.359 339.169 183.91C341.739 185.461 345.027 185.076 346.513 183.051Z" fill="#CCCCCC"/>
</g>
<defs>
<clipPath id="clip0_861_20621">
<rect width="416" height="306" fill="white" transform="translate(1)"/>
</clipPath>
</defs>
</svg>
