<svg width="417" height="306" viewBox="0 0 417 306" fill="none" xmlns="http://www.w3.org/2000/svg">
<rect width="417" height="306" rx="8" fill="white"/>
<g clip-path="url(#clip0_862_21053)">
<path d="M325.017 228.172H320.815V240.79H325.017V228.172Z" fill="#F2F2F2"/>
<path d="M346.317 237.883H299.518C296.038 237.883 293.218 235.031 293.218 231.512C293.218 227.993 296.038 225.141 299.518 225.141H346.317C349.797 225.141 352.617 227.993 352.617 231.512C352.617 235.031 349.797 237.883 346.317 237.883Z" fill="#F2F2F2"/>
<path d="M349.917 237.882C352.734 237.882 355.017 235.573 355.017 232.725V171.439C355.017 168.59 352.734 166.281 349.917 166.281C347.101 166.281 344.817 168.59 344.817 171.439C329.328 183.427 335.623 207.286 344.817 232.725C344.817 235.573 347.101 237.882 349.917 237.882V237.882Z" fill="#F2F2F2"/>
<path d="M343.666 210.945C342.973 214.083 341.668 216.561 340.03 218.513C336.695 222.506 331.968 224.318 328.239 225.139C324.89 225.88 322.347 225.819 322.347 225.819L306.601 227.132L294.157 228.169L281.654 229.213C282.366 232.243 283.045 235.724 283.691 239.447C283.764 239.892 283.844 240.343 283.924 240.794H258.531L258.104 239.447L255.495 231.266L250.201 219.571C249.236 217.665 248.75 215.584 248.75 213.49C248.75 212.097 248.97 210.709 249.402 209.363C249.409 209.343 249.409 209.322 249.416 209.302C250.434 206.191 252.951 203.808 256.067 202.858L259.829 201.707C270.495 199.189 285.442 195.263 296.84 192.22C306.361 189.675 313.399 187.735 313.399 187.735L313.419 187.601L315.389 173.973L335.037 172.229L341.422 171.656C341.422 171.656 341.282 172.33 341.335 174.747C341.335 174.895 341.335 175.05 341.342 175.205C341.355 175.676 341.375 176.215 341.402 176.814C341.409 177.016 341.422 177.225 341.435 177.44C341.455 177.858 341.482 178.302 341.515 178.78C341.515 178.814 341.515 178.847 341.522 178.881C341.555 179.48 341.602 180.133 341.662 180.834C341.675 181.123 341.702 181.42 341.728 181.723C341.855 183.251 342.015 185.002 342.221 186.995C342.234 187.197 342.254 187.399 342.281 187.601C342.308 187.917 342.341 188.234 342.374 188.557C342.441 189.122 342.501 189.702 342.567 190.307C342.574 190.368 342.581 190.422 342.587 190.483C342.647 191.015 342.714 191.56 342.774 192.125C342.847 192.738 342.92 193.364 343 194.004C343.047 194.435 343.1 194.879 343.16 195.337C343.186 195.553 343.213 195.775 343.24 195.997C343.273 196.233 343.3 196.475 343.333 196.718C343.386 197.149 343.439 197.593 343.499 198.044C343.626 199.047 343.766 200.084 343.905 201.162C344.418 204.979 344.272 208.218 343.666 210.945L343.666 210.945Z" fill="#2F2E41"/>
<path d="M343.666 210.945L338.519 213.194L311.162 225.139L306.601 227.132L295.402 232.02C295.722 233.724 296.061 235.407 296.428 237.064C296.601 237.865 296.774 238.659 296.96 239.447C297.067 239.898 297.167 240.343 297.28 240.794H274.616L274.443 239.447L273.784 234.175C272.472 232.99 271.7 230.721 271.234 228.31C270.768 225.907 270.601 223.341 270.488 221.564C270.488 221.543 270.488 221.516 270.482 221.496C270.295 218.21 276.64 216.029 279.177 213.982L282.293 212.938C288.731 208.42 298.298 201.579 307.56 194.933C311.068 192.415 314.537 189.924 317.766 187.601C327.806 180.369 335.623 174.72 335.623 174.72L335.037 172.229L341.422 171.656C341.422 171.656 341.282 172.33 341.335 174.747C341.335 174.895 341.335 175.05 341.342 175.205C341.355 175.683 341.375 176.215 341.402 176.814C341.409 177.016 341.422 177.225 341.435 177.44C341.455 177.858 341.482 178.302 341.515 178.78C341.515 178.814 341.515 178.847 341.522 178.881C341.555 179.48 341.602 180.133 341.662 180.834C341.675 181.123 341.702 181.42 341.728 181.723C341.848 183.251 342.008 184.995 342.221 186.995C342.234 187.197 342.254 187.399 342.281 187.601C342.308 187.917 342.341 188.234 342.374 188.557C342.441 189.122 342.501 189.708 342.567 190.308C342.574 190.368 342.581 190.422 342.587 190.483C342.647 191.015 342.714 191.56 342.774 192.125C342.847 192.738 342.92 193.364 343 194.004C343.053 194.442 343.106 194.886 343.16 195.337C343.186 195.553 343.213 195.775 343.24 195.997C343.273 196.233 343.3 196.475 343.333 196.718C343.386 197.149 343.439 197.593 343.499 198.044C343.626 199.047 343.766 200.084 343.905 201.162C344.418 204.979 344.272 208.218 343.666 210.945V210.945Z" fill="#2F2E41"/>
<path d="M347.763 178.574C348.808 183.092 348.389 186.19 347.976 190.607C347.823 192.236 348.349 194.579 346.784 195.677C345.446 196.599 297.303 196.162 296.856 192.391C296.35 188.129 297.336 183.658 299.393 179.813C303.115 172.851 305.246 164.327 306.337 158.273C308.648 145.554 303.441 138.646 305.385 125.96C305.718 123.799 305.785 121.752 305.705 119.792C305.439 112.985 303.361 107.208 304.02 101.343C304.293 98.9327 305.026 96.5087 306.537 93.9904C306.983 93.243 307.496 92.4889 308.088 91.728C311.524 87.2975 312.423 83.9578 318.388 83.9645C319.3 83.9645 320.272 83.9039 321.258 83.8568C322.836 83.7692 324.447 83.7087 325.872 83.9645C329.294 84.5772 328.535 86.7521 330.745 89.1357L331.598 89.9975C333.728 91.6944 335.572 93.0208 337.437 95.0678C341.178 99.1751 345.619 103.794 347.823 108.925C349.314 112.406 348.409 117.725 348.369 121.523C348.322 126.405 346.831 130.505 345.586 135.158C344.501 139.198 344.215 143.44 343.475 147.567C342.523 152.907 341.658 158.172 341.218 163.552C340.879 167.774 346.765 160.792 346.778 165.02C346.791 169.404 346.778 174.332 347.763 178.574L347.763 178.574Z" fill="#3F3D56"/>
<path d="M264.368 97.2498L279.194 99.9341L278.86 108.713L263.285 105.311C262.86 105.552 262.394 105.735 261.894 105.846C259.174 106.447 256.487 104.704 255.893 101.954C255.298 99.2027 257.021 96.4852 259.741 95.884C261.476 95.5005 263.195 96.0731 264.368 97.2498H264.368Z" fill="#FFB6B6"/>
<path d="M323.748 117.855C323.096 119.201 322.084 120.366 320.786 121.215C318.868 122.467 316.618 122.811 314.534 122.353C314.281 122.299 313.422 122.056 312.104 121.666C311.877 121.599 311.638 121.531 311.385 121.457C309.887 121.02 307.936 120.44 305.705 119.787C303.495 119.134 300.992 118.4 298.402 117.646L298.388 117.653C297.603 117.41 296.79 117.175 295.985 116.939H295.971C289.946 115.209 283.641 113.445 279.047 112.313C278.834 112.253 277.729 113.323 277.522 113.269C277.203 113.189 277.143 111.956 276.843 111.882C276.197 111.721 275.352 112.738 274.819 112.603C272.882 112.125 272.109 107.957 272.109 107.957L272.196 107.257L273.168 98.8399L273.181 98.6918L278.661 96.9479L280.485 98.7322L283.015 97.6683L285.372 99.4526L290.186 99.9375L292.263 100.153L292.403 100.16L304.021 101.338L307.443 101.688C307.17 100.288 306.957 98.9005 306.804 97.5337C306.764 97.1499 306.724 96.7728 306.697 96.3957L306.691 96.389C306.618 95.581 306.571 94.7865 306.538 93.9852C306.984 93.2378 307.496 92.4837 308.089 91.7228C311.524 87.2923 312.423 83.9526 318.389 83.9593C319.301 83.9593 320.273 83.8987 321.258 83.8516L322.796 97.6279L324.487 112.778L324.541 113.269C324.714 114.885 324.428 116.468 323.748 117.855L323.748 117.855Z" fill="#3F3D56"/>
<path d="M294.957 92.8852C294.198 92.3331 293.226 92.2321 292.367 92.6159L266.494 104.15C264.137 105.2 261.474 105.389 258.997 104.682L258.618 104.574C259.695 94.8937 256.946 84.4757 251.547 73.5471C250.848 73.4529 250.149 73.6414 249.583 74.0858C248.917 74.611 248.544 75.4055 248.571 76.2674L249.383 106.608L249.656 116.681C243.755 123.829 241.622 130.443 250.162 135.541C250.189 136.49 250.701 137.339 251.527 137.796C252.353 138.261 253.331 138.248 254.143 137.763L254.669 137.446L261.773 147.513C262.246 147.324 262.739 147.23 263.238 147.23C263.924 147.23 264.61 147.405 265.222 147.762L278.145 155.283L286.947 160.407C287.733 160.865 288.685 160.885 289.491 160.461C290.296 160.03 290.815 159.229 290.895 158.313L291.142 155.283L291.961 145.318L293.306 128.875L293.945 121.03L294.045 119.859L296.055 95.2755C296.135 94.3262 295.722 93.4306 294.957 92.8852V92.8852V92.8852Z" fill="#F2F2F2"/>
<path d="M296.954 96.2524C296.195 95.7002 295.223 95.5993 294.364 95.9831C285.005 103.27 275.954 109.112 268.491 107.517C266.134 108.568 263.471 108.756 260.994 108.049L260.615 107.941C261.692 98.2609 258.943 87.8429 253.544 76.9143C252.845 76.82 252.146 77.0086 251.58 77.453C250.914 77.9782 250.541 78.7727 250.568 79.6346L251.38 109.975L251.653 120.048C245.752 127.197 243.619 133.81 252.159 138.908C252.186 139.857 252.698 140.706 253.524 141.164C254.35 141.628 255.328 141.615 256.141 141.13L256.667 140.813L263.771 150.88C264.243 150.691 264.736 150.597 265.235 150.597C265.921 150.597 266.607 150.772 267.219 151.129L280.142 158.65L288.944 163.774C289.73 164.232 290.682 164.252 291.488 163.828C292.293 163.397 292.813 162.596 292.892 161.68L293.139 158.65L293.958 148.685L295.303 132.242L295.942 124.398L296.042 123.226L298.052 98.6427C298.132 97.6934 297.719 96.7978 296.954 96.2524V96.2524V96.2524Z" fill="#E6E6E6"/>
<path d="M292.158 109.905L272.302 114.789L272.585 115.968L292.442 111.084L292.158 109.905Z" fill="white"/>
<path d="M292.158 119.007L272.302 123.891L272.585 125.07L292.442 120.186L292.158 119.007Z" fill="white"/>
<path d="M272.169 130.92L272.144 132.133L292.574 132.568L292.599 131.355L272.169 130.92Z" fill="white"/>
<path d="M272.205 139.64L272.136 140.852L292.536 142.051L292.606 140.84L272.205 139.64Z" fill="white"/>
<path d="M271.177 148.318L270.987 149.516L291.164 152.791L291.354 151.593L271.177 148.318Z" fill="white"/>
<path d="M210.118 158.648H363.98C365.303 158.648 366.376 161.721 366.376 165.512V180.738C366.376 184.529 365.303 187.602 363.98 187.602H232.755C231.432 187.602 230.36 184.529 230.36 180.738L207.723 165.512C207.723 161.721 208.795 158.648 210.118 158.648H210.118Z" fill="#F2F2F2"/>
<path d="M320.623 61.4076C320.516 61.219 320.403 61.0373 320.283 60.8622C320.17 60.6804 320.044 60.5053 319.917 60.337C319.857 60.2494 319.797 60.1686 319.731 60.0946C319.132 59.3202 318.466 58.694 317.787 58.317C317.74 58.2901 317.693 58.2631 317.647 58.2429C317.54 58.1823 317.434 58.1352 317.321 58.0948C317.114 58.014 316.908 57.9534 316.695 57.9265C316.595 57.913 316.495 57.9062 316.395 57.9062C316.322 57.9062 316.249 57.913 316.175 57.9197C316.135 57.9265 316.089 57.9332 316.042 57.9399C315.989 57.9466 315.929 57.9601 315.876 57.9736C315.816 57.987 315.756 58.0073 315.703 58.0274C315.649 58.0477 315.59 58.0678 315.536 58.0948C315.476 58.1217 315.416 58.1487 315.363 58.1823C315.303 58.216 315.25 58.2497 315.197 58.2833C315.137 58.3237 315.084 58.3641 315.03 58.4045C317.068 59.5694 319.065 60.8083 321.009 62.1078C320.889 61.8654 320.763 61.6365 320.623 61.4076V61.4076V61.4076Z" fill="#3F3D56"/>
<path d="M320.623 61.4076C320.516 61.219 320.403 61.0373 320.283 60.8622C320.17 60.6804 320.044 60.5053 319.917 60.337C319.857 60.2494 319.797 60.1686 319.731 60.0946C319.132 59.3202 318.466 58.694 317.787 58.317C317.74 58.2901 317.693 58.2631 317.647 58.2429C317.54 58.1823 317.434 58.1352 317.321 58.0948C317.114 58.014 316.908 57.9534 316.695 57.9265C316.595 57.913 316.495 57.9062 316.395 57.9062C316.322 57.9062 316.249 57.913 316.175 57.9197C316.135 57.9265 316.089 57.9332 316.042 57.9399C315.989 57.9466 315.929 57.9601 315.876 57.9736C315.816 57.987 315.756 58.0073 315.703 58.0274C315.649 58.0477 315.59 58.0678 315.536 58.0948C315.476 58.1217 315.416 58.1487 315.363 58.1823C315.303 58.216 315.25 58.2497 315.197 58.2833C315.137 58.3237 315.084 58.3641 315.03 58.4045C317.068 59.5694 319.065 60.8083 321.009 62.1078C320.889 61.8654 320.763 61.6365 320.623 61.4076V61.4076V61.4076Z" fill="#3F3D56"/>
<path d="M353.893 43.5078H138.302V44.8545H264.017C276.78 44.8545 288.998 47.1842 300.29 51.4532H300.296C301.848 52.039 303.372 52.6584 304.884 53.3183C308.372 54.8265 311.755 56.5301 315.03 58.4086C317.068 59.5735 319.065 60.8125 321.009 62.112C325.164 64.8794 329.105 67.943 332.807 71.276L332.814 71.2828C332.98 71.4242 333.14 71.5656 333.3 71.7204C354.399 90.9036 367.668 118.726 367.668 149.679V225.516C367.668 233.044 361.769 239.171 355.018 232.081C354.865 231.92 354.712 231.758 354.559 231.583H225.521V240.794H353.893C362.222 240.794 369 233.94 369 225.516V58.7857C369 50.3623 362.222 43.5078 353.893 43.5078H353.893V43.5078Z" fill="#3F3D56"/>
<path d="M320.623 61.4076C320.516 61.219 320.403 61.0373 320.283 60.8622C320.17 60.6804 320.044 60.5053 319.917 60.337C319.857 60.2494 319.797 60.1686 319.731 60.0946C319.132 59.3202 318.466 58.694 317.787 58.317C317.74 58.2901 317.693 58.2631 317.647 58.2429C317.54 58.1823 317.434 58.1352 317.321 58.0948C317.114 58.014 316.908 57.9534 316.695 57.9265C316.595 57.913 316.495 57.9062 316.395 57.9062C316.322 57.9062 316.249 57.913 316.175 57.9197C316.135 57.9265 316.089 57.9332 316.042 57.9399C315.989 57.9466 315.929 57.9601 315.876 57.9736C315.816 57.987 315.756 58.0073 315.703 58.0274C315.649 58.0477 315.59 58.0678 315.536 58.0948C315.476 58.1217 315.416 58.1487 315.363 58.1823C315.303 58.216 315.25 58.2497 315.197 58.2833C315.137 58.3237 315.084 58.3641 315.03 58.4045C317.068 59.5694 319.065 60.8083 321.009 62.1078C320.889 61.8654 320.763 61.6365 320.623 61.4076V61.4076V61.4076Z" fill="#3F3D56"/>
<path d="M320.623 61.4076C320.516 61.219 320.403 61.0373 320.283 60.8622C320.17 60.6804 320.044 60.5053 319.917 60.337C319.857 60.2494 319.797 60.1686 319.731 60.0946C319.132 59.3202 318.466 58.694 317.787 58.317C317.74 58.2901 317.693 58.2631 317.647 58.2429C317.54 58.1823 317.434 58.1352 317.321 58.0948C317.114 58.014 316.908 57.9534 316.695 57.9265C316.595 57.913 316.495 57.9062 316.395 57.9062C316.322 57.9062 316.249 57.913 316.175 57.9197C316.135 57.9265 316.089 57.9332 316.042 57.9399C315.989 57.9466 315.929 57.9601 315.876 57.9736C315.816 57.987 315.756 58.0073 315.703 58.0274C315.649 58.0477 315.59 58.0678 315.536 58.0948C315.476 58.1217 315.416 58.1487 315.363 58.1823C315.303 58.216 315.25 58.2497 315.197 58.2833C315.137 58.3237 315.084 58.3641 315.03 58.4045C317.068 59.5694 319.065 60.8083 321.009 62.1078C320.889 61.8654 320.763 61.6365 320.623 61.4076V61.4076V61.4076Z" fill="#3F3D56"/>
<path d="M320.623 61.4076C320.516 61.219 320.403 61.0373 320.283 60.8622C320.17 60.6804 320.044 60.5053 319.917 60.337C319.857 60.2494 319.797 60.1686 319.731 60.0946C319.132 59.3202 318.466 58.694 317.787 58.317C317.74 58.2901 317.693 58.2631 317.647 58.2429C317.54 58.1823 317.434 58.1352 317.321 58.0948C317.114 58.014 316.908 57.9534 316.695 57.9265C316.595 57.913 316.495 57.9062 316.395 57.9062C316.322 57.9062 316.249 57.913 316.175 57.9197C316.135 57.9265 316.089 57.9332 316.042 57.9399C315.989 57.9466 315.929 57.9601 315.876 57.9736C315.816 57.987 315.756 58.0073 315.703 58.0274C315.649 58.0477 315.59 58.0678 315.536 58.0948C315.476 58.1217 315.416 58.1487 315.363 58.1823C315.303 58.216 315.25 58.2497 315.197 58.2833C315.137 58.3237 315.084 58.3641 315.03 58.4045C317.068 59.5694 319.065 60.8083 321.009 62.1078C320.889 61.8654 320.763 61.6365 320.623 61.4076V61.4076V61.4076Z" fill="#3F3D56"/>
<path d="M315.766 80.7028C316.155 80.75 316.543 80.7855 316.929 80.8033C318.13 80.8699 319.316 80.8007 320.459 80.6047C323.932 80.0418 327.087 78.3781 329.522 75.9385C332.096 73.3642 333.857 69.9282 334.333 66.0166C335.449 56.7835 328.948 48.3728 319.818 47.2447C310.819 46.1261 302.617 52.4913 301.307 61.5124C301.287 61.6521 301.265 61.7859 301.251 61.9249C300.136 71.1639 306.63 79.5693 315.766 80.7028H315.766V80.7028Z" fill="#FFB6B6"/>
<path d="M297.553 60.8941C299.918 62.0769 303.782 58.3585 305.262 60.4979C305.502 60.0356 305.768 59.5884 306.03 59.1656C306.268 58.7872 306.607 57.9795 307 57.8412C306.503 59.0544 306.613 60.6975 307.129 62.1053C309.461 62.9868 312.515 61.0355 314.674 58.7274C318.065 55.1083 323.601 64.3887 322.292 69.1915C323.958 67.1342 327.573 68.2945 328.798 70.6469C330.022 72.9933 327.953 74.8734 327.511 77.4907L330.85 77.0618C332.958 74.9864 332.81 71.4891 334.545 69.0837C337.444 65.0581 338.567 60.9507 336.388 56.7961C334.455 53.1225 334.275 48.3682 330.729 46.2503C332.278 45.4844 326.769 46.681 328.241 44.1848C329.719 41.6938 321.841 41.3915 321.327 42.726C319.076 40.0013 316.805 38.2048 314.036 40.3881C311.316 42.5361 311.598 44.7939 308.403 44.5915C306.905 44.4976 307.069 47.3238 306.178 48.5559C305.292 49.7815 301.849 50.5683 301.681 50.4371C300.772 49.7175 297.677 55.8437 297.677 55.8437C297.677 55.8437 295.168 59.6956 297.553 60.8941H297.553V60.8941Z" fill="#2F2E41"/>
<path d="M255.762 2.35938H221.48C218.451 2.35938 215.987 4.85745 215.987 7.9211V42.591C215.987 42.9007 216.014 43.2104 216.061 43.5067C216.14 43.978 216.274 44.4291 216.46 44.8533C217.319 46.7925 219.25 48.1459 221.48 48.1459H255.762C257.992 48.1459 259.923 46.7925 260.782 44.8533C260.975 44.4291 261.108 43.978 261.181 43.5067C261.235 43.2104 261.261 42.9007 261.261 42.591V7.92111C261.261 4.85746 258.791 2.35938 255.762 2.35938L255.762 2.35938ZM260.056 44.8533C259.251 46.4222 257.633 47.4928 255.762 47.4928H221.48C219.609 47.4928 217.991 46.4222 217.186 44.8533C216.966 44.4359 216.806 43.9848 216.72 43.5067C216.66 43.2104 216.633 42.9007 216.633 42.591V7.92111C216.633 7.84705 216.633 7.7797 216.646 7.71238V7.70564C216.753 5.09311 218.877 3.01253 221.48 3.01253H238.764C245.122 3.01253 250.848 5.76644 254.843 10.1566C254.863 10.1835 254.883 10.2037 254.903 10.2239L254.936 10.2576C257.653 13.2741 259.55 17.0717 260.276 21.2666C260.303 21.4282 260.336 21.583 260.356 21.7446C260.363 21.7783 260.363 21.812 260.369 21.8389C260.529 22.9095 260.609 24.0003 260.609 25.1113V42.591C260.609 42.9007 260.582 43.2104 260.522 43.5067C260.436 43.9848 260.276 44.4359 260.056 44.8534V44.8533H260.056Z" fill="#E6E6E6"/>
<path d="M260.652 25.255C260.652 12.9497 249.752 2.18584 237.732 0.280298C222.516 -2.1317 208.527 11.4294 210.54 25.3276C212.304 37.5029 232.968 55.162 238.62 44.2651C245.088 31.7959 260.652 37.5602 260.652 25.255Z" fill="#144E84"/>
<path d="M243.184 15.4922H232.118C231.839 15.4922 231.612 15.7211 231.612 16.0039C231.612 16.2867 231.839 16.5157 232.118 16.5157H243.184C243.463 16.5157 243.69 16.2867 243.69 16.0039C243.69 15.7211 243.463 15.4922 243.184 15.4922Z" fill="white"/>
<path d="M243.184 26.4062H232.118C231.839 26.4062 231.612 26.6352 231.612 26.9112C231.612 27.194 231.839 27.4297 232.118 27.4297H243.184C243.463 27.4297 243.69 27.194 243.69 26.9112C243.69 26.6352 243.463 26.4062 243.184 26.4062Z" fill="white"/>
<path d="M249.123 20.9531H226.18C225.9 20.9531 225.674 21.1821 225.674 21.4649C225.674 21.7477 225.9 21.9766 226.18 21.9766H249.123C249.403 21.9766 249.629 21.7477 249.629 21.4649C249.629 21.1821 249.403 20.9531 249.123 20.9531Z" fill="white"/>
<path d="M290.791 120.652L304.347 127.29L301.677 135.651L287.592 128.116C287.119 128.232 286.622 128.281 286.111 128.251C283.331 128.086 281.21 125.673 281.373 122.862C281.536 120.052 283.922 117.906 286.701 118.071C288.474 118.177 289.975 119.198 290.791 120.652V120.652Z" fill="#FFB6B6"/>
<path d="M348.599 112.416V112.409C347.321 110.382 345.25 108.881 342.74 108.403L340.85 108.039C336.189 116.833 331.881 125.815 331.076 136.71L311.315 128.865L310.423 128.515L308.632 126.152L305.909 126.482L305.429 125.647V125.64L304.63 124.273L298.891 124.455L298.838 124.583L298.831 124.59L296.035 131.471L296.028 131.478L295.649 132.42L295.382 133.074C295.382 133.074 295.216 134.932 295.622 136.481V136.494C295.822 137.268 296.168 137.962 296.747 138.292C297.227 138.561 298.312 137.814 298.891 138.144C299.157 138.299 298.884 139.511 299.171 139.672C299.357 139.78 300.702 139.053 300.895 139.16C302.426 140.029 304.158 141.053 306.002 142.157C306.941 142.722 307.906 143.301 308.891 143.907C319.158 150.149 331.362 158 332.374 158.539C332.447 158.579 332.52 158.613 332.594 158.647C334.431 159.569 336.602 159.798 338.699 159.152C339.138 159.017 339.558 158.849 339.951 158.647C340.676 158.29 341.336 157.825 341.908 157.28C343.226 156.054 344.125 154.398 344.438 152.533L349.884 118.718C350.251 116.442 349.738 114.22 348.599 112.416V112.416Z" fill="#3F3D56"/>
<path d="M246.32 143.739C245.694 141.167 243.823 139.261 241.639 138.682C240.767 138.44 239.842 138.413 238.923 138.642C237.938 138.884 237.052 139.389 236.34 140.11C234.522 139.248 231.992 139.12 229.182 139.12H224.522C219.009 139.12 214.535 143.833 214.535 149.22C213.097 153.96 214.874 157.212 218.143 158.647C219.921 159.428 222.138 159.67 224.522 159.32H229.182C230.8 159.63 232.345 159.36 233.723 158.647C236.153 157.394 238.064 154.768 238.91 151.543C239.515 151.758 240.148 151.88 240.794 151.88C241.22 151.88 241.653 151.826 242.079 151.725C243.65 151.334 244.955 150.277 245.754 148.755C246.54 147.254 246.739 145.476 246.32 143.739ZM241.247 147.449C240.787 148.331 240.115 149.004 239.302 149.415C239.276 149.684 239.236 149.954 239.196 150.216C239.495 150.338 239.356 150.331 239.103 150.27C238.663 150.163 237.884 149.873 238.437 149.738C238.736 149.664 239.029 149.557 239.302 149.415C239.449 148.055 239.422 146.628 239.169 145.18C239.169 143.119 238.557 141.759 237.511 140.857C238.011 140.419 238.59 140.11 239.236 139.948C239.562 139.867 239.888 139.827 240.208 139.827C240.614 139.827 241 139.854 241.36 139.921C242.911 140.197 244.003 141.12 244.496 143.16C244.835 144.574 241.879 146.244 241.247 147.449Z" fill="#F2F2F2"/>
<path d="M159.79 156.406C159.79 151.019 155.316 146.306 149.804 146.306H145.143C142.493 146.306 140.09 146.421 138.305 147.155C138.192 147.202 138.092 147.249 137.986 147.296C137.267 146.575 136.388 146.071 135.402 145.828C133.625 145.39 131.814 145.895 130.402 147.054C129.27 147.976 128.392 149.316 128.005 150.925C127.586 152.662 127.786 154.44 128.571 155.942C128.977 156.716 129.51 157.362 130.149 157.867C130.762 158.359 131.474 158.716 132.247 158.911C132.673 159.012 133.105 159.066 133.532 159.066C134.177 159.066 134.81 158.945 135.416 158.729C135.968 160.85 136.987 162.709 138.305 164.089C140.136 166.008 142.546 167.004 145.143 166.506H149.804C156.581 167.496 162.008 163.719 159.79 156.406L159.79 156.406ZM135.156 152.366C134.903 153.814 134.876 155.241 135.023 156.601C135.296 156.743 135.589 156.851 135.888 156.925C136.761 157.14 134.317 157.726 135.129 157.403C135.09 157.14 135.05 156.871 135.023 156.601C134.464 156.319 133.978 155.915 133.578 155.403C133.392 155.167 133.225 154.911 133.079 154.635C132.446 153.43 129.49 151.76 129.83 150.346C130.169 148.952 130.788 148.077 131.641 147.579C131.641 147.572 131.647 147.572 131.647 147.572C132.326 147.175 133.152 147.013 134.111 147.013C134.437 147.013 134.763 147.054 135.09 147.134C135.735 147.296 136.315 147.606 136.814 148.043C135.769 148.946 135.156 150.306 135.156 152.366H135.156Z" fill="#F2F2F2"/>
<path d="M13.971 218.133H167.832C169.156 218.133 170.228 221.206 170.228 224.996L150.254 240.223C150.254 244.013 149.182 247.086 147.859 247.086H13.971C12.6478 247.086 11.5752 244.013 11.5752 240.223V224.996C11.5752 221.206 12.6478 218.133 13.971 218.133Z" fill="#F2F2F2"/>
<path d="M77.5721 149.982L80.283 168.218L70.198 171.238L68.0102 151.854C67.5725 151.455 67.184 150.986 66.8645 150.449C65.1269 147.528 66.0599 143.735 68.9485 141.978C71.837 140.221 75.5873 141.164 77.3249 144.085C78.433 145.949 78.4508 148.164 77.5721 149.982H77.5721Z" fill="#FFB6B6"/>
<path d="M83.1642 175.829C83.8833 184.063 79.043 180.461 75.2346 188.501C73.7899 191.551 69.5021 191.1 67.9109 193.887C65.4874 198.129 67.7178 217.178 63.4168 219.521C59.0958 221.878 57.0651 215.064 53.6496 211.556C50.3073 208.122 46.3924 209.468 43.5361 205.637C40.6599 201.792 37.4042 198.365 34.5279 194.54C34.468 194.466 34.4147 194.386 34.3615 194.312C33.0432 183.821 28.7488 171.465 30.5465 165.89C32.9234 165.015 35.4867 164.429 37.4907 164.449C41.1792 164.496 39.6213 166.53 42.7905 168.132C45.4536 169.479 48.7427 176.522 51.3126 178.091C53.1436 179.202 57.6643 188.029 60.0279 187.268C63.8961 186.023 67.7045 168.011 66.799 164.712C66.0333 161.958 62.2117 158.51 62.1052 155.736C62.0985 155.635 62.0985 155.528 62.1052 155.427C65.9468 156.82 73.0841 153.265 77.019 154.551C79.8286 155.474 83.1443 158.941 83.3373 161.897C83.5371 164.927 82.8979 172.792 83.1642 175.829Z" fill="#144E84"/>
<path d="M128.446 144.788C127.747 143.973 126.701 143.596 125.649 143.784L94.763 149.366C91.9733 149.878 89.0638 149.38 86.5937 147.973L82.0131 145.367L73.4376 140.485L71.7731 139.542L64.7956 135.57L62.6051 134.324C61.7662 133.846 60.7742 133.799 59.8953 134.203C59.0165 134.6 58.3973 135.381 58.1976 136.331L56.0337 146.559L55.874 147.292L54.6555 153.063L51.6062 167.439L51.1268 169.721L50.9138 170.711L49.3558 178.084L49.0628 179.444L44.9283 198.977L44.5687 200.667C44.369 201.617 44.6087 202.573 45.2345 203.287C45.3011 203.374 45.381 203.455 45.4676 203.536C46.2599 204.277 47.3451 204.526 48.3704 204.209L49.236 203.94L55.7541 201.94L70.6879 197.361L73.8837 196.378L77.8119 195.173C78.2247 195.045 78.6441 194.985 79.0636 194.985C80.1621 194.985 81.2407 195.402 82.053 196.19L101.361 214.76L102.213 215.582C102.959 216.302 104.004 216.578 105.003 216.322C105.862 216.107 106.561 215.541 106.947 214.76C107.02 214.626 107.08 214.484 107.127 214.336L112.526 197.907L113.452 195.092L116.461 185.935L116.701 185.208C129.907 193.738 127.766 166.807 129.025 147.73C129.364 146.707 129.145 145.602 128.446 144.788L128.446 144.788Z" fill="#F2F2F2"/>
<path d="M124.45 148.155C123.751 147.34 122.706 146.963 121.654 147.152L90.7679 152.733C87.9782 153.245 85.0687 152.747 82.5986 151.34L78.018 148.734L69.4425 143.852L67.778 142.91L60.8005 138.937L58.61 137.691C57.7711 137.213 56.7791 137.166 55.9002 137.57C55.0214 137.967 54.4022 138.748 54.2025 139.698L52.0386 149.926L51.8788 150.66L50.6604 156.43L47.6111 170.806L47.1317 173.088L46.9187 174.078L45.3607 181.451L45.0677 182.811L40.9332 202.345L40.5736 204.035C40.3739 204.984 40.6136 205.94 41.2394 206.654C41.306 206.741 41.3859 206.822 41.4725 206.903C42.2648 207.644 43.35 207.893 44.3753 207.576L45.2408 207.307L51.759 205.307L66.6928 200.729L69.8886 199.746L73.8168 198.54C74.2296 198.412 74.649 198.352 75.0685 198.352C76.167 198.352 77.2456 198.769 78.0579 199.557L97.3659 218.127L98.2181 218.949C98.9638 219.669 100.009 219.945 101.008 219.69C101.867 219.474 102.566 218.909 102.952 218.127C103.025 217.993 103.085 217.851 103.132 217.703L108.531 201.274L109.457 198.459L112.466 189.302L112.706 188.575C125.912 197.105 123.771 170.174 125.03 151.097C125.369 150.074 125.15 148.97 124.45 148.155L124.45 148.155Z" fill="#E6E6E6"/>
<path d="M37.2803 207.159L37.9126 234.232L75.8547 233.176L68.1872 203.211L37.2803 207.159Z" fill="#FFB6B6"/>
<path d="M82.2382 300.28C82.6976 298.085 81.2195 299.862 80.2208 298.933L80.1409 298.852C79.0557 297.634 77.6908 297.088 77.7108 295.573C77.7308 294.058 75.1209 295.412 73.6561 293.93C73.3432 293.614 72.451 293.001 71.2326 292.234C67.4442 289.85 60.5399 285.958 58.4693 284.793C58.0832 284.578 57.8634 284.457 57.8634 284.457C57.8634 284.457 57.8568 284.571 57.8368 284.793C57.7236 286.201 57.2576 291.904 56.6917 298.933C56.6583 299.378 56.6251 299.829 56.5851 300.28H32.0573C32.0839 299.822 32.0972 299.371 32.1038 298.933C32.1438 296.832 31.9707 294.873 31.4913 293.237C30.6258 290.294 29.8535 287.493 29.2476 284.793C27.0305 274.956 27.0571 266.432 33.2224 257.146C34.3609 255.436 34.5806 249.989 34.5806 249.989C34.5806 249.989 36.6779 252.09 37.2172 252.615C37.084 252.473 36.8177 252.204 36.3783 251.76C33.8882 249.241 33.9681 248.481 35.2464 247.087C35.4728 246.844 35.7324 246.582 36.0254 246.285C37.9761 244.313 36.0254 246.285 35.0467 245.127C34.0746 243.962 36.5114 240.852 36.5114 240.852L35.586 236.165L35.0467 233.445L37.8763 232.947L45.453 231.607L73.9757 226.57L74.515 227.964L79.3486 240.401C80.5404 241.094 81.7855 243.821 82.904 247.087C84.9946 253.18 86.6325 261.132 86.6325 261.132L118.151 298.933L118.457 299.304C118.724 299.62 118.97 299.95 119.203 300.28H82.2382H82.2382Z" fill="#2F2E41"/>
<path d="M40.6127 288.156H35.9521V300.276H40.6127V288.156Z" fill="#E6E6E6"/>
<path d="M12.317 284.789H64.249C68.11 284.789 71.2399 287.954 71.2399 291.859C71.2399 295.764 68.11 298.929 64.249 298.929H12.317C8.45608 298.929 5.32617 295.764 5.32617 291.859C5.32617 287.954 8.45608 284.789 12.317 284.789Z" fill="#F2F2F2"/>
<path d="M8.32235 298.93H8.32234C5.19682 298.93 2.66309 296.367 2.66309 293.206V225.2C2.66309 222.039 5.19682 219.477 8.32234 219.477H8.32235C11.4479 219.477 13.9816 222.039 13.9816 225.2C31.1701 238.503 24.1839 264.978 13.9816 293.206C13.9816 296.367 11.4479 298.93 8.32235 298.93V298.93Z" fill="#F2F2F2"/>
<path d="M76.5662 224.19C75.4689 232.328 67.7844 225.159 60.0545 223.806C52.8639 222.553 44.3151 235.239 36.6185 236.31C31.6451 237.003 35.5666 232.828 37.2843 214.763C37.504 212.44 34.701 197.041 34.3615 194.314C33.0432 183.823 28.7488 171.468 30.5465 165.893C30.8528 164.923 31.3454 164.162 32.0711 163.65C35.4867 161.233 37.0114 159.287 39.3083 155.813C41.2525 152.864 42.664 150.588 46.2859 150.352C49.7014 150.13 53.5697 150.884 56.8653 151.611C60.4673 152.412 56.3793 152.13 57.2582 154.163C57.6842 155.16 58.4167 158.836 59.2556 160.223C61.802 159.484 64.5412 160.312 66.2698 162.342C68.2808 164.704 70.0924 166.874 71.3397 170.242C73.2173 175.279 68.4835 184.241 70.5741 189.176C72.4583 193.634 67.851 203.135 69.9083 206.683C72.5182 211.201 78.5636 209.376 76.5662 224.19V224.19H76.5662Z" fill="#144E84"/>
<path d="M91.9828 158.164L91.8145 159.5L114.309 162.399L114.477 161.064L91.9828 158.164Z" fill="white"/>
<path d="M90.7552 164.782L90.5869 166.117L113.081 169.017L113.249 167.681L90.7552 164.782Z" fill="white"/>
<path d="M90.0892 170.172L89.9209 171.508L112.415 174.407L112.583 173.072L90.0892 170.172Z" fill="white"/>
<path d="M57.3604 151.009C65.0148 151.009 71.2199 144.734 71.2199 136.993C71.2199 129.252 65.0148 122.977 57.3604 122.977C49.7061 122.977 43.501 129.252 43.501 136.993C43.501 144.734 49.7061 151.009 57.3604 151.009Z" fill="#FFB6B6"/>
<path d="M123.863 151.038L108.833 157.939L111.533 167.171L127.166 159.304C127.682 159.444 128.225 159.511 128.786 159.492C131.835 159.388 134.224 156.803 134.121 153.719C134.017 150.635 131.462 148.219 128.412 148.324C126.467 148.39 124.795 149.468 123.863 151.038L123.863 151.038Z" fill="#FFB6B6"/>
<path d="M110.964 156.133L105.171 159.033L94.8183 161.087L80.7841 166.914L78.6556 167.794L68.8336 165.908L62.0328 164.593L59.7914 164.163L51.6332 162.59L50.0109 162.487C49.5669 162.359 49.0875 162.237 48.5614 162.128C46.9945 161.794 45.1176 161.541 43.1939 161.443C42.6148 161.414 42.0277 161.398 41.4454 161.402C36.4681 161.415 31.6941 162.604 31.5768 166.195C31.4853 169.131 32.0642 171.937 33.1788 174.468C33.3485 174.852 33.5261 175.224 33.7185 175.594C36.0772 180.134 40.2183 183.62 45.2557 185.037C46.3543 185.345 47.492 185.55 48.6632 185.655L48.9063 185.631L49.8168 185.55L51.3117 185.415L54.0548 185.165L75.5912 183.21L78.1654 182.977L80.5525 182.757L80.6072 182.731C83.6548 181.409 92.0684 177.759 100.561 173.982C108.345 170.516 111.629 170.089 113.945 169.172C114.405 168.99 114.825 168.794 115.238 168.547C115.607 168.319 122.364 163.657 122.401 163.563C122.523 163.274 122.388 162.663 122.082 161.859C121.212 159.54 118.98 155.688 117.853 153.796L117.339 152.945L110.964 156.133H110.964L110.964 156.133Z" fill="#144E84"/>
<path d="M15.1069 102.992C6.76359 102.992 0 109.832 0 118.27V285.001C0 288.219 0.992028 291.215 2.68317 293.68C4.22778 295.942 6.365 297.76 8.86173 298.905H8.88172C10.7859 299.787 12.8831 300.278 15.1069 300.278H128.911V291.067H15.7727C13.6555 298.932 12.2506 298.703 10.939 298.279C9.36774 297.78 7.91631 296.999 6.65129 295.989C6.63796 295.989 6.63796 295.983 6.63796 295.976C4.94685 294.656 3.58864 292.953 2.66318 290.98C1.81094 289.168 1.33159 287.142 1.33159 285.001V174.815C1.33159 135.892 32.5317 104.339 71.019 104.339H202.149V102.992H15.1069V102.992Z" fill="#3F3D56"/>
<path d="M73.1643 129.476C73.1576 130.916 73.151 133.751 71.9192 134.465L71.5997 134.31C71.3866 134.175 71.1203 133.967 70.834 133.731C69.9551 133.004 68.8366 132.001 68.071 131.866C68.031 130.654 68.0643 129.442 68.1841 128.237C68.2174 127.947 68.2507 127.658 68.2906 127.368C68.1775 127.563 68.071 127.759 67.9644 127.961C67.3319 129.159 66.8126 130.425 66.4331 131.724C65.1681 131.738 63.477 131.563 62.7912 132.633C61.7991 134.189 63.2173 137.502 60.8005 138.936C60.2878 139.239 59.602 139.461 58.6899 139.562C59.6486 139.717 60.8671 140.188 61.4796 141.427C62.7446 143.986 63.8232 146.948 63.2506 149.676C63.1641 150.08 63.0442 150.477 62.8844 150.867C61.9124 153.237 59.662 154.759 58.0108 156.712C57.9775 156.745 57.9509 156.779 57.9243 156.813C56.6526 158.348 56.2264 159.607 56.3596 160.799C56.5993 162.987 58.7099 164.94 60.887 167.876C61.6926 168.966 59.2891 174.629 59.9749 175.801C60.674 176.972 61.0468 178.454 60.4942 179.706C59.9016 181.039 58.5701 181.632 57.092 181.861C52.8708 178.932 49.2423 175.202 47.6111 170.805C46.1996 167.007 46.2728 162.725 48.7362 158.025C46.3727 162.159 45.4805 167.128 46.2528 171.842C46.2728 172.01 46.2995 172.172 46.3327 172.333C46.4526 172.966 46.6523 173.538 46.9186 174.077C48.1104 176.481 50.5872 178.07 52.4114 180.285C51.6458 181.066 50.3941 182.258 49.1757 183.356C48.137 184.298 47.1117 185.16 46.4393 185.638C45.9865 185.214 45.5138 184.17 45.0677 182.81C44.888 182.265 44.7082 181.666 44.5417 181.039C43.4964 177.248 42.6442 172.36 42.4245 170.859C41.8187 172.01 41.6455 175.262 41.7321 178.609C41.7454 179.1 41.7654 179.592 41.7853 180.076C41.9784 184.292 36.8185 186.365 34.1021 183.167C33.5428 182.5 32.9702 181.753 32.3843 180.911C32.3111 177.693 32.7638 174.461 33.7625 171.411C33.7892 171.323 33.8025 171.283 33.8025 171.269C33.6693 171.465 32.2711 174.979 31.1726 177.686C30.6067 179.073 30.1206 180.245 29.9142 180.656C30.1206 179.41 30.5134 177.875 30.9262 176.373C31.865 173 32.9236 169.828 32.2645 170.704C31.592 171.599 30.9862 172.555 30.4668 173.552C29.4282 175.511 28.7025 177.646 28.3363 179.841C28.303 180.036 28.2697 180.231 28.2498 180.433C27.6439 180.278 27.058 180.063 26.4987 179.78C24.7344 178.858 23.7823 176.925 23.6824 174.912C23.5226 171.761 24.9008 168.906 27.7371 169.35C28.8157 169.519 29.2684 168.872 29.3284 167.815C29.4748 165.627 27.9768 161.668 27.1046 159.54C26.7317 158.631 26.3456 157.688 26.0127 156.739C27.8569 154.362 28.8357 151.292 28.6226 148.275C27.9901 150.524 26.8649 152.625 25.3535 154.396C25.0273 152.807 25.0007 151.217 25.5799 149.702C27.5174 144.666 31.652 146.8 34.5748 142.276C37.9904 136.99 36.985 134.229 38.9691 128.237C39.8213 125.651 41.8386 123.483 44.342 122.459C46.8454 121.443 50.4141 114.972 59.875 122.076C60.0282 121.934 60.1813 121.8 60.3411 121.678C63.0242 119.631 66.3266 120.938 69.862 121.402C73.6037 121.894 72.3653 121.173 74.3827 124.399C75.1417 125.617 73.1776 128.035 73.1643 129.476V129.476L73.1643 129.476Z" fill="#2F2E41"/>
<path d="M154.225 82.4998C154.225 82.4953 154.223 82.4931 154.218 82.4931C153.479 81.6717 152.494 81.0791 151.382 80.83H151.375C150.989 80.7425 150.596 80.6953 150.184 80.6953H115.902C112.872 80.6953 110.402 83.1934 110.402 86.257V120.927C110.402 123.991 112.872 126.482 115.902 126.482H150.184C153.213 126.482 155.676 123.991 155.676 120.927V86.257C155.676 84.8094 155.13 83.4896 154.225 82.4998ZM155.031 120.927C155.031 123.634 152.86 125.829 150.184 125.829H115.902C113.225 125.829 111.055 123.634 111.055 120.927V103.447C111.055 103.292 111.055 103.144 111.061 102.989C111.081 102.006 111.161 101.037 111.308 100.081C111.328 99.9189 111.361 99.7641 111.388 99.6025C112.113 95.4076 114.011 91.61 116.727 88.5935L116.761 88.5598C120.755 84.1293 126.508 81.3485 132.9 81.3485H150.184C152.86 81.3485 155.031 83.5502 155.031 86.257V120.927Z" fill="#E6E6E6"/>
<path d="M111.011 103.59C111.011 91.2844 121.91 80.5205 133.931 78.615C149.146 76.203 163.135 84.3774 161.122 98.2756C159.358 110.451 138.694 133.497 133.042 122.6C126.574 110.131 111.011 115.895 111.011 103.59H111.011H111.011Z" fill="#144E84"/>
<path d="M139.544 93.8281H128.479C128.199 93.8281 127.973 94.0571 127.973 94.3399C127.973 94.6226 128.199 94.8516 128.479 94.8516H139.544C139.824 94.8516 140.05 94.6226 140.05 94.3399C140.05 94.0571 139.824 93.8281 139.544 93.8281Z" fill="white"/>
<path d="M139.544 104.742H128.479C128.199 104.742 127.973 104.971 127.973 105.247C127.973 105.53 128.199 105.766 128.479 105.766H139.544C139.824 105.766 140.05 105.53 140.05 105.247C140.05 104.971 139.824 104.742 139.544 104.742Z" fill="white"/>
<path d="M145.483 99.2891H122.54C122.261 99.2891 122.034 99.518 122.034 99.8008C122.034 100.084 122.261 100.313 122.54 100.313H145.483C145.763 100.313 145.989 100.084 145.989 99.8008C145.989 99.518 145.763 99.2891 145.483 99.2891Z" fill="white"/>
<path d="M33.8765 29.0312C33.1421 29.0312 32.5449 29.6352 32.5449 30.3779V51.2512C32.5449 51.9939 33.1421 52.5979 33.8765 52.5979C34.6109 52.5979 35.2081 51.9939 35.2081 51.2512V30.3779C35.2081 29.6352 34.6109 29.0312 33.8765 29.0312Z" fill="#3F3D56"/>
<path d="M46.9269 49.149C51.5097 49.149 55.2249 45.4709 55.2249 40.9339C55.2249 36.3968 51.5097 32.7188 46.9269 32.7188C42.344 32.7188 38.6289 36.3968 38.6289 40.9339C38.6289 45.4709 42.344 49.149 46.9269 49.149Z" fill="#144E84"/>
<path d="M113.449 38.1209H68.7839C67.2516 38.1209 66.0049 36.8601 66.0049 35.3104C66.0049 33.7608 67.2516 32.5 68.7839 32.5H113.449C114.981 32.5 116.228 33.7608 116.228 35.3104C116.228 36.8601 114.981 38.1209 113.449 38.1209Z" fill="#F2F2F2"/>
<path d="M148.305 47.6365H68.7839C67.2516 47.6365 66.0049 46.3757 66.0049 44.8261C66.0049 43.2764 67.2516 42.0156 68.7839 42.0156H148.305C149.838 42.0156 151.084 43.2764 151.084 44.8261C151.084 46.3757 149.838 47.6365 148.305 47.6365Z" fill="#F2F2F2"/>
<path d="M144.21 282.43C143.476 282.43 142.879 283.034 142.879 283.776V304.65C142.879 305.392 143.476 305.996 144.21 305.996C144.945 305.996 145.542 305.392 145.542 304.65V283.776C145.542 283.034 144.945 282.43 144.21 282.43Z" fill="#3F3D56"/>
<path d="M157.261 302.547C161.844 302.547 165.559 298.869 165.559 294.332C165.559 289.795 161.844 286.117 157.261 286.117C152.678 286.117 148.963 289.795 148.963 294.332C148.963 298.869 152.678 302.547 157.261 302.547Z" fill="#144E84"/>
<path d="M223.783 291.519H179.118C177.586 291.519 176.339 290.258 176.339 288.709C176.339 287.159 177.586 285.898 179.118 285.898H223.783C225.315 285.898 226.562 287.159 226.562 288.709C226.562 290.258 225.315 291.519 223.783 291.519Z" fill="#F2F2F2"/>
<path d="M258.639 301.035H179.118C177.586 301.035 176.339 299.774 176.339 298.224C176.339 296.675 177.586 295.414 179.118 295.414H258.639C260.172 295.414 261.418 296.675 261.418 298.224C261.418 299.774 260.172 301.035 258.639 301.035Z" fill="#F2F2F2"/>
<path d="M67.238 115.844C68.7928 115.844 70.0532 114.541 70.0532 112.934C70.0532 111.327 68.7928 110.023 67.238 110.023C65.6833 110.023 64.4229 111.327 64.4229 112.934C64.4229 114.541 65.6833 115.844 67.238 115.844Z" fill="#3F3D56"/>
<path d="M76.9636 115.844C78.5184 115.844 79.7788 114.541 79.7788 112.934C79.7788 111.327 78.5184 110.023 76.9636 110.023C75.4088 110.023 74.1484 111.327 74.1484 112.934C74.1484 114.541 75.4088 115.844 76.9636 115.844Z" fill="#3F3D56"/>
<path d="M86.6882 115.844C88.243 115.844 89.5034 114.541 89.5034 112.934C89.5034 111.327 88.243 110.023 86.6882 110.023C85.1334 110.023 83.873 111.327 83.873 112.934C83.873 114.541 85.1334 115.844 86.6882 115.844Z" fill="#3F3D56"/>
<path d="M262.577 58.4148C264.132 58.4148 265.392 57.1117 265.392 55.5043C265.392 53.8968 264.132 52.5938 262.577 52.5938C261.022 52.5938 259.762 53.8968 259.762 55.5043C259.762 57.1117 261.022 58.4148 262.577 58.4148Z" fill="#3F3D56"/>
<path d="M272.302 58.4148C273.857 58.4148 275.118 57.1117 275.118 55.5043C275.118 53.8968 273.857 52.5938 272.302 52.5938C270.748 52.5938 269.487 53.8968 269.487 55.5043C269.487 57.1117 270.748 58.4148 272.302 58.4148Z" fill="#3F3D56"/>
<path d="M282.027 58.4148C283.582 58.4148 284.842 57.1117 284.842 55.5043C284.842 53.8968 283.582 52.5938 282.027 52.5938C280.472 52.5938 279.212 53.8968 279.212 55.5043C279.212 57.1117 280.472 58.4148 282.027 58.4148Z" fill="#3F3D56"/>
<path d="M177.401 173.422C177.289 173.807 177.692 174.131 178.037 173.933C180.445 172.557 183.389 171.215 186.014 170.491C186.434 170.375 186.448 169.78 186.035 169.639L182.556 168.458L195.842 151.539L194.937 150.812L181.651 167.731L179.725 164.571C179.496 164.196 178.926 164.344 178.909 164.784C178.806 167.534 178.18 170.738 177.401 173.422Z" fill="#3F3D56"/>
<path d="M196.268 206.718C196.631 206.88 197 206.517 196.851 206.145C195.809 203.554 194.87 200.429 194.495 197.704C194.435 197.268 193.853 197.178 193.663 197.574L192.059 200.912L177.167 185.422L176.339 186.236L191.231 201.727L187.885 203.255C187.488 203.436 187.56 204.027 187.99 204.1C190.673 204.556 193.735 205.593 196.268 206.718V206.718Z" fill="#3F3D56"/>
</g>
<defs>
<clipPath id="clip0_862_21053">
<rect width="369" height="306" fill="white"/>
</clipPath>
</defs>
</svg>
