<svg width="417" height="306" viewBox="0 0 417 306" fill="none" xmlns="http://www.w3.org/2000/svg">
<rect width="417" height="306" rx="8" fill="white"/>
<g clip-path="url(#clip0_861_20481)">
<path d="M24.6469 254.701L11.8625 243.849C13.3245 235.148 16.8817 226.938 22.2251 219.93C22.6548 235.608 38.6762 246.109 44.1894 260.786C45.874 265.377 46.507 270.289 46.0416 275.159C45.5762 280.028 44.0243 284.731 41.501 288.917L40.2148 300.762C33.233 297.112 27.1229 291.988 22.3055 285.741C17.4882 279.495 14.0781 272.276 12.3102 264.58C11.361 260.253 10.9588 255.823 11.1132 251.396C17.6589 253.394 24.6469 254.701 24.6469 254.701Z" fill="#F2F2F2"/>
<path d="M100.424 229.122L50.9229 226.209L57.7083 178.078L101.329 225.237L100.424 229.122Z" fill="#F2F2F2"/>
<path d="M94.1232 278.225L43.7168 274.822L50.4378 231.07L94.3505 274.83L94.1232 278.225Z" fill="#F2F2F2"/>
<path d="M375.712 75.19V30.7314C375.712 27.3523 375.048 24.0063 373.759 20.8844C372.47 17.7625 370.581 14.9259 368.199 12.5366C365.816 10.1472 362.989 8.25181 359.876 6.95869C356.764 5.66556 353.428 5 350.06 5H256.157C252.789 5 249.453 5.66556 246.341 6.95869C243.228 8.25181 240.4 10.1472 238.018 12.5366C235.636 14.9259 233.747 17.7625 232.458 20.8844C231.168 24.0063 230.505 27.3523 230.505 30.7314V274.635C230.505 281.459 233.208 288.004 238.018 292.83C242.829 297.655 249.354 300.366 256.157 300.366H350.06C356.863 300.366 363.388 297.655 368.199 292.83C373.009 288.004 375.712 281.459 375.712 274.635V106.836C376.141 106.836 376.552 106.665 376.856 106.361C377.159 106.057 377.33 105.644 377.33 105.214V76.8129C377.33 76.3825 377.159 75.9697 376.856 75.6654C376.553 75.361 376.141 75.19 375.712 75.19Z" fill="#3F3D56"/>
<path d="M370.252 30.9092V274.46C370.253 279.519 368.263 284.374 364.716 287.97C361.169 291.566 356.35 293.613 351.307 293.665C351.237 293.673 351.167 293.676 351.097 293.674H256.738C251.658 293.674 246.786 291.649 243.194 288.046C239.602 284.443 237.583 279.556 237.583 274.46V30.9092C237.583 25.8135 239.602 20.9267 243.194 17.3235C246.786 13.7203 251.658 11.6958 256.738 11.6953H268.189C267.626 13.082 267.411 14.5862 267.564 16.0756C267.717 17.5649 268.232 18.9938 269.065 20.2365C269.897 21.4792 271.022 22.4976 272.339 23.2021C273.656 23.9067 275.125 24.2757 276.618 24.2768H330.414C331.905 24.2726 333.373 23.9015 334.688 23.196C336.003 22.4904 337.125 21.472 337.956 20.23C338.787 18.988 339.302 17.5603 339.455 16.0723C339.608 14.5843 339.395 13.0814 338.834 11.6953H351.097C356.177 11.6958 361.049 13.7202 364.641 17.3234C368.233 20.9266 370.252 25.8135 370.252 30.9092Z" fill="white"/>
<path d="M349.478 287.727C349.478 290.25 349.399 292.752 349.24 295.233C349.171 295.242 349.102 295.245 349.032 295.243H254.675C250.406 295.243 246.259 293.813 242.893 291.179C239.526 288.546 237.133 284.86 236.092 280.707C235.91 279.982 235.772 279.246 235.68 278.504C235.573 277.684 235.52 276.857 235.521 276.03V167.492C242.781 167.852 249.994 168.874 257.069 170.545C257.762 170.706 258.451 170.876 259.134 171.051C259.178 171.061 259.221 171.075 259.265 171.085C259.958 171.26 260.646 171.445 261.33 171.634C275.917 175.653 289.609 182.416 301.679 191.562C302.372 192.083 303.06 192.617 303.744 193.157L303.875 193.259C305.018 194.163 306.144 195.09 307.253 196.04C307.5 196.249 307.747 196.463 307.989 196.682C308.586 197.197 309.182 197.722 309.763 198.252C322.634 209.873 332.851 224.145 339.716 240.092C339.944 240.612 340.162 241.137 340.38 241.662C340.468 241.876 340.555 242.09 340.642 242.304C340.725 242.499 340.802 242.693 340.88 242.887C346.578 257.145 349.496 272.366 349.478 287.727Z" fill="#3F3D56"/>
<path d="M231.023 100.064C230.445 100.064 229.89 99.8326 229.48 99.422C229.071 99.0114 228.841 98.4546 228.84 97.8739V82.9794C228.84 82.3985 229.07 81.8414 229.479 81.4306C229.889 81.0198 230.444 80.7891 231.023 80.7891C231.603 80.7891 232.158 81.0198 232.568 81.4306C232.977 81.8414 233.207 82.3985 233.207 82.9794V97.8739C233.206 98.4546 232.976 99.0114 232.567 99.422C232.157 99.8326 231.602 100.064 231.023 100.064Z" fill="#3F3D56"/>
<path d="M230.587 71.1502C230.008 71.1495 229.453 70.9186 229.044 70.5079C228.634 70.0973 228.404 69.5406 228.403 68.9598V54.0654C228.403 53.4844 228.633 52.9273 229.043 52.5165C229.452 52.1058 230.008 51.875 230.587 51.875C231.166 51.875 231.722 52.1058 232.131 52.5165C232.541 52.9273 232.771 53.4844 232.771 54.0654V68.9598C232.77 69.5406 232.54 70.0973 232.13 70.5079C231.721 70.9186 231.166 71.1495 230.587 71.1502Z" fill="#3F3D56"/>
<path d="M288.672 14.1982C288.673 13.6175 288.903 13.0607 289.312 12.6501C289.722 12.2395 290.277 12.0085 290.855 12.0078H305.704C305.991 12.0074 306.276 12.0637 306.541 12.1736C306.806 12.2835 307.047 12.4448 307.25 12.6482C307.454 12.8516 307.615 13.0933 307.725 13.3592C307.835 13.6252 307.891 13.9103 307.891 14.1982C307.891 14.4861 307.835 14.7712 307.725 15.0372C307.615 15.3031 307.454 15.5447 307.25 15.7482C307.047 15.9516 306.806 16.1129 306.541 16.2228C306.276 16.3326 305.991 16.389 305.704 16.3885H290.855C290.277 16.3879 289.722 16.1569 289.312 15.7463C288.903 15.3356 288.673 14.7789 288.672 14.1982Z" fill="white"/>
<path d="M231.023 125.471C230.445 125.47 229.89 125.239 229.48 124.828C229.071 124.418 228.841 123.861 228.84 123.28V108.386C228.84 107.805 229.07 107.248 229.479 106.837C229.889 106.426 230.444 106.195 231.023 106.195C231.603 106.195 232.158 106.426 232.568 106.837C232.977 107.248 233.207 107.805 233.207 108.386V123.28C233.206 123.861 232.976 124.418 232.567 124.828C232.157 125.239 231.602 125.47 231.023 125.471Z" fill="#3F3D56"/>
<path d="M314.002 16.3885C315.208 16.3885 316.186 15.4079 316.186 14.1982C316.186 12.9885 315.208 12.0078 314.002 12.0078C312.796 12.0078 311.818 12.9885 311.818 14.1982C311.818 15.4079 312.796 16.3885 314.002 16.3885Z" fill="white"/>
<path opacity="0.2" d="M305.939 276.938C305.938 272.39 306.831 267.886 308.566 263.685C310.3 259.483 312.843 255.665 316.049 252.449C319.255 249.234 323.061 246.683 327.25 244.943C331.439 243.203 335.929 242.307 340.463 242.308H340.642C340.555 242.094 340.467 241.88 340.38 241.666C340.162 241.141 339.944 240.616 339.716 240.096H305.939V196.686H307.989C307.747 196.467 307.5 196.253 307.252 196.044C306.143 195.096 305.016 194.169 303.874 193.263L303.743 193.161V194.474H261.329V171.638C260.646 171.448 259.958 171.264 259.265 171.089C259.221 171.079 259.177 171.064 259.134 171.055V194.474H237.585V196.686H259.134V240.096H237.585V242.308H259.134V276.938H237.745C237.837 277.68 237.975 278.415 238.157 279.14H259.134V293.677H261.329V279.14H303.743V293.677H305.939V279.14H342.944V276.938H305.939ZM303.743 276.938H261.329V242.308H303.743V276.938ZM303.743 240.096H261.329V239.23C261.329 227.947 265.798 217.125 273.752 209.147C281.706 201.168 292.494 196.686 303.743 196.686V240.096Z" fill="black"/>
<path d="M115.67 118.173L92.1293 299.816L91.979 300.973H91L91.1502 299.816L114.71 118.047L115.67 118.173Z" fill="#E5E5E5"/>
<path d="M66.6588 118.402L40.6995 299.836L40.5347 300.993H39.5557L39.7205 299.836L65.6991 118.266L66.6588 118.402Z" fill="#E5E5E5"/>
<path d="M152.272 300.953L151.264 300.958L150.954 299.801L100.736 112.698L101.672 112.445L151.957 299.801L152.272 300.953Z" fill="#3F3D56"/>
<path d="M150.145 112.438L149.213 112.703L202.133 299.952L203.065 299.687L150.145 112.438Z" fill="#3F3D56"/>
<path d="M192.964 265.597L144.978 275.555L145.174 276.507L193.16 266.549L192.964 265.597Z" fill="#3F3D56"/>
<path d="M184.644 236.386L136.658 246.344L136.855 247.296L184.841 237.338L184.644 236.386Z" fill="#3F3D56"/>
<path d="M176.33 207.179L128.679 216.43L128.863 217.384L176.514 208.133L176.33 207.179Z" fill="#3F3D56"/>
<path d="M168.01 177.971L121.396 187.211L121.584 188.165L168.198 178.925L168.01 177.971Z" fill="#3F3D56"/>
<path d="M65.8401 118.368C65.1111 113.591 66.3037 108.72 69.1555 104.825C72.0072 100.93 76.2846 98.3317 81.0465 97.6005C85.8084 96.8693 90.6648 98.0656 94.5474 100.926C98.4301 103.787 101.021 108.077 101.75 112.854L100.792 113.001C100.451 110.761 99.6738 108.611 98.5044 106.672C97.3349 104.734 95.7961 103.045 93.976 101.704C92.1558 100.362 90.09 99.3931 87.8964 98.8525C85.7029 98.3118 83.4247 98.21 81.1919 98.5528C78.9591 98.8957 76.8155 99.6764 74.8837 100.85C72.9518 102.025 71.2694 103.569 69.9328 105.395C68.5961 107.222 67.6313 109.294 67.0934 111.495C66.5555 113.696 66.4552 115.981 66.7981 118.22L65.8401 118.368Z" fill="#3F3D56"/>
<path d="M114.385 118.586C113.993 116.225 114.068 113.81 114.606 111.479C115.144 109.147 116.134 106.945 117.521 104.997C118.908 103.05 120.663 101.395 122.687 100.129C124.712 98.862 126.965 98.0078 129.318 97.6147C131.672 97.2216 134.079 97.2974 136.403 97.8378C138.728 98.3782 140.923 99.3726 142.864 100.764C144.805 102.156 146.454 103.917 147.716 105.948C148.978 107.979 149.829 110.239 150.22 112.6L149.264 112.76C148.513 108.249 146.007 104.223 142.297 101.565C138.587 98.9077 133.976 97.8368 129.48 98.588C124.983 99.3391 120.967 101.851 118.316 105.571C115.665 109.291 114.595 113.915 115.341 118.426L114.385 118.586Z" fill="#3F3D56"/>
<path d="M164.47 158.262L155.155 180.992L185.505 180.772L182.419 158.211L164.47 158.262Z" fill="#FFB6B6"/>
<path d="M171.881 262.612L176.383 263.271L181.057 246.167L174.413 245.195L171.881 262.612Z" fill="#FFB6B6"/>
<path d="M171.088 260.227L178.266 260.842L177.822 263.9L183.906 269.577C184.206 269.857 184.409 270.227 184.486 270.631C184.562 271.036 184.508 271.454 184.33 271.825C184.153 272.196 183.862 272.501 183.5 272.695C183.137 272.888 182.723 272.96 182.317 272.901L173.845 271.661L172.825 268.422L171.814 271.364L168.62 270.897L171.088 260.227Z" fill="#2F2E41"/>
<path d="M119.856 249.981L123.448 252.782L135.928 240.22L130.628 236.086L119.856 249.981Z" fill="#FFB6B6"/>
<path d="M120.344 247.508L126.285 251.596L124.393 254.036L126.892 261.985C127.015 262.378 127.011 262.8 126.878 263.189C126.746 263.579 126.492 263.916 126.155 264.151C125.818 264.386 125.415 264.507 125.005 264.496C124.595 264.485 124.199 264.342 123.875 264.09L117.116 258.818L117.822 255.496L115.497 257.554L112.948 255.566L120.344 247.508Z" fill="#2F2E41"/>
<path d="M156.869 175.605L153.88 179.577L145.924 214.299L127.84 238.798L133.919 244.653L156.984 222.207L168.304 198.225L174.031 220.376L172.577 250.033L182.27 249.546C184.898 215.13 189.007 179.718 184.167 169.773C180.976 172.565 177.251 174.675 173.22 175.973C169.188 177.272 164.935 177.731 160.721 177.324L156.869 175.605Z" fill="#2F2E41"/>
<path d="M172.868 121.51L180.515 129.898C182.194 131.739 183.258 134.059 183.559 136.535C183.696 137.66 183.673 138.798 183.491 139.916L181.842 152.031L184.75 170.506C184.75 170.506 180.606 173.042 172.634 178.285C169.38 180.424 154.197 180.39 154.216 179.743C154.302 176.747 156.973 168.674 157.609 158.838C158.393 146.697 157.364 132.208 160.032 125.292C163.288 116.849 172.868 121.51 172.868 121.51Z" fill="#144E84"/>
<path d="M146.625 175.259C146.959 174.772 147.182 174.218 147.279 173.635C147.376 173.052 147.345 172.455 147.187 171.886C147.029 171.317 146.748 170.789 146.365 170.34C145.982 169.892 145.506 169.533 144.969 169.289L145.268 160.058L139.72 158.508L139.481 171.549C139.132 172.48 139.135 173.507 139.491 174.436C139.847 175.364 140.53 176.13 141.41 176.587C142.291 177.044 143.308 177.162 144.269 176.917C145.231 176.672 146.069 176.082 146.625 175.259V175.259Z" fill="#FFB6B6"/>
<path d="M139.225 138C139.389 137.57 139.64 137.179 139.962 136.851C140.284 136.523 140.671 136.266 141.097 136.096C144.05 134.852 156.816 124.388 157.286 124.585L161.339 122.578C161.488 122.58 165.48 122.675 167.439 124.902C167.846 125.372 168.147 125.926 168.321 126.523C168.495 127.121 168.537 127.75 168.446 128.366C167.873 133.671 149.776 145.587 147.858 145.507L145.826 160.57L146.617 166.324L139.216 166.535L136.935 158.062C136.608 157.444 136.195 145.74 139.225 138Z" fill="#144E84"/>
<path d="M168.896 129.954C169.495 125.836 167.189 122.089 163.745 121.585C160.302 121.081 157.025 124.011 156.426 128.129C155.827 132.247 158.133 135.994 161.577 136.498C165.02 137.002 168.297 134.072 168.896 129.954Z" fill="#144E84"/>
<path d="M113.265 156.88L113.077 155.926L158.093 145.711V146.683L113.265 156.88Z" fill="#3F3D56"/>
<path d="M312.55 88.1719H295.285C291.561 88.1719 288.542 91.2003 288.542 94.936V94.936C288.542 98.6717 291.561 101.7 295.285 101.7H312.55C316.274 101.7 319.294 98.6717 319.294 94.936C319.294 91.2003 316.274 88.1719 312.55 88.1719Z" fill="#E6E6E6"/>
<path d="M344.582 115.227H263.255C259.531 115.227 256.512 118.255 256.512 121.991V121.991C256.512 125.726 259.531 128.755 263.255 128.755H344.582C348.306 128.755 351.325 125.726 351.325 121.991C351.325 118.255 348.306 115.227 344.582 115.227Z" fill="#E6E6E6"/>
<path d="M309.684 135.477H228.358C224.633 135.477 221.614 138.505 221.614 142.241V142.241C221.614 145.976 224.633 149.005 228.358 149.005H309.684C313.408 149.005 316.427 145.976 316.427 142.241C316.427 138.505 313.408 135.477 309.684 135.477Z" fill="#144E84"/>
<path d="M375 300.442C375 300.501 374.987 300.558 374.961 300.612C374.935 300.666 374.897 300.714 374.848 300.756C374.8 300.797 374.743 300.829 374.68 300.851C374.617 300.874 374.549 300.885 374.481 300.885L116.08 300.963L115.173 300.967L61.8439 300.981H60.9632L15.5689 300.996H14.6882L0.518818 301C0.381219 301 0.249254 300.953 0.151957 300.87C0.0546602 300.787 0 300.675 0 300.558C0 300.44 0.0546602 300.328 0.151957 300.245C0.249254 300.162 0.381219 300.115 0.518818 300.115L14.8364 300.112H15.7171L61.0983 300.097H61.979L114.894 300.082H115.796L160.886 300.067H161.478L374.481 300C374.549 300 374.617 300.011 374.68 300.033C374.743 300.056 374.8 300.088 374.848 300.129C374.897 300.17 374.935 300.219 374.961 300.273C374.987 300.327 375 300.384 375 300.442Z" fill="#CACACA"/>
<path d="M180.96 113.133C179.513 115.06 177.455 116.437 175.124 117.034C172.794 117.632 170.329 117.416 168.137 116.421C165.946 115.427 164.157 113.713 163.066 111.562C161.975 109.411 161.646 106.952 162.135 104.589C162.623 102.226 163.899 100.101 165.753 98.5624C167.606 97.0242 169.927 96.165 172.332 96.1264C174.738 96.0877 177.084 96.872 178.986 98.35C180.888 99.828 182.231 101.912 182.795 104.258C182.825 104.385 182.851 104.511 182.876 104.643C183.173 106.113 183.157 107.63 182.826 109.094C182.496 110.557 181.86 111.934 180.96 113.133Z" fill="#FFB6B6"/>
<path d="M183.715 104.759C183.448 103.428 183.549 104.116 183.277 102.789C183.333 103.431 183.193 104.076 182.876 104.637L170.401 102.811L171.459 95.5374C175.325 94.6193 179.078 93.9057 180.845 96.9107C182.768 97.1922 184.501 98.2285 185.663 99.7916C186.824 101.355 187.319 103.317 187.039 105.246L183.715 104.759Z" fill="#2F2E41"/>
<path d="M176.353 124.335C176.363 124.198 176.369 124.057 176.369 123.919C176.345 122.907 176.214 121.899 175.979 120.914C175.766 119.847 175.55 118.773 175.333 117.705C175.535 119.616 175.109 121.541 174.12 123.187C172.254 121.234 173.487 118.406 170.735 118.004C164.116 117.035 158.73 109.915 159.697 103.271C160.662 96.6326 164.223 92.0833 170.842 93.0518C177.465 94.021 182.394 97.8474 181.558 104.505C173.125 105.236 177.99 123.886 176.353 124.335Z" fill="#2F2E41"/>
<path d="M161.791 99.1107C164.232 99.1107 166.211 97.1254 166.211 94.6765C166.211 92.2275 164.232 90.2422 161.791 90.2422C159.349 90.2422 157.37 92.2275 157.37 94.6765C157.37 97.1254 159.349 99.1107 161.791 99.1107Z" fill="#2F2E41"/>
<path d="M167.034 91.0161C166.622 90.1213 165.996 89.3423 165.212 88.748C164.428 88.1538 163.51 87.7627 162.539 87.6094C163.223 87.9196 163.82 88.3937 164.278 88.99C164.737 89.5863 165.041 90.2865 165.166 91.0289C165.291 91.7713 165.232 92.533 164.994 93.2471C164.756 93.9611 164.347 94.6055 163.802 95.1234L164.696 94.3529C164.94 94.5611 165.243 94.6857 165.562 94.7085C165.882 94.7314 166.2 94.6514 166.471 94.48C166.736 94.3007 166.957 94.0635 167.118 93.7861C167.279 93.5086 167.375 93.1983 167.399 92.8783C167.442 92.2363 167.316 91.5943 167.034 91.0161Z" fill="#2F2E41"/>
<path d="M223.308 137.92C222.783 137.653 222.205 137.505 221.617 137.486C221.028 137.468 220.442 137.578 219.901 137.811C219.359 138.044 218.875 138.393 218.483 138.833C218.091 139.274 217.799 139.795 217.63 140.361L208.47 141.292L207.676 147.014L220.593 145.517C221.56 145.74 222.574 145.6 223.444 145.123C224.314 144.645 224.98 143.865 225.314 142.928C225.649 141.992 225.63 140.965 225.26 140.042C224.89 139.119 224.196 138.364 223.308 137.92Z" fill="#FFB6B6"/>
<path d="M187.476 150.231C187.029 150.125 186.609 149.928 186.242 149.651C185.876 149.374 185.57 149.024 185.345 148.622C183.723 145.853 171.686 134.554 171.818 134.06L169.296 130.298C169.278 130.149 168.84 126.167 170.781 123.924C171.191 123.457 171.698 123.084 172.265 122.832C172.833 122.579 173.448 122.453 174.069 122.462C179.387 122.326 192.757 139.209 192.933 141.126L208.898 140.665L214.478 139.114L215.671 146.443L207.603 149.838C207.036 150.245 195.527 152.213 187.476 150.231Z" fill="#144E84"/>
</g>
<defs>
<clipPath id="clip0_861_20481">
<rect width="417" height="296" fill="white" transform="translate(0 5)"/>
</clipPath>
</defs>
</svg>
