<svg width="53" height="53" viewBox="0 0 53 53" fill="none" xmlns="http://www.w3.org/2000/svg">
<rect x="0.5" y="0.5" width="52" height="52" rx="7.5" fill="white"/>
<g clip-path="url(#clip0_615_8826)">
<path d="M30.5 29.2148C29.9933 29.2148 29.54 29.4148 29.1933 29.7281L24.44 26.9615C24.4733 26.8081 24.5 26.6548 24.5 26.4948C24.5 26.3348 24.4733 26.1815 24.44 26.0281L29.14 23.2881C29.5 23.6215 29.9733 23.8281 30.5 23.8281C31.6067 23.8281 32.5 22.9348 32.5 21.8281C32.5 20.7215 31.6067 19.8281 30.5 19.8281C29.3933 19.8281 28.5 20.7215 28.5 21.8281C28.5 21.9881 28.5267 22.1415 28.56 22.2948L23.86 25.0348C23.5 24.7015 23.0267 24.4948 22.5 24.4948C21.3933 24.4948 20.5 25.3881 20.5 26.4948C20.5 27.6015 21.3933 28.4948 22.5 28.4948C23.0267 28.4948 23.5 28.2881 23.86 27.9548L28.6067 30.7281C28.5733 30.8681 28.5533 31.0148 28.5533 31.1615C28.5533 32.2348 29.4267 33.1081 30.5 33.1081C31.5733 33.1081 32.4467 32.2348 32.4467 31.1615C32.4467 30.0881 31.5733 29.2148 30.5 29.2148Z" fill="#3283CA"/>
</g>
<rect x="0.5" y="0.5" width="52" height="52" rx="7.5" stroke="#3283CA"/>
<defs>
<clipPath id="clip0_615_8826">
<rect width="16" height="16" fill="white" transform="translate(18.5 18.5)"/>
</clipPath>
</defs>
</svg>
