<svg width="40" height="40" viewBox="0 0 40 40" fill="none" xmlns="http://www.w3.org/2000/svg">
<path d="M20 40C31.0457 40 40 31.0457 40 20C40 8.95431 31.0457 0 20 0C8.95431 0 0 8.95431 0 20C0 31.0457 8.95431 40 20 40Z" fill="url(#paint0_linear_905_42030)"/>
<path d="M27.7156 28.0062C27.6102 28.1888 27.4587 28.3405 27.2762 28.4461C27.0938 28.5518 26.8868 28.6076 26.6759 28.6081C26.4598 28.609 26.2473 28.5524 26.0603 28.444C23.1813 26.9045 19.9363 26.1808 16.6759 26.351C15.0351 26.4014 13.4036 26.6168 11.8059 26.9939C11.6477 27.0524 11.479 27.0774 11.3106 27.0673C11.1422 27.0572 10.9777 27.0122 10.8276 26.9352C10.6775 26.8582 10.5451 26.7508 10.4387 26.6199C10.3323 26.489 10.2543 26.3374 10.2095 26.1747C10.1648 26.012 10.1544 25.8418 10.179 25.6749C10.2035 25.508 10.2625 25.348 10.3521 25.2051C10.4418 25.0622 10.5601 24.9394 10.6997 24.8447C10.8393 24.7499 10.997 24.6852 11.1629 24.6546C12.9261 24.2328 14.7273 23.9899 16.5391 23.9296C18.2717 23.8666 20.0058 23.9951 21.7101 24.3127C23.671 24.6611 25.5555 25.351 27.2778 26.351C27.4173 26.4289 27.5397 26.5341 27.6377 26.6603C27.7356 26.7865 27.8072 26.9312 27.848 27.0857C27.8889 27.2402 27.8982 27.4013 27.8754 27.5594C27.8527 27.7176 27.7983 27.8695 27.7156 28.0062Z" fill="white"/>
<path d="M29.9729 23.3281C29.8438 23.5435 29.6615 23.722 29.4435 23.8466C29.2255 23.9712 28.9791 24.0376 28.728 24.0395C28.4719 24.0403 28.2207 23.9692 28.003 23.8342C24.5965 22.0095 20.7534 21.1576 16.8949 21.3719C14.9483 21.414 13.0123 21.6709 11.122 22.138C10.7592 22.2395 10.3709 22.1928 10.0425 22.0081C9.71413 21.8234 9.47256 21.5158 9.37097 21.153C9.26939 20.7902 9.31609 20.4019 9.50081 20.0735C9.68552 19.7451 9.99311 19.5036 10.3559 19.402C12.437 18.8754 14.5709 18.5863 16.7171 18.5401C18.7699 18.4527 20.8261 18.5995 22.8457 18.9779C25.1689 19.3992 27.4034 20.2134 29.453 21.3856C29.774 21.5793 30.0075 21.8899 30.1044 22.2521C30.2013 22.6143 30.1542 22.9999 29.9729 23.3281Z" fill="white"/>
<path d="M31.3548 19.0665C31.0419 19.0641 30.7351 18.9792 30.4656 18.8203C21.5052 13.5809 9.94572 16.6999 9.7542 16.7273C9.31859 16.8095 8.868 16.7248 8.492 16.4899C8.11601 16.2551 7.84215 15.8874 7.72493 15.4598C7.6077 15.0323 7.65568 14.5763 7.85931 14.1826C8.06295 13.7888 8.40734 13.4861 8.82398 13.3347C11.3793 12.7126 13.9927 12.3596 16.6215 12.2813C19.142 12.1883 21.665 12.3717 24.1455 12.8285C26.9947 13.3407 29.7343 14.3403 32.2439 15.7834C32.5761 15.98 32.8346 16.2801 32.9798 16.6377C33.1251 16.9953 33.1491 17.3906 33.0482 17.7632C32.9473 18.1357 32.7271 18.4649 32.4212 18.7003C32.1153 18.9357 31.7407 19.0644 31.3548 19.0665Z" fill="white"/>
<defs>
<linearGradient id="paint0_linear_905_42030" x1="34.145" y1="5.85499" x2="5.85499" y2="34.145" gradientUnits="userSpaceOnUse">
<stop stop-color="#00D95F"/>
<stop offset="1" stop-color="#199250"/>
</linearGradient>
</defs>
</svg>
