<svg width="40" height="40" viewBox="0 0 40 40" fill="none" xmlns="http://www.w3.org/2000/svg">
<path fill-rule="evenodd" clip-rule="evenodd" d="M0 6.25C0 2.79822 2.79822 0 6.25 0H33.75C37.2018 0 40 2.79822 40 6.25V33.75C40 37.2018 37.2018 40 33.75 40H6.25C2.79822 40 0 37.2018 0 33.75V6.25Z" fill="white"/>
<path d="M20 28.75C24.8325 28.75 28.75 24.8325 28.75 20C28.75 15.1675 24.8325 11.25 20 11.25C15.1675 11.25 11.25 15.1675 11.25 20C11.25 24.8325 15.1675 28.75 20 28.75Z" fill="#144E84"/>
<path d="M23.3757 23.5015C23.3296 23.5814 23.2633 23.6477 23.1835 23.694C23.1036 23.7402 23.0131 23.7646 22.9208 23.7648C22.8263 23.7652 22.7333 23.7404 22.6515 23.693C21.3919 23.0195 19.9723 22.7029 18.5458 22.7773C17.828 22.7994 17.1142 22.8936 16.4152 23.0586C16.346 23.0842 16.2722 23.0952 16.1985 23.0907C16.1248 23.0863 16.0529 23.0666 15.9872 23.0329C15.9215 22.9992 15.8636 22.9523 15.8171 22.895C15.7705 22.8377 15.7364 22.7714 15.7168 22.7002C15.6972 22.629 15.6927 22.5546 15.7034 22.4815C15.7142 22.4085 15.74 22.3385 15.7792 22.276C15.8184 22.2135 15.8702 22.1598 15.9312 22.1183C15.9923 22.0769 16.0613 22.0486 16.1339 22.0352C16.9053 21.8506 17.6933 21.7443 18.486 21.718C19.244 21.6904 20.0027 21.7466 20.7483 21.8856C21.6062 22.038 22.4307 22.3398 23.1842 22.7773C23.2452 22.8114 23.2987 22.8574 23.3416 22.9127C23.3845 22.9679 23.4158 23.0312 23.4336 23.0988C23.4515 23.1663 23.4556 23.2368 23.4456 23.306C23.4357 23.3752 23.4119 23.4417 23.3757 23.5015Z" fill="white"/>
<path d="M24.363 21.4547C24.3066 21.5489 24.2268 21.6271 24.1314 21.6816C24.036 21.7361 23.9282 21.7651 23.8184 21.7659C23.7063 21.7663 23.5964 21.7352 23.5012 21.6761C22.0108 20.8778 20.3295 20.5051 18.6414 20.5989C17.7898 20.6173 16.9427 20.7297 16.1158 20.934C15.957 20.9785 15.7871 20.958 15.6435 20.8772C15.4998 20.7964 15.3941 20.6618 15.3497 20.5031C15.3052 20.3444 15.3257 20.1745 15.4065 20.0308C15.4873 19.8871 15.6219 19.7815 15.7806 19.737C16.6911 19.5067 17.6247 19.3802 18.5636 19.36C19.4617 19.3217 20.3613 19.386 21.2449 19.5515C22.2613 19.7358 23.2388 20.092 24.1356 20.6048C24.276 20.6896 24.3781 20.8255 24.4205 20.9839C24.463 21.1424 24.4423 21.3111 24.363 21.4547Z" fill="white"/>
<path d="M24.9676 19.5928C24.8307 19.5918 24.6965 19.5546 24.5786 19.4851C20.6584 17.1929 15.6011 18.5574 15.5173 18.5694C15.3268 18.6054 15.1296 18.5683 14.9651 18.4656C14.8006 18.3628 14.6808 18.2019 14.6295 18.0149C14.5782 17.8279 14.5992 17.6284 14.6883 17.4561C14.7774 17.2838 14.9281 17.1514 15.1104 17.0851C16.2283 16.813 17.3717 16.6585 18.5218 16.6243C19.6245 16.5836 20.7283 16.6639 21.8135 16.8637C23.0601 17.0878 24.2587 17.5251 25.3566 18.1564C25.5019 18.2425 25.615 18.3738 25.6785 18.5302C25.7421 18.6867 25.7526 18.8596 25.7085 19.0226C25.6643 19.1856 25.568 19.3296 25.4341 19.4326C25.3003 19.5356 25.1364 19.5919 24.9676 19.5928Z" fill="white"/>
</svg>
