<svg width="64" height="64" viewBox="0 0 64 64" fill="none" xmlns="http://www.w3.org/2000/svg">
<rect width="64" height="64" rx="8" fill="#3283CA"/>
<path fill-rule="evenodd" clip-rule="evenodd" d="M38.5 35C37.1193 35 36 36.1193 36 37.5C36 38.8807 37.1193 40 38.5 40C39.8807 40 41 38.8807 41 37.5C41 36.1193 39.8807 35 38.5 35ZM34 37.5C34 35.0147 36.0147 33 38.5 33C40.9853 33 43 35.0147 43 37.5C43 39.9853 40.9853 42 38.5 42C36.0147 42 34 39.9853 34 37.5Z" fill="white"/>
<path fill-rule="evenodd" clip-rule="evenodd" d="M22.5 39C21.1193 39 20 40.1193 20 41.5C20 42.8807 21.1193 44 22.5 44C23.8807 44 25 42.8807 25 41.5C25 40.1193 23.8807 39 22.5 39ZM18 41.5C18 39.0147 20.0147 37 22.5 37C24.9853 37 27 39.0147 27 41.5C27 43.9853 24.9853 46 22.5 46C20.0147 46 18 43.9853 18 41.5Z" fill="white"/>
<path fill-rule="evenodd" clip-rule="evenodd" d="M42.9704 25.7575C43.1043 26.2933 42.7786 26.8362 42.2428 26.9701L26.2428 30.9701C25.707 31.1041 25.164 30.7783 25.0301 30.2425C24.8961 29.7067 25.2219 29.1638 25.7577 29.0299L41.7577 25.0299C42.2935 24.8959 42.8364 25.2217 42.9704 25.7575Z" fill="white"/>
<path fill-rule="evenodd" clip-rule="evenodd" d="M42.6154 19.2118C42.8581 19.4013 43 19.6921 43 20V37.5C43 38.0523 42.5523 38.5 42 38.5C41.4477 38.5 41 38.0523 41 37.5V21.2808L27 24.7808V41.5C27 42.0523 26.5523 42.5 26 42.5C25.4477 42.5 25 42.0523 25 41.5V24C25 23.5411 25.3123 23.1412 25.7575 23.0299L41.7575 19.0299C42.0562 18.9552 42.3727 19.0223 42.6154 19.2118Z" fill="white"/>
</svg>
