<svg width="24" height="24" viewBox="0 0 24 24" fill="none" xmlns="http://www.w3.org/2000/svg">
<path d="M7.5 10L11.5 3L13 3.5L14 5V7.5L14.5 8H21L21.5 10L20 19L18.5 20L7.5 19.5V10Z" fill="#3283CA"/>
<path d="M20.0588 7.125H15V5.625C15 3.55687 13.3181 1.875 11.25 1.875C10.9659 1.875 10.7063 2.03531 10.5788 2.28938L7.03688 9.375H3C2.17313 9.375 1.5 10.0481 1.5 10.875V19.125C1.5 19.9519 2.17313 20.625 3 20.625H18.9319C20.0578 20.6194 21.0131 19.7738 21.1538 18.6553L22.2778 9.66187C22.2909 9.5625 22.2975 9.46125 22.2975 9.36C22.2947 8.12625 21.2897 7.125 20.0588 7.125ZM2.99906 10.875H6.75V19.125H3L2.99906 10.875ZM20.7891 9.46969L19.6641 18.4688C19.6172 18.8409 19.2984 19.1231 18.9272 19.125H8.25V10.3022L11.6916 3.41812C12.7219 3.62437 13.5 4.53469 13.5 5.625V7.875C13.5 8.28937 13.8356 8.625 14.25 8.625H20.0569C20.2538 8.625 20.4394 8.70188 20.5791 8.84063C20.7197 8.98031 20.7966 9.16594 20.7975 9.36375C20.7975 9.3975 20.7956 9.43031 20.79 9.46875L20.7891 9.46969Z" fill="#144E84"/>
<path d="M7 10.5H2.5V19.5H7V10.5Z" fill="#3283CA"/>
</svg>
