<svg width="36" height="26" viewBox="0 0 36 26" fill="none" xmlns="http://www.w3.org/2000/svg">
<path d="M33.5016 9.31875C34.6672 9.08594 35.5078 8.05781 35.5 6.875V3C35.5 1.62188 34.3782 0.5 33 0.5H3.00003C1.62191 0.5 0.500035 1.62188 0.500035 3V6.86875C0.493785 8.05937 1.33285 9.0875 2.49847 9.31875C3.94847 9.62969 5.08285 10.7672 5.39066 12.2188C5.82191 14.2469 4.52347 16.2469 2.49847 16.6828C1.33441 16.9141 0.495347 17.9391 0.500035 19.1266V23C0.500035 24.3781 1.62191 25.5 3.00003 25.5H33C34.3782 25.5 35.5 24.3781 35.5 23V19.1328C35.5063 17.9422 34.6672 16.9141 33.5016 16.6828C32.0516 16.3719 30.9172 15.2344 30.6094 13.7828C30.4 12.7984 30.5875 11.7922 31.136 10.9484C31.6828 10.1078 32.5219 9.52969 33.5032 9.31875H33.5016ZM2.99847 19.125H1.75003L3.00003 19.1188C3.00003 19.1188 3.00003 19.1234 2.99847 19.125ZM3.00003 19.1313C3.00003 19.1313 3.00628 19.1313 3.00941 19.1297C6.3891 18.4125 8.55472 15.0781 7.83753 11.7C7.32347 9.28125 5.42816 7.38594 3.00941 6.87187H3.00003V3H11.75V23H3.00003V19.1313ZM28.1625 14.3016C28.6766 16.7203 30.5703 18.6156 32.9907 19.1297C32.9922 19.1297 32.9969 19.1297 33 19.1313V23H14.25V3H33V6.86875C33 6.86875 32.9938 6.86875 32.9907 6.87031C31.3532 7.21719 29.95 8.18281 29.0375 9.58594C28.1266 10.9891 27.8157 12.6641 28.1625 14.3016Z" fill="#3283CA"/>
</svg>
