<svg width="30" height="35" viewBox="0 0 30 35" fill="none" xmlns="http://www.w3.org/2000/svg">
<path fill-rule="evenodd" clip-rule="evenodd" d="M15 7.5C8.09644 7.5 2.5 13.0964 2.5 20C2.5 26.9036 8.09644 32.5 15 32.5C21.9036 32.5 27.5 26.9036 27.5 20C27.5 13.0964 21.9036 7.5 15 7.5ZM0 20C0 11.7157 6.71573 5 15 5C23.2843 5 30 11.7157 30 20C30 28.2843 23.2843 35 15 35C6.71573 35 0 28.2843 0 20Z" fill="#3283CA"/>
<path fill-rule="evenodd" clip-rule="evenodd" d="M22.0714 12.9287C22.5595 13.4168 22.5595 14.2083 22.0714 14.6964L15.8839 20.8839C15.3957 21.3721 14.6043 21.3721 14.1161 20.8839C13.628 20.3958 13.628 19.6043 14.1161 19.1162L20.3036 12.9287C20.7918 12.4405 21.5832 12.4405 22.0714 12.9287Z" fill="#3283CA"/>
<path fill-rule="evenodd" clip-rule="evenodd" d="M10 1.25C10 0.559644 10.5596 0 11.25 0H18.75C19.4404 0 20 0.559644 20 1.25C20 1.94036 19.4404 2.5 18.75 2.5H11.25C10.5596 2.5 10 1.94036 10 1.25Z" fill="#3283CA"/>
</svg>
