<svg width="20" height="18" viewBox="0 0 20 18" fill="none" xmlns="http://www.w3.org/2000/svg">
<path fill-rule="evenodd" clip-rule="evenodd" d="M4.375 6.75C4.375 6.33579 4.71079 6 5.125 6H14.875C15.2892 6 15.625 6.33579 15.625 6.75C15.625 7.16421 15.2892 7.5 14.875 7.5H5.125C4.71079 7.5 4.375 7.16421 4.375 6.75Z" fill="#595959"/>
<path fill-rule="evenodd" clip-rule="evenodd" d="M4.375 9.75C4.375 9.33579 4.71079 9 5.125 9H14.875C15.2892 9 15.625 9.33579 15.625 9.75C15.625 10.1642 15.2892 10.5 14.875 10.5H5.125C4.71079 10.5 4.375 10.1642 4.375 9.75Z" fill="#595959"/>
<path fill-rule="evenodd" clip-rule="evenodd" d="M0.68934 1.18934C0.970644 0.908036 1.35217 0.75 1.75 0.75H18.25C18.6478 0.75 19.0294 0.908035 19.3107 1.18934C19.592 1.47065 19.75 1.85218 19.75 2.25V16.5C19.75 16.7599 19.6154 17.0013 19.3943 17.138C19.1732 17.2746 18.8971 17.2871 18.6646 17.1708L16 15.8385L13.3354 17.1708C13.1243 17.2764 12.8757 17.2764 12.6646 17.1708L10 15.8385L7.33541 17.1708C7.12426 17.2764 6.87574 17.2764 6.66459 17.1708L4 15.8385L1.33541 17.1708C1.10292 17.2871 0.826814 17.2746 0.605702 17.138C0.384589 17.0013 0.25 16.7599 0.25 16.5V2.25C0.25 1.85217 0.408036 1.47064 0.68934 1.18934ZM18.25 2.25L1.75 2.25L1.75 15.2865L3.66459 14.3292C3.87574 14.2236 4.12426 14.2236 4.33541 14.3292L7 15.6615L9.66459 14.3292C9.87574 14.2236 10.1243 14.2236 10.3354 14.3292L13 15.6615L15.6646 14.3292C15.8757 14.2236 16.1243 14.2236 16.3354 14.3292L18.25 15.2865V2.25Z" fill="#595959"/>
</svg>
