<svg width="42" height="42" viewBox="0 0 42 42" fill="none" xmlns="http://www.w3.org/2000/svg">
<path fill-rule="evenodd" clip-rule="evenodd" d="M19.7626 0.512563C20.446 -0.170854 21.554 -0.170854 22.2374 0.512563L31.4249 9.70006C32.1084 10.3835 32.1084 11.4915 31.4249 12.1749C30.7415 12.8584 29.6335 12.8584 28.9501 12.1749L21 4.22487L13.0499 12.1749C12.3665 12.8584 11.2585 12.8584 10.5751 12.1749C9.89165 11.4915 9.89165 10.3835 10.5751 9.70006L19.7626 0.512563Z" fill="#8C8C8C"/>
<path fill-rule="evenodd" clip-rule="evenodd" d="M21 2.6077e-08C21.9665 2.6077e-08 22.75 0.783502 22.75 1.75V26.25C22.75 27.2165 21.9665 28 21 28C20.0335 28 19.25 27.2165 19.25 26.25V1.75C19.25 0.783502 20.0335 2.6077e-08 21 2.6077e-08Z" fill="#8C8C8C"/>
<path fill-rule="evenodd" clip-rule="evenodd" d="M1.75 24.5C2.7165 24.5 3.5 25.2835 3.5 26.25V38.5H38.5V26.25C38.5 25.2835 39.2835 24.5 40.25 24.5C41.2165 24.5 42 25.2835 42 26.25V38.5C42 39.4283 41.6313 40.3185 40.9749 40.9749C40.3185 41.6313 39.4283 42 38.5 42H3.5C2.57175 42 1.68151 41.6313 1.02513 40.9749C0.368749 40.3185 0 39.4283 0 38.5V26.25C0 25.2835 0.783502 24.5 1.75 24.5Z" fill="#8C8C8C"/>
</svg>
