<svg width="40" height="40" viewBox="0 0 40 40" fill="none" xmlns="http://www.w3.org/2000/svg">
<g clip-path="url(#clip0_819_14036)">
<path d="M0 40L2.82712 29.7338C1.07927 26.7205 0.162369 23.308 0.17192 19.8194C0.17192 8.88783 9.11174 0 20.0859 0C25.4155 0 30.4202 2.06274 34.1738 5.80799C37.9369 9.55323 40.0095 14.5342 40 19.8289C40 30.7605 31.0601 39.6483 20.0764 39.6483H20.0668C16.7335 39.6483 13.4575 38.8118 10.5444 37.2338L0 40ZM11.0506 33.6502L11.6523 34.0114C14.1929 35.5133 17.106 36.3023 20.0764 36.3118H20.0859C29.2072 36.3118 36.638 28.9259 36.638 19.8384C36.638 15.4373 34.9188 11.3023 31.7956 8.18441C28.6724 5.06654 24.5081 3.35551 20.0859 3.35551C10.9647 3.34601 3.5339 10.7319 3.5339 19.8194C3.5339 22.9278 4.40305 25.9601 6.06494 28.5837L6.45654 29.211L4.7851 35.2852L11.0506 33.6502Z" fill="#F5F5F5"/>
<path d="M0.697266 39.3075L3.42888 29.393C1.73833 26.4938 0.850083 23.1953 0.850083 19.8303C0.859634 9.27897 9.48427 0.695312 20.086 0.695312C25.234 0.695312 30.0573 2.69151 33.6867 6.30368C37.3162 9.91585 39.3123 14.7257 39.3123 19.8398C39.3123 30.3911 30.6781 38.9748 20.086 38.9748H20.0764C16.8577 38.9748 13.6963 38.1668 10.8883 36.6459L0.697266 39.3075Z" fill="#3283CA"/>
<path d="M0 40L2.82712 29.7338C1.07927 26.7205 0.162369 23.308 0.17192 19.8194C0.17192 8.88783 9.11174 0 20.0859 0C25.4155 0 30.4202 2.06274 34.1738 5.80799C37.9369 9.55323 40.0095 14.5342 40 19.8289C40 30.7605 31.0601 39.6483 20.0764 39.6483H20.0668C16.7335 39.6483 13.4575 38.8118 10.5444 37.2338L0 40ZM11.0506 33.6502L11.6523 34.0114C14.1929 35.5133 17.106 36.3023 20.0764 36.3118H20.0859C29.2072 36.3118 36.638 28.9259 36.638 19.8384C36.638 15.4373 34.9188 11.3023 31.7956 8.18441C28.6724 5.06654 24.5081 3.35551 20.0859 3.35551C10.9647 3.34601 3.5339 10.7319 3.5339 19.8194C3.5339 22.9278 4.40305 25.9601 6.06494 28.5837L6.45654 29.211L4.7851 35.2852L11.0506 33.6502Z" fill="#F5F5F5"/>
<path fill-rule="evenodd" clip-rule="evenodd" d="M15.1102 11.5291C14.7377 10.7021 14.3461 10.6831 13.9927 10.6736C13.7062 10.6641 13.3719 10.6641 13.0376 10.6641C12.7033 10.6641 12.1684 10.7876 11.71 11.2819C11.2515 11.7762 9.97168 12.9739 9.97168 15.4169C9.97168 17.8504 11.7577 20.2078 12.0061 20.5405C12.2544 20.8732 15.454 26.0348 20.5065 28.0215C24.709 29.6755 25.5686 29.3428 26.476 29.2572C27.3833 29.1717 29.4177 28.0595 29.8379 26.8998C30.2486 25.7401 30.2486 24.7515 30.1245 24.5424C30.0003 24.3333 29.666 24.2097 29.1694 23.9625C28.6727 23.7154 26.2276 22.5177 25.7692 22.3466C25.3107 22.185 24.9764 22.0994 24.6517 22.5937C24.3174 23.088 23.3623 24.2002 23.0758 24.5329C22.7892 24.8656 22.4932 24.9036 21.9965 24.6565C21.4998 24.4093 19.8953 23.8865 17.9946 22.1945C16.5142 20.8827 15.5113 19.2572 15.2248 18.7629C14.9382 18.2686 15.1961 18.0025 15.4445 17.7553C15.6641 17.5367 15.9411 17.1755 16.1894 16.8903C16.4378 16.6051 16.5237 16.396 16.6861 16.0633C16.8485 15.7306 16.7721 15.4454 16.6479 15.1983C16.5237 14.9606 15.5495 12.5082 15.1102 11.5291Z" fill="#F5F5F5"/>
</g>
<defs>
<clipPath id="clip0_819_14036">
<rect width="40" height="40" rx="6" fill="white"/>
</clipPath>
</defs>
</svg>
